RobotoCondensed-ThinItalic.ufo
<glyph name="exclam" format="1">
  <advance width="361.81"/>
  <unicode hex="0021"/>
  <outline>
    <contour>
      <point x="348.77131721346734" y="1455.6793347660994" type="line"/>
      <point x="302.75182266789602" y="1455.6773762439582" type="line"/>
      <point x="120.6388895721018" y="401.3206652338983" type="line"/>
      <point x="166.65838411767328" y="401.32262375603915" type="line"/>
    </contour>
    <contour>
      <point x="42.745094747632677" y="50.719894843488852" type="curve" smooth="yes"/>
      <point x="39.054777235749064" y="27.144423846808554"/>
      <point x="54.20278944787637" y="-4.8155986745918931"/>
      <point x="81.349462114971587" y="-5.6320166486427699" type="curve" smooth="yes"/>
      <point x="105.93188417772583" y="-6.3713165055296104"/>
      <point x="131.98491595506596" y="25.383802720404198"/>
      <point x="135.50258535723282" y="47.283292525195343" type="curve" smooth="yes"/>
      <point x="139.25547082659099" y="70.647135933598591"/>
      <point x="124.33259230033916" y="103.76963369115829"/>
      <point x="97.08558499151404" y="104.63284257696607" type="curve" smooth="yes"/>
      <point x="72.451261748725329" y="105.41327935954618"/>
      <point x="46.152514880718115" y="72.488085320968196"/>
    </contour>
  </outline>
</glyph>
<glyph name="quotedbl" format="1">
  <advance width="505.37"/>
  <unicode hex="0022"/>
  <outline>
    <contour>
      <point x="350.21226538184305" y="1535.7393972809552" type="line"/>
      <point x="295.42626890854939" y="1535.7425124978106" type="line"/>
      <point x="273.50090070220915" y="1394.6405894824263" type="line"/>
      <point x="227.04886949904244" y="1122.3035466673373" type="line"/>
      <point x="277.08925627160505" y="1122.3235677174357" type="line"/>
      <point x="327.73591507404552" y="1388.3943509794574" type="line"/>
    </contour>
    <contour>
      <point x="545.18246530989495" y="1535.7396355188598" type="line"/>
      <point x="491.36585411940723" y="1535.742023835802" type="line"/>
      <point x="469.44349721178037" y="1394.6368676629602" type="line"/>
      <point x="422.00714874046491" y="1122.311260654744" type="line"/>
      <point x="472.05582458334084" y="1122.3264060112892" type="line"/>
      <point x="522.70602599857659" y="1388.3944596784211" type="line"/>
    </contour>
  </outline>
</glyph>
<glyph name="numbersign" format="1">
  <advance width="952.54"/>
  <unicode hex="0023"/>
  <outline>
    <contour>
      <point x="458.19317256004717" y="0.0" type="line"/>
      <point x="505.78298075940495" y="0.0" type="line"/>
      <point x="638.49451796878361" y="409.82147517212513" type="line"/>
      <point x="878.0282026912846" y="410.25693151811873" type="line"/>
      <point x="884.91289829605876" y="461.738793027599" type="line"/>
      <point x="655.23350033676331" y="462.13868755378388" type="line"/>
      <point x="824.10565870591324" y="985.84659623931179" type="line"/>
      <point x="1038.938284828205" y="986.27518636119817" type="line"/>
      <point x="1046.1504001840822" y="1039.7382136266151" type="line"/>
      <point x="841.69172478329642" y="1040.1319457148654" type="line"/>
      <point x="974.80481470730069" y="1455.161903588219" type="line"/>
      <point x="927.22027573630953" y="1455.1917291164621" type="line"/>
      <point x="792.24851221967856" y="1040.1701933520997" type="line"/>
      <point x="498.46105899922372" y="1040.1446828752712" type="line"/>
      <point x="631.42468826787183" y="1455.1642471856087" type="line"/>
      <point x="583.84080777751558" y="1455.1950091254218" type="line"/>
      <point x="449.66351778541991" y="1040.1795948264632" type="line"/>
      <point x="197.94972751402008" y="1039.7416278474584" type="line"/>
      <point x="190.67511010094569" y="986.26649261472858" type="line"/>
      <point x="432.49905206957646" y="985.85821471111194" type="line"/>
      <point x="264.17033496802793" y="462.15354563194308" type="line"/>
      <point x="35.711041126323309" y="461.73529078137534" type="line"/>
      <point x="28.824117591327209" y="410.24918313110476" type="line"/>
      <point x="247.46174609853404" y="409.86380944527036" type="line"/>
      <point x="116.75307583882862" y="0.0" type="line"/>
      <point x="164.33323007860702" y="0.0" type="line"/>
      <point x="296.80399364959726" y="409.83179427067256" type="line"/>
      <point x="589.75272291408805" y="409.85523235846796" type="line"/>
    </contour>
    <contour>
      <point x="312.85956533770786" y="462.13240377341344" type="line"/>
      <point x="481.72502124962045" y="985.85503863627764" type="line"/>
      <point x="775.48463079019018" y="985.86561843415336" type="line"/>
      <point x="605.92044403708189" y="462.14490510607732" type="line"/>
    </contour>
  </outline>
</glyph>
<glyph name="dollar" format="1">
  <advance width="952.54"/>
  <unicode hex="0024"/>
  <outline>
    <contour>
      <point x="796.78803908351949" y="345.88335977237966" type="curve" smooth="yes"/>
      <point x="828.9851810730288" y="562.07397993242057"/>
      <point x="704.93265738982382" y="670.83294358639682"/>
      <point x="522.9591390011517" y="754.02244099514007" type="curve" smooth="yes"/>
      <point x="357.75135817841146" y="829.54745351538543"/>
      <point x="246.83319248593401" y="918.49689289719049"/>
      <point x="280.84612359286695" y="1112.037202548692" type="curve" smooth="yes"/>
      <point x="310.95590844158505" y="1283.3678375016193"/>
      <point x="443.52906291444816" y="1423.7344897772077"/>
      <point x="624.17023742232107" y="1423.6899528715603" type="curve" smooth="yes"/>
      <point x="834.75403118444251" y="1423.6380336422969"/>
      <point x="878.34998690360044" y="1218.2932543805864"/>
      <point x="854.17491507715829" y="1047.272297099704" type="curve"/>
      <point x="899.12741876862935" y="1047.1869611959432" type="line"/>
      <point x="925.7581647978003" y="1244.8355074604995"/>
      <point x="881.32847021091709" y="1453.349063095397"/>
      <point x="651.392723570572" y="1475.8599697487596" type="curve"/>
      <point x="682.64547033885685" y="1662.7372184470164" type="line"/>
      <point x="635.62964856565566" y="1662.7207452044327" type="line"/>
      <point x="604.44024106923803" y="1476.3877910346584" type="line"/>
      <point x="400.79727924074336" y="1458.6650954733291"/>
      <point x="264.69888705280954" y="1309.0868652696358"/>
      <point x="234.92756429977976" y="1110.1148161859701" type="curve" smooth="yes"/>
      <point x="201.92424113909846" y="889.54219029608146"/>
      <point x="325.44365614729759" y="788.19780121533915"/>
      <point x="508.744633996733" y="701.97956490359672" type="curve" smooth="yes"/>
      <point x="667.50853747495853" y="627.30269242611325"/>
      <point x="783.15604719684688" y="532.22521535835745"/>
      <point x="749.93838406306656" y="343.95487276456089" type="curve" smooth="yes"/>
      <point x="720.10546616529609" y="174.86851498660945"/>
      <point x="579.93679403223541" y="33.978593469076792"/>
      <point x="403.62513122971592" y="32.230664345289135" type="curve" smooth="yes"/>
      <point x="181.7379053260297" y="30.030905474045809"/>
      <point x="106.03707789970144" y="212.95915367583783"/>
      <point x="132.99455656054226" y="408.70348115062581" type="curve"/>
      <point x="88.051572280974071" y="408.81774758772764" type="line"/>
      <point x="59.308567381792329" y="186.31416312755178"/>
      <point x="141.97331486478251" y="-5.3399921836669968"/>
      <point x="385.1516241216251" y="-20.394954051834397" type="curve"/>
      <point x="353.764759348143" y="-207.74499388892355" type="line"/>
      <point x="399.81228031196702" y="-207.72378291800223" type="line"/>
      <point x="431.21804176194109" y="-19.964438033886378" type="line"/>
      <point x="632.64535493034191" y="0.73360880616289137"/>
      <point x="767.33773152598405" y="148.13660768978735"/>
    </contour>
  </outline>
</glyph>
<glyph name="percent" format="1">
  <advance width="1283.31"/>
  <unicode hex="0025"/>
  <outline>
    <contour>
      <point x="198.56395323818111" y="1099.0518605981422" type="line" smooth="yes"/>
      <point x="180.11872611653916" y="973.94385601737383"/>
      <point x="217.51774915271272" y="799.13453118946393"/>
      <point x="375.47397074966068" y="800.2732072009361" type="curve" smooth="yes"/>
      <point x="529.7664374615149" y="801.38547190833049"/>
      <point x="618.74679423939403" y="966.56146827337614"/>
      <point x="642.95854843742984" y="1098.8306803590606" type="curve" smooth="yes"/>
      <point x="655.63116089463858" y="1175.9392505282362" type="line" smooth="yes"/>
      <point x="673.89522141224575" y="1299.9138594463266"/>
      <point x="638.59251651856357" y="1477.2907633024347"/>
      <point x="480.96336552674052" y="1476.7543385595259" type="curve" smooth="yes"/>
      <point x="324.99545314071725" y="1476.2235671458802"/>
      <point x="235.52741469112544" y="1309.7026691448891"/>
      <point x="211.25875757599476" y="1176.1470292425965" type="curve" smooth="yes"/>
    </contour>
    <contour>
      <point x="258.38588347579156" y="1175.9811139202125" type="line" smooth="yes"/>
      <point x="280.43443327391202" y="1284.8557390397239"/>
      <point x="353.04214816663466" y="1421.9596046815591"/>
      <point x="481.23342765360564" y="1421.5387460040679" type="curve" smooth="yes"/>
      <point x="610.94162304218366" y="1421.1129072123069"/>
      <point x="626.1911297539732" y="1274.3167005836099"/>
      <point x="609.86601095679634" y="1176.0104896943353" type="curve" smooth="yes"/>
      <point x="595.78100653030685" y="1099.0200124442654" type="line" smooth="yes"/>
      <point x="573.87048292875204" y="990.35775516980243"/>
      <point x="503.18641296727202" y="855.04756289582599"/>
      <point x="375.22268111218648" y="855.45542644238503" type="curve" smooth="yes"/>
      <point x="245.57216398466772" y="855.86866634217733"/>
      <point x="227.77625000638761" y="999.45708099075114"/>
      <point x="244.28997735247498" y="1098.9889161667688" type="curve" smooth="yes"/>
    </contour>
    <contour>
      <point x="1060.3224059715892" y="1266.7475406234769" type="line"/>
      <point x="1025.3691819184537" y="1299.56279854986" type="line"/>
      <point x="250.00868220221645" y="164.26153761671779" type="line"/>
      <point x="283.94673601501103" y="131.41696841042599" type="line"/>
    </contour>
    <contour>
      <point x="672.44574126886323" y="279.05016708965155" type="line" smooth="yes"/>
      <point x="654.00959349926347" y="154.15028168176281"/>
      <point x="690.23457341035385" y="-21.395341038938504"/>
      <point x="848.23430742235053" y="-20.750709921724599" type="curve" smooth="yes"/>
      <point x="1003.339612970461" y="-20.117887929798393"/>
      <point x="1092.6476540807478" y="146.04164598658707"/>
      <point x="1116.7982330970995" y="278.85197842312164" type="curve" smooth="yes"/>
      <point x="1129.6636517028635" y="356.94961531936656" type="line" smooth="yes"/>
      <point x="1148.0997994724646" y="481.84950072725832"/>
      <point x="1111.8748195613748" y="657.39512344795264"/>
      <point x="953.87508554937608" y="656.75049233074196" type="curve" smooth="yes"/>
      <point x="798.76978000124564" y="656.11767033881881"/>
      <point x="709.46173889094973" y="489.95813642227677"/>
      <point x="685.31115987462772" y="357.14780398589602" type="curve" smooth="yes"/>
    </contour>
    <contour>
      <point x="732.42819886533641" y="356.98144491980065" type="line" smooth="yes"/>
      <point x="754.7392018002472" y="468.01388808495295"/>
      <point x="823.50578656708501" y="601.88315082067606"/>
      <point x="954.1518730919247" y="601.56018555577202" type="curve" smooth="yes"/>
      <point x="1087.4998205319037" y="601.23054112236468"/>
      <point x="1100.9444411963427" y="458.93164390407605"/>
      <point x="1083.9031381621444" y="357.01714357827291" type="curve" smooth="yes"/>
      <point x="1069.6534346900164" y="279.02428345620842" type="line" smooth="yes"/>
      <point x="1047.6197227305452" y="169.58539024320282"/>
      <point x="976.79630001398368" y="34.000011619950371"/>
      <point x="847.96429204470564" y="34.456700502931412" type="curve" smooth="yes"/>
      <point x="717.81555651963265" y="34.918056974705991"/>
      <point x="701.66717387452309" y="179.63588947610927"/>
      <point x="718.17144162918237" y="278.99098105767638" type="curve" smooth="yes"/>
    </contour>
  </outline>
</glyph>
<glyph name="ampersand" format="1">
  <advance width="1054.3899999999999"/>
  <unicode hex="0026"/>
  <outline>
    <contour>
      <point x="847.94416536105098" y="0.0" type="line"/>
      <point x="902.24616891641415" y="0.0" type="line"/>
      <point x="779.33731200892487" y="215.4545358240963" type="line"/>
      <point x="875.03191163758277" y="337.90446531118266"/>
      <point x="928.18096231833442" y="479.02667770014648"/>
      <point x="953.53169974835225" y="631.55774268322614" type="curve"/>
      <point x="907.43497770799411" y="631.62306779680523" type="line"/>
      <point x="882.66468318209832" y="495.85152974092284"/>
      <point x="834.37834680230765" y="369.45400735240588"/>
      <point x="752.48755851575629" y="257.74354443370794" type="curve"/>
      <point x="453.16857494348142" y="793.60981679131385" type="line"/>
      <point x="599.85097933960174" y="917.95729768341096" type="line" smooth="yes"/>
      <point x="687.87985458631829" y="994.47384152031941"/>
      <point x="781.0141918492875" y="1092.9155223712467"/>
      <point x="799.33205573021712" y="1212.8701557736983" type="curve" smooth="yes"/>
      <point x="819.40032709326624" y="1344.2873422984678"/>
      <point x="756.59089318719191" y="1476.6655021327003"/>
      <point x="609.91659175958887" y="1476.7576242051512" type="curve" smooth="yes"/>
      <point x="439.99363915582364" y="1476.8643481124645"/>
      <point x="339.3304254032123" y="1319.2495268382356"/>
      <point x="316.51215039198843" y="1167.125346416912" type="curve" smooth="yes"/>
      <point x="297.14549467797843" y="1038.0123163326234"/>
      <point x="340.0887365030901" y="917.92547007289488"/>
      <point x="394.92649300221751" y="803.10911127860936" type="curve"/>
      <point x="344.65281721684812" y="761.81467962286604" type="line" smooth="yes"/>
      <point x="219.91532455233249" y="655.22104486004639"/>
      <point x="98.817722462982559" y="520.24413432773497"/>
      <point x="73.916808232870224" y="352.07552449677871" type="curve" smooth="yes"/>
      <point x="43.220117003386022" y="144.7650682312869"/>
      <point x="156.73422520127323" y="-20.27745797944581"/>
      <point x="374.48082265012147" y="-19.770699812796103" type="curve" smooth="yes"/>
      <point x="524.85046462460764" y="-19.420746954843114"/>
      <point x="648.73657399445813" y="73.650211399056957"/>
      <point x="749.9755503680052" y="175.78067615523344" type="curve"/>
    </contour>
    <contour>
      <point x="363.44906333211264" y="1169.0702428879301" type="curve" smooth="yes"/>
      <point x="384.97151046486715" y="1292.9888706034583"/>
      <point x="471.20847792926747" y="1423.6423867135907"/>
      <point x="610.32441309211856" y="1422.5506859930065" type="curve" smooth="yes"/>
      <point x="725.68993662042544" y="1421.6453646506384"/>
      <point x="769.8213995673525" y="1314.3144909906341"/>
      <point x="751.97968411431202" y="1213.0471369089398" type="curve" smooth="yes"/>
      <point x="733.72785887129498" y="1109.452050753318"/>
      <point x="655.32351050651596" y="1025.9332467978345"/>
      <point x="578.35149862465801" y="960.01238250828817" type="curve" smooth="yes"/>
      <point x="429.09330754399082" y="834.47602952415423" type="line"/>
      <point x="378.17498041408959" y="938.11549696849806"/>
      <point x="343.23767954265418" y="1052.700253547363"/>
    </contour>
    <contour>
      <point x="119.47623995817428" y="351.97870133990074" type="curve" smooth="yes"/>
      <point x="144.00192243607546" y="502.11516050531782"/>
      <point x="261.02400136467026" y="625.90480560882395"/>
      <point x="370.36353152801968" y="722.65513419288925" type="curve" smooth="yes"/>
      <point x="419.15715249613891" y="763.81660334576407" type="line"/>
      <point x="425.82969958165472" y="750.89821714828054"/>
      <point x="432.53981040757566" y="738.00812851136095"/>
      <point x="439.48428312930196" y="725.23277193676677" type="curve" smooth="yes"/>
      <point x="723.1269511132424" y="217.01840219075837" type="line"/>
      <point x="631.2141069816746" y="120.30869254021212"/>
      <point x="513.32265429189169" y="34.132461963173405"/>
      <point x="373.94589408336338" y="34.276450811082761" type="curve" smooth="yes"/>
      <point x="189.30434891300519" y="34.467202291641684"/>
      <point x="90.784666877246011" y="176.34031924236822"/>
    </contour>
  </outline>
</glyph>
<glyph name="parenleft" format="1">
  <advance width="533.5"/>
  <unicode hex="0028"/>
  <outline>
    <contour>
      <point x="133.6388129659307" y="566.0000035989159" type="line" smooth="yes"/>
      <point x="87.268608510261089" y="257.84669936694024"/>
      <point x="57.059185052581427" y="-232.94874049793108"/>
      <point x="312.58175102933626" y="-469.68788033567967" type="curve"/>
      <point x="333.86036098151681" y="-428.46949987959084" type="line"/>
      <point x="100.96023610232885" y="-208.83750752481703"/>
      <point x="136.40820935401644" y="282.29610353906412"/>
      <point x="179.82396092047537" y="564.00077668233814" type="curve" smooth="yes"/>
      <point x="183.93488568819117" y="589.99897836280627" type="line" smooth="yes"/>
      <point x="237.64734138511801" y="921.07924664104848"/>
      <point x="367.45036362007272" y="1362.5335054510297"/>
      <point x="646.33911007564382" y="1578.5293255968647" type="curve"/>
      <point x="636.09509900122362" y="1622.9393950955391" type="line"/>
      <point x="328.62451673484867" y="1412.8026029504058"/>
      <point x="191.26214648791648" y="931.25770262736432"/>
      <point x="136.72048281280246" y="586.00081957019734" type="curve" smooth="yes"/>
    </contour>
  </outline>
</glyph>
<glyph name="parenright" format="1">
  <advance width="546.11"/>
  <unicode hex="0029"/>
  <outline>
    <contour>
      <point x="393.73819953458252" y="586.00035971688851" type="line" smooth="yes"/>
      <point x="439.50162418505624" y="890.42290784703778"/>
      <point x="467.3304519648409" y="1389.0685754442527"/>
      <point x="215.00645353150668" y="1622.7085281095874" type="curve"/>
      <point x="194.65458768317706" y="1581.434735798023" type="line"/>
      <point x="428.13145073864996" y="1363.1762985999792"/>
      <point x="392.11477672375474" y="870.75241215407164"/>
      <point x="348.84556739457469" y="589.99833784243094" type="curve" smooth="yes"/>
      <point x="344.73464772937388" y="564.00013683179588" type="line" smooth="yes"/>
      <point x="290.85941926608484" y="231.91621321162893"/>
      <point x="160.71293562213168" y="-208.0497944923668"/>
      <point x="-117.80950811111218" y="-425.59074251245266" type="curve"/>
      <point x="-108.59761570354745" y="-469.91273387324253" type="line"/>
      <point x="203.28539718188529" y="-258.93650735399893"/>
      <point x="335.68488181457309" y="217.68892627789853"/>
      <point x="390.65561112348252" y="565.99972933730373" type="curve" smooth="yes"/>
    </contour>
  </outline>
</glyph>
<glyph name="asterisk" format="1">
  <advance width="830.3199999999999"/>
  <unicode hex="002A"/>
  <outline>
    <contour>
      <point x="169.37984378609417" y="695.17384937243776" type="line"/>
      <point x="211.75081117731571" y="661.61550720749619" type="line"/>
      <point x="489.28935290317384" y="984.73766414270096" type="line"/>
      <point x="668.21056747145906" y="663.78634182729854" type="line"/>
      <point x="717.25191916717267" y="695.23691617263876" type="line"/>
      <point x="528.67498054412567" y="1011.881881113457" type="line"/>
      <point x="903.63384497921106" y="1149.7469728811002" type="line"/>
      <point x="890.82435548152341" y="1204.0877966002522" type="line"/>
      <point x="527.48131696382166" y="1063.9146967363545" type="line"/>
      <point x="601.66989338620203" y="1455.6723976651506" type="line"/>
      <point x="545.86069769542928" y="1455.6923432181659" type="line"/>
      <point x="476.64850482258566" y="1060.8443555538379" type="line"/>
      <point x="146.98842899641323" y="1194.1915926390345" type="line"/>
      <point x="122.40899247379021" y="1142.0511156835601" type="line"/>
      <point x="452.28284754693414" y="1019.1407952460802" type="line"/>
    </contour>
  </outline>
</glyph>
<glyph name="plus" format="1">
  <advance width="976.79"/>
  <unicode hex="002B"/>
  <outline>
    <contour>
      <point x="902.88519025780931" y="649.24827509826753" type="line"/>
      <point x="910.06348019675499" y="701.7492546399294" type="line"/>
      <point x="519.24202754232249" y="702.07390584599443" type="line"/>
      <point x="606.17846895053935" y="1205.6767327177579" type="line"/>
      <point x="559.1890735114406" y="1205.6748423306803" type="line"/>
      <point x="471.73560085387749" y="702.08574933097736" type="line"/>
      <point x="94.807399377477211" y="701.75078715464008" type="line"/>
      <point x="87.634045406294646" y="649.25060450976628" type="line"/>
      <point x="462.91934333227573" y="648.92190467342687" type="line"/>
      <point x="376.17042278123654" y="146.32219606029798" type="line"/>
      <point x="423.15977885116138" y="146.32412684252031" type="line"/>
      <point x="510.45235007381314" y="648.91795166905729" type="line"/>
    </contour>
  </outline>
</glyph>
<glyph name="hyphen" format="1">
  <advance width="533.5"/>
  <unicode hex="002D"/>
  <outline>
    <contour>
      <point x="468.17825347454448" y="692.74667242056194" type="line"/>
      <point x="83.607806836425297" y="692.74949387069455" type="line"/>
      <point x="76.144734193011928" y="639.25332757943659" type="line"/>
      <point x="460.71518083113119" y="639.25050612930397" type="line"/>
    </contour>
  </outline>
</glyph>
<glyph name="slash" format="1">
  <advance width="676.09"/>
  <unicode hex="002F"/>
  <outline>
    <contour>
      <point x="746.56938868174836" y="1454.9054618340224" type="line"/>
      <point x="695.35827021513819" y="1455.0320049876061" type="line"/>
      <point x="-72.439956643304669" y="-123.90607296248024" type="line"/>
      <point x="-21.228838176694651" y="-124.03261611606271" type="line"/>
    </contour>
  </outline>
</glyph>
<glyph name="zero" format="1">
  <advance width="952.54"/>
  <unicode hex="0030"/>
  <outline>
    <contour>
      <point x="877.73500504169488" y="862.01406814158042" type="line" smooth="yes"/>
      <point x="912.5922388617256" y="1072.3009433605398"/>
      <point x="932.56774144434507" y="1477.2686039295952"/>
      <point x="622.51127898810864" y="1476.857524635715" type="curve" smooth="yes"/>
      <point x="320.42891921493555" y="1476.4570175726933"/>
      <point x="207.82265836832471" y="1099.9183884542451"/>
      <point x="165.83130442525788" y="862.02537328606229" type="curve" smooth="yes"/>
      <point x="119.7230217661406" y="593.98555101914633" type="line" smooth="yes"/>
      <point x="84.98446042225541" y="384.28706403629235"/>
      <point x="66.121211985421951" y="-20.176455547812765"/>
      <point x="375.11761109728081" y="-19.860944990110905" type="curve" smooth="yes"/>
      <point x="677.97054313151443" y="-19.551707414001893"/>
      <point x="789.50048531774928" y="355.2628155787055"/>
      <point x="831.62247663580547" y="593.97470755052188" type="curve" smooth="yes"/>
    </contour>
    <contour>
      <point x="785.17908224099722" y="596.00879497155074" type="line" smooth="yes"/>
      <point x="747.06435829952284" y="384.81794817624484"/>
      <point x="645.70154785895693" y="33.878603070339615"/>
      <point x="374.51657098894367" y="34.237620461573933" type="curve" smooth="yes"/>
      <point x="100.25229100050797" y="34.600714492248812"/>
      <point x="135.16110366667044" y="417.76133117271547"/>
      <point x="165.41349686256848" y="596.00278853989846" type="curve" smooth="yes"/>
      <point x="211.65304678321934" y="861.99105627171218" type="line" smooth="yes"/>
      <point x="249.93092191137606" y="1073.9923915590566"/>
      <point x="351.33872213169775" y="1423.0404743526365"/>
      <point x="623.11403153647166" y="1422.7683837657432" type="curve" smooth="yes"/>
      <point x="899.33540097596631" y="1422.4918419610892"/>
      <point x="861.92702703314762" y="1041.6605879799781"/>
      <point x="831.40878305408341" y="861.99816463777245" type="curve" smooth="yes"/>
    </contour>
  </outline>
</glyph>
<glyph name="one" format="1">
  <advance width="952.54"/>
  <unicode hex="0031"/>
  <outline>
    <contour>
      <point x="704.93135017458576" y="1459.6140571502565" type="line"/>
      <point x="692.61458447476775" y="1459.5114286449684" type="line"/>
      <point x="290.26232213565623" y="1290.2616789481876" type="line"/>
      <point x="282.02611897169652" y="1231.8101655384562" type="line"/>
      <point x="647.93380293451219" y="1384.8653483519806" type="line"/>
      <point x="408.12147424592234" y="0.0" type="line"/>
      <point x="454.14167663058947" y="0.0" type="line"/>
    </contour>
  </outline>
</glyph>
<glyph name="two" format="1">
  <advance width="952.54"/>
  <unicode hex="0032"/>
  <outline>
    <contour>
      <point x="768.37474972696839" y="53.786137256179437" type="line"/>
      <point x="119.89350589471697" y="54.357629495039539" type="line"/>
      <point x="541.28628071514458" y="545.9959072535064" type="line" smooth="yes"/>
      <point x="672.51265775113461" y="699.97744021590165"/>
      <point x="836.34489896396053" y="876.7556873240062"/>
      <point x="867.51415594232776" y="1084.9565118764401" type="curve" smooth="yes"/>
      <point x="897.72235043978867" y="1286.7377415983021"/>
      <point x="815.3772984751289" y="1477.1943345740783"/>
      <point x="588.36683015216374" y="1475.7940689397108" type="curve" smooth="yes"/>
      <point x="358.18288804705549" y="1474.3742284094737"/>
      <point x="219.21635134068705" y="1248.0597560036376"/>
      <point x="183.38343899869204" y="1045.5870839983309" type="curve"/>
      <point x="229.5120372690285" y="1045.5079414574191" type="line"/>
      <point x="264.92835766557107" y="1221.7164654002438"/>
      <point x="386.63737987219815" y="1420.999636726769"/>
      <point x="588.92432890141743" y="1421.7126877130734" type="curve" smooth="yes"/>
      <point x="786.10498151746901" y="1422.4077392697989"/>
      <point x="848.4089463061423" y="1257.4602265205549"/>
      <point x="819.95965489469029" y="1085.040954329826" type="curve" smooth="yes"/>
      <point x="789.52130964590015" y="900.56685764375061"/>
      <point x="647.09575904928511" y="740.58952095394022"/>
      <point x="529.92184526535061" y="604.01635073921011" type="curve" smooth="yes"/>
      <point x="58.459258233977224" y="54.146158374167172" type="line"/>
      <point x="51.71026634025246" y="0.0" type="line"/>
      <point x="761.71247697811259" y="0.0" type="line"/>
    </contour>
  </outline>
</glyph>
<glyph name="three" format="1">
  <advance width="952.54"/>
  <unicode hex="0033"/>
  <outline>
    <contour>
      <point x="471.62517787064178" y="713.9074395053417" type="line" smooth="yes"/>
      <point x="677.51457812605304" y="710.60969498628845"/>
      <point x="796.74177080793584" y="592.64439046953476"/>
      <point x="761.85434401082557" y="381.96813652888966" type="curve" smooth="yes"/>
      <point x="730.06867873587021" y="190.02262767601212"/>
      <point x="597.98493085906932" y="33.862460317721514"/>
      <point x="393.30985897789429" y="34.247319657001199" type="curve" smooth="yes"/>
      <point x="184.56779827080047" y="34.639826330262572"/>
      <point x="92.463183558645923" y="217.38982858728804"/>
      <point x="117.64768641180159" y="404.75741098993069" type="curve"/>
      <point x="72.769171774331326" y="404.85329521702943" type="line"/>
      <point x="45.944445819861215" y="189.03007805875191"/>
      <point x="154.00680906840427" y="-20.407393562764728"/>
      <point x="393.87540958409085" y="-19.875958364381418" type="curve" smooth="yes"/>
      <point x="624.463971509565" y="-19.365083335768524"/>
      <point x="776.15438280878061" y="170.90142400283213"/>
      <point x="807.83917290811814" y="385.90042075277734" type="curve" smooth="yes"/>
      <point x="831.40701613785484" y="545.82139968516753"/>
      <point x="775.09277282672849" y="688.87694317891373"/>
      <point x="615.99603085815454" y="743.83527484558556" type="curve"/>
      <point x="761.5637576481007" y="802.23078057800308"/>
      <point x="866.56630538524485" y="923.52585880576839"/>
      <point x="890.29383422681542" y="1080.8924130187104" type="curve" smooth="yes"/>
      <point x="920.21453761484054" y="1279.3335580380644"/>
      <point x="835.72304794805348" y="1476.118139231294"/>
      <point x="611.64564798429535" y="1475.8107494278991" type="curve" smooth="yes"/>
      <point x="385.19164400497164" y="1475.5000993945962"/>
      <point x="239.55811565302054" y="1280.1365839984041"/>
      <point x="202.37515091810519" y="1074.6581262004663" type="curve"/>
      <point x="247.56684875546955" y="1074.5589794628186" type="line"/>
      <point x="284.74292831743588" y="1254.9145879519792"/>
      <point x="412.9312049349661" y="1421.8727817589631"/>
      <point x="612.20781069959787" y="1421.7119825081156" type="curve" smooth="yes"/>
      <point x="805.544172458704" y="1421.555976528321"/>
      <point x="874.72249603706621" y="1255.7916159535559"/>
      <point x="845.21132571593887" y="1084.9928780648299" type="curve" smooth="yes"/>
      <point x="813.25899689955781" y="900.06570048907508"/>
      <point x="658.62575409613487" y="774.29098717587522"/>
      <point x="473.18847620922122" y="770.01889019988278" type="curve" smooth="yes"/>
      <point x="384.04158498619444" y="769.70643291403212" type="line"/>
      <point x="377.06807852251518" y="714.25920794249657" type="line"/>
    </contour>
  </outline>
</glyph>
<glyph name="four" format="1">
  <advance width="952.54"/>
  <unicode hex="0034"/>
  <outline>
    <contour>
      <point x="56.228820216216988" y="427.1913744696339" type="line"/>
      <point x="52.06562790413814" y="397.4828674177146" type="line"/>
      <point x="625.95589746830592" y="396.92101370990883" type="line"/>
      <point x="557.41605207647251" y="0.0" type="line"/>
      <point x="602.46898220017704" y="0.0" type="line"/>
      <point x="671.1779590347835" y="396.91623336250933" type="line"/>
      <point x="877.71520841019321" y="397.24958276208088" type="line"/>
      <point x="884.95255135026343" y="450.7417928651987" type="line"/>
      <point x="680.76841583268015" y="451.06229311236331" type="line"/>
      <point x="853.1810867011751" y="1455.6131338207017" type="line"/>
      <point x="798.44174234397963" y="1455.1793881984299" type="line"/>
    </contour>
    <contour>
      <point x="131.72045575904826" y="451.33987180951385" type="line"/>
      <point x="706.97407563120134" y="1249.9676199541209" type="line"/>
      <point x="797.41435462495906" y="1383.0237970803671" type="line"/>
      <point x="634.82181507731195" y="451.06534146536171" type="line"/>
    </contour>
  </outline>
</glyph>
<glyph name="five" format="1">
  <advance width="952.54"/>
  <unicode hex="0035"/>
  <outline>
    <contour>
      <point x="266.56730337097207" y="746.50770460554793" type="line"/>
      <point x="347.71660800471466" y="818.97057297966296"/>
      <point x="439.34312155016823" y="862.29659257492995"/>
      <point x="549.96727619000012" y="861.66051717972903" type="curve" smooth="yes"/>
      <point x="768.04745244107949" y="860.40658276779129"/>
      <point x="815.27496401836618" y="639.24370550202786"/>
      <point x="786.915572906801" y="461.94885603801765" type="curve" smooth="yes"/>
      <point x="755.27626192194452" y="264.14888014511041"/>
      <point x="660.88746038508418" y="34.129175346790277"/>
      <point x="427.27369695251809" y="34.23800709953013" type="curve" smooth="yes"/>
      <point x="223.12627064598462" y="34.333111608339102"/>
      <point x="167.55025359803818" y="207.19304970452285"/>
      <point x="179.07561732425052" y="382.91918739941997" type="curve"/>
      <point x="133.41908705474503" y="383.02519930029217" type="line"/>
      <point x="120.54662191331957" y="182.98667567693951"/>
      <point x="197.27362402235011" y="-20.611234672692184"/>
      <point x="427.82546989412117" y="-19.846697030149155" type="curve" smooth="yes"/>
      <point x="690.08282984254265" y="-18.977020090646175"/>
      <point x="800.66317007399527" y="240.5004093218586"/>
      <point x="833.49806746576928" y="463.96170653382126" type="curve" smooth="yes"/>
      <point x="863.57056187315106" y="668.62318393976466"/>
      <point x="796.92054523536103" y="917.77992141536095"/>
      <point x="548.51974831416987" y="915.77693676570823" type="curve" smooth="yes"/>
      <point x="454.91470392493568" y="915.02215067256543"/>
      <point x="358.30287017886496" y="879.28636894336103"/>
      <point x="286.86445262451946" y="818.87387772238333" type="curve"/>
      <point x="429.81208385827517" y="1402.8895123683214" type="line"/>
      <point x="969.14860765858805" y="1403.2046005622158" type="line"/>
      <point x="975.64413979753419" y="1455.8001674521561" type="line"/>
      <point x="395.64493776518918" y="1455.899571373682" type="line"/>
      <point x="233.01348305014778" y="762.99193517784477" type="line"/>
    </contour>
  </outline>
</glyph>
<glyph name="six" format="1">
  <advance width="952.54"/>
  <unicode hex="0036"/>
  <outline>
    <contour>
      <point x="827.34588843575568" y="479.95850621660566" type="curve" smooth="yes"/>
      <point x="857.73525710819581" y="681.84387958297748"/>
      <point x="807.71807106684537" y="956.92922092656977"/>
      <point x="552.93273558922567" y="956.80301016768021" type="curve" smooth="yes"/>
      <point x="397.96902312973134" y="956.72624716358814"/>
      <point x="269.17644039952586" y="858.47249610590382"/>
      <point x="186.76441225322469" y="734.20074917527097" type="curve"/>
      <point x="263.15358157092055" y="1057.2087968588362"/>
      <point x="440.67468759609159" y="1416.6322599535822"/>
      <point x="820.10663530570332" y="1422.2061347965262" type="curve" smooth="yes"/>
      <point x="834.3716317075224" y="1422.2617248584793" type="line"/>
      <point x="841.03469256683707" y="1475.8393398238231" type="line"/>
      <point x="822.88616389814399" y="1475.8689841739247" type="line" smooth="yes"/>
      <point x="384.73692485609234" y="1472.2313238176062"/>
      <point x="192.17444816180137" y="1033.5768349445339"/>
      <point x="132.71936116322706" y="660.00892255014389" type="curve" smooth="yes"/>
      <point x="106.8122732478012" y="491.98799939931439" type="line" smooth="yes"/>
      <point x="75.054906216847755" y="270.4410877832629"/>
      <point x="142.96180659560633" y="-21.53193450369028"/>
      <point x="418.13444719244768" y="-19.825882183179292" type="curve" smooth="yes"/>
      <point x="665.62108394807149" y="-18.291481270295662"/>
      <point x="796.18408549684921" y="272.94162840973638"/>
    </contour>
    <contour>
      <point x="152.15628588113321" y="493.00974878965866" type="curve" smooth="yes"/>
      <point x="173.26301435100964" y="623.3811691867835" type="line"/>
      <point x="216.38024399414925" y="774.34574277209651"/>
      <point x="392.74122422977183" y="902.68642150465246"/>
      <point x="547.64964357379324" y="902.73503190437657" type="curve" smooth="yes"/>
      <point x="775.67372091814013" y="902.80658606259067"/>
      <point x="811.08282692042178" y="658.30516238611733"/>
      <point x="781.81000679433077" y="479.96973915198652" type="curve" smooth="yes"/>
      <point x="752.12027117284265" y="299.09438976778711"/>
      <point x="634.96017988928304" y="34.943716982593962"/>
      <point x="417.39300152299307" y="33.233660957847313" type="curve" smooth="yes"/>
      <point x="170.83197377929125" y="31.295716208428381"/>
      <point x="122.86723740060251" y="299.75153351109026"/>
    </contour>
  </outline>
</glyph>
<glyph name="seven" format="1">
  <advance width="952.54"/>
  <unicode hex="0037"/>
  <outline>
    <contour>
      <point x="973.2804583139058" y="1455.6335733443595" type="line"/>
      <point x="214.72205992181017" y="1455.8017381287236" type="line"/>
      <point x="208.05866539289099" y="1402.2109237707662" type="line"/>
      <point x="912.78029077770088" y="1401.7488448841359" type="line"/>
      <point x="178.19067893186616" y="0.0" type="line"/>
      <point x="225.44469425987626" y="0.0" type="line"/>
      <point x="968.84640395743293" y="1421.9038341969251" type="line"/>
    </contour>
  </outline>
</glyph>
<glyph name="eight" format="1">
  <advance width="952.54"/>
  <unicode hex="0038"/>
  <outline>
    <contour>
      <point x="820.47349224882873" y="378.8903819915908" type="curve" smooth="yes"/>
      <point x="845.81955846677602" y="535.87145647731143"/>
      <point x="779.36862977854582" y="683.67077938627494"/>
      <point x="628.5630881546939" y="744.20000405285566" type="curve"/>
      <point x="776.86281511928291" y="802.80466686570708"/>
      <point x="881.83037714165971" y="926.99714226083483"/>
      <point x="908.16586094753632" y="1085.8771041494326" type="curve" smooth="yes"/>
      <point x="941.41069937778911" y="1286.4406746433424"/>
      <point x="844.24089433656968" y="1475.9922314534081"/>
      <point x="623.3056173800411" y="1475.8468126503753" type="curve" smooth="yes"/>
      <point x="400.95910893991777" y="1475.7004649798664"/>
      <point x="250.73624627121836" y="1293.7467110677185"/>
      <point x="217.36979194775967" y="1086.1079442739556" type="curve" smooth="yes"/>
      <point x="194.84420139954216" y="945.931652319411"/>
      <point x="243.86710857478965" y="808.5853263555731"/>
      <point x="377.14884923982606" y="746.53465699106846" type="curve"/>
      <point x="211.25806192597111" y="688.37705261995109"/>
      <point x="90.914463302210535" y="554.76071859135402"/>
      <point x="61.762160922613461" y="379.11682811478352" type="curve" smooth="yes"/>
      <point x="24.943748207355327" y="157.28428925479955"/>
      <point x="145.02051677487106" y="-20.057163022201472"/>
      <point x="378.03132472830617" y="-19.862708552992117" type="curve" smooth="yes"/>
      <point x="611.78887924275489" y="-19.66763090150452"/>
      <point x="784.15535174057663" y="153.95367302521927"/>
    </contour>
    <contour>
      <point x="863.55799743527177" y="1090.945092490316" type="curve" smooth="yes"/>
      <point x="830.88190626852031" y="917.02962290577636"/>
      <point x="685.84052321767444" y="772.2493358838733"/>
      <point x="503.32719411430151" y="772.2775134357006" type="curve" smooth="yes"/>
      <point x="321.44379974523406" y="772.3055937342549"/>
      <point x="233.32075175183493" y="922.57861173205038"/>
      <point x="264.49479070464787" y="1091.0330752587545" type="curve" smooth="yes"/>
      <point x="297.10478955263068" y="1267.2470034526086"/>
      <point x="435.6419568373891" y="1422.3062158618652"/>
      <point x="623.9246039905413" y="1421.7362145446239" type="curve" smooth="yes"/>
      <point x="804.861678029681" y="1421.1884509981712"/>
      <point x="894.50264377494398" y="1255.6451073062753"/>
    </contour>
    <contour>
      <point x="772.31642949609704" y="373.95517644054928" type="curve" smooth="yes"/>
      <point x="736.33770603313849" y="180.30270958717014"/>
      <point x="577.51554682735843" y="34.222519759520509"/>
      <point x="377.39877796303438" y="34.207412637582259" type="curve" smooth="yes"/>
      <point x="179.06040748312981" y="34.192439769666805"/>
      <point x="70.655027539047836" y="183.16150098858807"/>
      <point x="106.40594600610289" y="374.03452401928553" type="curve" smooth="yes"/>
      <point x="142.2963394543961" y="565.6521995637529"/>
      <point x="304.98011069955078" y="717.92133977199717"/>
      <point x="503.90527255316999" y="717.76882749078209" type="curve" smooth="yes"/>
      <point x="698.08219174493058" y="717.61995560032187"/>
      <point x="806.53235991909787" y="558.11955733970467"/>
    </contour>
  </outline>
</glyph>
<glyph name="nine" format="1">
  <advance width="952.54"/>
  <unicode hex="0039"/>
  <outline>
    <contour>
      <point x="851.46781922045841" y="739.98998853974695" type="curve" smooth="yes"/>
      <point x="876.66086623520027" y="903.01138592870552" type="line" smooth="yes"/>
      <point x="910.85002535370336" y="1134.466085038737"/>
      <point x="895.84049296363764" y="1478.5613426487248"/>
      <point x="584.49286538462661" y="1475.8362166021013" type="curve" smooth="yes"/>
      <point x="328.86546755092979" y="1473.5987918769349"/>
      <point x="191.07080403490582" y="1173.0399928466816"/>
      <point x="158.90689561345732" y="958.03381809856478" type="curve" smooth="yes"/>
      <point x="130.06772474080401" y="765.25252637900417"/>
      <point x="180.56152362301228" y="468.84865889690064"/>
      <point x="429.40917449556412" y="468.04803894552032" type="curve" smooth="yes"/>
      <point x="597.5814816477066" y="467.5069765569321"/>
      <point x="729.27485954090707" y="585.76374488763975"/>
      <point x="807.18235754673901" y="724.93799508559187" type="curve"/>
      <point x="805.6361379313156" y="716.94645868431849" type="line" smooth="yes"/>
      <point x="739.91162969464233" y="386.86439608996801"/>
      <point x="584.03932077751733" y="39.65267315420207"/>
      <point x="198.99116758214933" y="33.729255055077459" type="curve" smooth="yes"/>
      <point x="174.00327920927839" y="33.628812365756595" type="line"/>
      <point x="165.39312725406677" y="-19.757939733012847" type="line"/>
      <point x="196.22320239672297" y="-19.80507293217326" type="line" smooth="yes"/>
      <point x="619.82323908011062" y="-15.975700545246513"/>
      <point x="793.40430633849837" y="374.19504164130637"/>
    </contour>
    <contour>
      <point x="204.4075982327065" y="958.03048436649931" type="curve" smooth="yes"/>
      <point x="235.16576900338285" y="1146.6085507733915"/>
      <point x="363.20852525405644" y="1419.6741291071603"/>
      <point x="587.98502951785576" y="1421.7777726442919" type="curve" smooth="yes"/>
      <point x="864.52768270784361" y="1424.3658864110298"/>
      <point x="861.49956490920204" y="1099.1949175034695"/>
      <point x="830.91447666628039" y="902.0101993277774" type="curve" smooth="yes"/>
      <point x="820.96492840170242" y="840.82866025454337" type="line"/>
      <point x="774.4105880970817" y="676.92084143511147"/>
      <point x="602.02346291893082" y="521.70408661512215"/>
      <point x="428.80207446604265" y="522.30299612779083" type="curve" smooth="yes"/>
      <point x="210.38052827361386" y="523.05818428876114"/>
      <point x="177.60780065366606" y="793.7211681450774"/>
    </contour>
  </outline>
</glyph>
<glyph name="less" format="1">
  <advance width="897.25"/>
  <unicode hex="003C"/>
  <outline>
    <contour>
      <point x="712.20276803256911" y="262.07319162840349" type="line"/>
      <point x="720.7028102590582" y="320.65856218450728" type="line"/>
      <point x="157.26060009883071" y="663.40590263861554" type="line"/>
      <point x="840.9240779750337" y="1010.7256246099823" type="line"/>
      <point x="848.98227595207607" y="1068.1683781267293" type="line"/>
      <point x="100.7700601603696" y="691.05253281385137" type="line"/>
      <point x="93.655471557700068" y="641.43869753757099" type="line"/>
    </contour>
  </outline>
</glyph>
<glyph name="equal" format="1">
  <advance width="969.03"/>
  <unicode hex="003D"/>
  <outline>
    <contour>
      <point x="870.13688933841865" y="896.74768093944044" type="line"/>
      <point x="188.74559680697996" y="896.7501556918096" type="line"/>
      <point x="181.37285303332385" y="843.25231906055774" type="line"/>
      <point x="862.76414556476209" y="843.24984430818904" type="line"/>
    </contour>
    <contour>
      <point x="799.62338648399782" y="489.74768093944118" type="line"/>
      <point x="118.23209395255974" y="489.75015569181011" type="line"/>
      <point x="110.8593501789036" y="436.25231906055814" type="line"/>
      <point x="792.25064271034182" y="436.24984430818949" type="line"/>
    </contour>
  </outline>
</glyph>
<glyph name="greater" format="1">
  <advance width="897.25"/>
  <unicode hex="003E"/>
  <outline>
    <contour>
      <point x="192.33123771749183" y="1071.919241472146" type="line"/>
      <point x="183.82540241731709" y="1013.3308424211268" type="line"/>
      <point x="742.47308124308631" y="670.80864615735732" type="line"/>
      <point x="63.79279124995314" y="324.27537626158983" type="line"/>
      <point x="55.554303320110236" y="265.83542794669273" type="line"/>
      <point x="802.97225700037723" y="643.94594113532878" type="line"/>
      <point x="810.0861002011535" y="693.56074613504347" type="line"/>
    </contour>
  </outline>
</glyph>
<glyph name="question" format="1">
  <advance width="766.3"/>
  <unicode hex="003F"/>
  <outline>
    <contour>
      <point x="351.69064675812757" y="400.44820431076346" type="line"/>
      <point x="376.26201523425584" y="519.04914777880742"/>
      <point x="424.00350017827918" y="616.07392420541964"/>
      <point x="514.09746339580056" y="698.08343964865628" type="curve" smooth="yes"/>
      <point x="638.91889315162473" y="811.70420407759138"/>
      <point x="734.40055037300147" y="940.09054548178267"/>
      <point x="761.78059168160019" y="1109.9568685893992" type="curve" smooth="yes"/>
      <point x="788.34358937131572" y="1274.7542367676219"/>
      <point x="741.46004415936807" y="1475.8063023279094"/>
      <point x="539.90883181063725" y="1475.7774518896447" type="curve" smooth="yes"/>
      <point x="339.32639630646213" y="1475.7487401240091"/>
      <point x="221.29220562716986" y="1293.0777002857374"/>
      <point x="183.8320087231682" y="1116.8606065580395" type="curve"/>
      <point x="229.14290479997032" y="1116.7111703854214" type="line"/>
      <point x="266.24299944734793" y="1268.706227752821"/>
      <point x="366.32892426538422" y="1423.4178129832046"/>
      <point x="540.64109309237074" y="1422.6261066288237" type="curve" smooth="yes"/>
      <point x="713.40231302536722" y="1421.8414445106712"/>
      <point x="740.63358198166247" y="1249.7822138029271"/>
      <point x="715.79456105422821" y="1112.0126291988499" type="curve" smooth="yes"/>
      <point x="687.49146151229547" y="955.02953883101623"/>
      <point x="602.35489038466085" y="848.50927898660825"/>
      <point x="491.12235982334857" y="739.90796171903617" type="curve" smooth="yes"/>
      <point x="389.84300847824795" y="641.02438051685908"/>
      <point x="332.85415172484107" y="539.96286089268619"/>
      <point x="306.52590755917799" y="400.54522571658543" type="curve"/>
    </contour>
    <contour>
      <point x="226.07615364377909" y="50.691734053116555" type="curve" smooth="yes"/>
      <point x="222.39565389258019" y="27.349925628883927"/>
      <point x="236.46268256443105" y="-4.7225445744365731"/>
      <point x="263.69893382216031" y="-5.6335371406345436" type="curve" smooth="yes"/>
      <point x="288.2616335985619" y="-6.4551053032393106"/>
      <point x="314.35095577677066" y="25.445404956674444"/>
      <point x="317.86122921556529" y="47.278808350088944" type="curve" smooth="yes"/>
      <point x="321.60860669983549" y="70.586965309384425"/>
      <point x="306.69827006938414" y="103.84416066998908"/>
      <point x="279.44725700313677" y="104.63562401799702" type="curve" smooth="yes"/>
      <point x="254.74928336877554" y="105.352938301108"/>
      <point x="229.48294690320446" y="72.297690031396584"/>
    </contour>
  </outline>
</glyph>
<glyph name="at" format="1">
  <advance width="1588.86"/>
  <unicode hex="0040"/>
  <outline>
    <contour>
      <point x="883.56976317512078" y="-365.65129794726994" type="curve"/>
      <point x="869.38055007718799" y="-318.14879081933589" type="line"/>
      <point x="782.27933016433349" y="-367.05298705327294"/>
      <point x="683.38003812626266" y="-397.34496635678732"/>
      <point x="582.913929542348" y="-397.77852573534165" type="curve" smooth="yes"/>
      <point x="115.94042601674801" y="-399.79374006825066"/>
      <point x="74.307016972649166" y="130.50305781142117"/>
      <point x="150.0675206367103" y="478.00723603257876" type="curve" smooth="yes"/>
      <point x="235.41205705624171" y="869.47220207402984"/>
      <point x="509.51681401089235" y="1353.4092583270881"/>
      <point x="967.1843343371736" y="1353.9480016764339" type="curve" smooth="yes"/>
      <point x="1449.1185450238902" y="1354.5153105618112"/>
      <point x="1479.0137582923655" y="895.62322736629346"/>
      <point x="1398.0635275308805" y="522.9841968507543" type="curve" smooth="yes"/>
      <point x="1362.370612233887" y="358.67863246349179"/>
      <point x="1276.1891809839851" y="36.253194865968666"/>
      <point x="1057.6417144840009" y="35.288184277612082" type="curve" smooth="yes"/>
      <point x="919.67234938253364" y="34.67897154994241"/>
      <point x="936.20727225925623" y="200.24583527116579"/>
      <point x="957.62690142535484" y="292.92711006177035" type="curve" smooth="yes"/>
      <point x="1098.8387656901946" y="877.70481744278845" type="line"/>
      <point x="1047.0981942556023" y="941.21637240367636"/>
      <point x="996.00596465088483" y="987.2755398356727"/>
      <point x="909.3372885961744" y="987.7659389176647" type="curve" smooth="yes"/>
      <point x="648.08598039576998" y="989.24418235627218"/>
      <point x="511.11400022792026" y="641.33012274072576"/>
      <point x="461.36735637754441" y="436.02412171640987" type="curve" smooth="yes"/>
      <point x="430.39527562359359" y="308.20134713645643"/>
      <point x="376.32397684575551" y="-18.995935107571366"/>
      <point x="592.32225190319673" y="-19.837868013173257" type="curve" smooth="yes"/>
      <point x="736.84616552881994" y="-20.401203245806105"/>
      <point x="833.91254765122267" y="96.402076128044328"/>
      <point x="902.23210115278675" y="209.64613874154327" type="curve"/>
      <point x="893.6605446884704" y="102.14246826091335"/>
      <point x="925.48582311053451" y="-19.751925198821535"/>
      <point x="1054.9966303493641" y="-19.8942316622222" type="curve" smooth="yes"/>
      <point x="1300.8868806050798" y="-20.164415847191933"/>
      <point x="1408.6241758283713" y="333.70242536680553"/>
      <point x="1447.0101265521519" y="522.97476094172771" type="curve" smooth="yes"/>
      <point x="1527.7152228816312" y="920.91311565379237"/>
      <point x="1479.8785905310965" y="1411.1155730837413"/>
      <point x="970.95880408806011" y="1410.9413949753834" type="curve" smooth="yes"/>
      <point x="472.40116022087432" y="1410.7707633166638"/>
      <point x="190.34777168569042" y="908.06629348147681"/>
      <point x="102.16183084573261" y="478.00523659539647" type="curve" smooth="yes"/>
      <point x="23.233941350715156" y="93.09340994020323"/>
      <point x="72.888981148393384" y="-455.0286646164293"/>
      <point x="580.34967358757706" y="-452.89196080037107" type="curve" smooth="yes"/>
      <point x="685.16443842624415" y="-452.45062985327144"/>
      <point x="796.0118281454686" y="-423.97732325716987"/>
    </contour>
    <contour>
      <point x="507.66671893687419" y="436.03550524480266" type="curve" smooth="yes"/>
      <point x="554.9782201441094" y="614.29124187101161"/>
      <point x="673.77420610106208" y="935.32543931743407"/>
      <point x="906.65735419047235" y="932.68004434663021" type="curve" smooth="yes"/>
      <point x="969.19480915766735" y="931.9696611771551"/>
      <point x="1016.4195018977101" y="906.13793883136486"/>
      <point x="1048.4419502345577" y="852.95747166926412" type="curve"/>
      <point x="921.98938071680345" y="340.46540244259654" type="line"/>
      <point x="874.15795729456556" y="206.11653360989456"/>
      <point x="752.13501949642136" y="29.633706493162691"/>
      <point x="590.97522673342678" y="34.332514116853901" type="curve" smooth="yes"/>
      <point x="414.54787481366122" y="39.47646579373022"/>
      <point x="481.67305492190064" y="338.09907100849699"/>
    </contour>
  </outline>
</glyph>
<glyph name="A" format="1">
  <advance width="1034.99"/>
  <unicode hex="0041"/>
  <outline>
    <contour>
      <point x="692.83544827856008" y="1612" type="move" name="top"/>
    </contour>
    <contour>
      <point x="435.65076189018168" y="0" type="move" name="bottom"/>
    </contour>
    <contour>
      <point x="884.7607618901817" y="0" type="move" name="right"/>
    </contour>
    <contour>
      <point x="395.87588224297463" y="1454" type="move" name="tonos"/>
    </contour>
    <contour>
      <point x="884.7607618901817" y="0" type="move" name="ogonek"/>
    </contour>
    <contour>
      <point x="1188.3720635163636" y="1600" type="move" name="top_dd"/>
    </contour>
    <contour>
      <point x="841.59846203902157" y="-407" type="move" name="bottom_dd"/>
    </contour>
    <contour>
      <point x="1190.44544827856" y="1612" type="move" name="top0315"/>
    </contour>
    <contour>
      <point x="-57.937373751639612" y="0.0" type="line"/>
      <point x="-7.8542547128411968" y="0.0" type="line"/>
      <point x="200.78400611497818" y="434.71879944801549" type="line"/>
      <point x="780.02985911418716" y="435.03098493030694" type="line"/>
      <point x="837.36050933423019" y="0.0" type="line"/>
      <point x="885.95671143959362" y="0.0" type="line"/>
      <point x="691.21304170478425" y="1456.1665549141376" type="line"/>
      <point x="636.60868426944648" y="1455.5220715832163" type="line"/>
    </contour>
    <contour>
      <point x="225.9627250136312" y="489.23857250347396" type="line"/>
      <point x="655.93829618149573" y="1387.731763238133" type="line"/>
      <point x="772.76648114259206" y="488.96633553940705" type="line"/>
    </contour>
  </outline>
</glyph>
<glyph name="B" format="1">
  <advance width="1044.69"/>
  <unicode hex="0042"/>
  <outline>
    <contour>
      <point x="650.15544827856013" y="1612" type="move" name="top"/>
    </contour>
    <contour>
      <point x="373.35858252534541" y="10" type="move" name="bottom"/>
    </contour>
    <contour>
      <point x="1198.0720635163639" y="1600" type="move" name="top_dd"/>
    </contour>
    <contour>
      <point x="851.29846203902162" y="-407" type="move" name="bottom_dd"/>
    </contour>
    <contour>
      <point x="1200.14544827856" y="1612" type="move" name="top0315"/>
    </contour>
    <contour>
      <point x="902.80753254630145" y="400.90081527589189" type="curve" smooth="yes"/>
      <point x="926.6953277894147" y="552.02431971784517"/>
      <point x="861.74516777077622" y="717.07033272624858"/>
      <point x="701.15256711331403" y="752.77330740550804" type="curve"/>
      <point x="856.78813288021297" y="795.18323532309637"/>
      <point x="942.37762110696463" y="928.64608281384699"/>
      <point x="967.74030094348473" y="1082.8789517230045" type="curve" smooth="yes"/>
      <point x="1006.7117122396518" y="1319.8678112752887"/>
      <point x="869.79025797997042" y="1452.8338750585219"/>
      <point x="638.29156343036846" y="1455.8908359732832" type="curve" smooth="yes"/>
      <point x="330.20612287293881" y="1455.9420575083479" type="line"/>
      <point x="77.508710666474045" y="0.0" type="line"/>
      <point x="470.71277191017475" y="0.0" type="line" smooth="yes"/>
      <point x="704.95557983196602" y="3.8312313651065506"/>
      <point x="867.16096824734359" y="175.38675408487416"/>
    </contour>
    <contour>
      <point x="366.42073557990608" y="1401.9599662611804" type="line"/>
      <point x="638.86940041099228" y="1401.9362244773849" type="line" smooth="yes"/>
      <point x="838.09196392887816" y="1398.802027701724"/>
      <point x="959.40309383185877" y="1293.6661614101679"/>
      <point x="921.05955401918095" y="1086.9714252678932" type="curve" smooth="yes"/>
      <point x="883.33809008755929" y="883.63005218817148"/>
      <point x="739.27472642186308" y="776.2057625772992"/>
      <point x="536.41418875781778" y="773.08244904463072" type="curve" smooth="yes"/>
      <point x="256.99645127284236" y="773.04186934651739" type="line"/>
    </contour>
    <contour>
      <point x="857.20912152062317" y="398.95157076841315" type="curve" smooth="yes"/>
      <point x="820.64134582483234" y="200.31849927775323"/>
      <point x="675.48397571084797" y="58.041373751051239"/>
      <point x="470.0460324887099" y="54.094507372693315" type="curve" smooth="yes"/>
      <point x="132.42691634404247" y="54.052012023959364" type="line"/>
      <point x="248.09355718237555" y="718.94559848911729" type="line"/>
      <point x="602.95700401743443" y="718.86883461975663" type="line" smooth="yes"/>
      <point x="787.12084990700373" y="714.56724397182722"/>
      <point x="890.27820090415571" y="578.58001915871591"/>
    </contour>
  </outline>
</glyph>
<glyph name="C" format="1">
  <advance width="1120.35"/>
  <unicode hex="0043"/>
  <outline>
    <contour>
      <point x="750.7838716124038" y="1633" type="move" name="top"/>
    </contour>
    <contour>
      <point x="466.90294125501805" y="-10" type="move" name="bottom"/>
    </contour>
    <contour>
      <point x="1273.7320635163637" y="1600" type="move" name="top_dd"/>
    </contour>
    <contour>
      <point x="926.9584620390217" y="-407" type="move" name="bottom_dd"/>
    </contour>
    <contour>
      <point x="1279.4338716124039" y="1633" type="move" name="top0315"/>
    </contour>
    <contour>
      <point x="917.56375830192508" y="445.13043304810327" type="line"/>
      <point x="851.93800533389208" y="223.34675362741098"/>
      <point x="715.42443572351283" y="32.849526170915759"/>
      <point x="463.7364738205797" y="34.168378035933706" type="curve" smooth="yes"/>
      <point x="162.94461745027695" y="35.744535662849437"/>
      <point x="147.9254729469302" y="400.47714200586029"/>
      <point x="184.84989041459653" y="619.01069808584634" type="curve" smooth="yes"/>
      <point x="223.24615209858274" y="838.9805783863776" type="line" smooth="yes"/>
      <point x="268.33884138005527" y="1085.6827596402022"/>
      <point x="417.45125164406653" y="1421.0027489262172"/>
      <point x="714.14627459180804" y="1421.8423114770594" type="curve" smooth="yes"/>
      <point x="957.81988443953446" y="1422.5318385052653"/>
      <point x="1031.7918395303138" y="1225.8787935968242"/>
      <point x="1016.1390669238638" y="1012.0603265905853" type="curve"/>
      <point x="1061.7327176463721" y="1011.9764361599791" type="line"/>
      <point x="1078.5244087223252" y="1253.0127266056857"/>
      <point x="986.06026414219377" y="1476.8555697416364"/>
      <point x="713.51438710226728" y="1475.8678713923562" type="curve" smooth="yes"/>
      <point x="385.92552317712608" y="1474.6806988559172"/>
      <point x="225.4036100380219" y="1110.3326858428024"/>
      <point x="176.98734525192401" y="837.03054885723247" type="curve" smooth="yes"/>
      <point x="139.59883852660016" y="618.9837269569548" type="line" smooth="yes"/>
      <point x="98.827947596748857" y="370.72528158774037"/>
      <point x="131.974375990917" y="-18.975103886252242"/>
      <point x="464.35624524603338" y="-19.908154543758535" type="curve" smooth="yes"/>
      <point x="741.88348476162719" y="-20.68721921983802"/>
      <point x="897.76867849717019" y="199.3353630063265"/>
      <point x="963.98384147927754" y="445.03436511289959" type="curve"/>
    </contour>
  </outline>
</glyph>
<glyph name="D" format="1">
  <advance width="1131.02"/>
  <unicode hex="0044"/>
  <outline>
    <contour>
      <point x="675.37544827856004" y="1612" type="move" name="top"/>
    </contour>
    <contour>
      <point x="336.18392476525821" y="738" type="move" name="cross"/>
    </contour>
    <contour>
      <point x="398.57858252534538" y="10" type="move" name="bottom"/>
    </contour>
    <contour>
      <point x="1284.4020635163638" y="1600" type="move" name="top_dd"/>
    </contour>
    <contour>
      <point x="937.62846203902154" y="-407" type="move" name="bottom_dd"/>
    </contour>
    <contour>
      <point x="1286.47544827856" y="1612" type="move" name="top0315"/>
    </contour>
    <contour>
      <point x="77.508669519242588" y="0.0" type="line"/>
      <point x="412.51660408733858" y="0.0" type="line" smooth="yes"/>
      <point x="732.62423762266212" y="4.2964682795411715"/>
      <point x="933.7974613497363" y="262.94433031975257"/>
      <point x="986.71697905894575" y="558.94059719022016" type="curve" smooth="yes"/>
      <point x="1044.7245305161564" y="897.01262019983972" type="line" smooth="yes"/>
      <point x="1090.4906674567005" y="1181.3120556104097"/>
      <point x="972.7534758337581" y="1451.4492897349508"/>
      <point x="654.78724454865483" y="1455.9220551894998" type="curve" smooth="yes"/>
      <point x="330.20614587123396" y="1455.9408620593738" type="line"/>
    </contour>
    <contour>
      <point x="655.37765540127464" y="1401.9337126841644" type="line" smooth="yes"/>
      <point x="941.47325914306589" y="1397.2729398933029"/>
      <point x="1042.8003665614876" y="1154.5027296238025"/>
      <point x="1000.1749019225592" y="899.98630575513835" type="curve" smooth="yes"/>
      <point x="940.6755013828581" y="559.02402878871817" type="line" smooth="yes"/>
      <point x="890.6349371047678" y="290.55891803490931"/>
      <point x="700.5607239056344" y="58.480709527181496"/>
      <point x="411.86446297508451" y="54.047821209326152" type="curve" smooth="yes"/>
      <point x="132.42971192411102" y="54.039668878735803" type="line"/>
      <point x="366.42289740943988" y="1401.9581454440663" type="line"/>
    </contour>
  </outline>
</glyph>
<glyph name="E" format="1">
  <advance width="988.43"/>
  <unicode hex="0045"/>
  <outline>
    <contour>
      <point x="698.65544827856002" y="1612" type="move" name="top"/>
    </contour>
    <contour>
      <point x="421.85858252534535" y="10" type="move" name="bottom"/>
    </contour>
    <contour>
      <point x="110.24422843352373" y="1457" type="move" name="tonos"/>
    </contour>
    <contour>
      <point x="752.84076189018174" y="0" type="move" name="ogonek"/>
    </contour>
    <contour>
      <point x="1141.8120635163637" y="1600" type="move" name="top_dd"/>
    </contour>
    <contour>
      <point x="795.03846203902162" y="-407" type="move" name="bottom_dd"/>
    </contour>
    <contour>
      <point x="1143.88544827856" y="1612" type="move" name="top0315"/>
    </contour>
    <contour>
      <point x="77.511446741450769" y="0.0" type="line"/>
      <point x="802.07209806050525" y="0.0" type="line"/>
      <point x="809.44489094446305" y="53.737659645326332" type="line"/>
      <point x="132.42905384591512" y="54.07293292828772" type="line"/>
      <point x="248.61390409465696" y="721.92195914071976" type="line"/>
      <point x="844.71153744128628" y="722.24946161893024" type="line"/>
      <point x="852.08368185658856" y="775.74682297764912" type="line"/>
      <point x="257.52269691625446" y="776.06923630133531" type="line"/>
      <point x="366.42154278377836" y="1401.9212859662136" type="line"/>
      <point x="1044.9733433610891" y="1402.2583117070767" type="line"/>
      <point x="1052.345543192685" y="1455.7553144213598" type="line"/>
      <point x="330.20881398651505" y="1455.9340773123199" type="line"/>
    </contour>
  </outline>
</glyph>
<glyph name="F" format="1">
  <advance width="993.28"/>
  <unicode hex="0046"/>
  <outline>
    <contour>
      <point x="243.61831729519633" y="337" type="move" name="cross"/>
    </contour>
    <contour>
      <point x="698.65544827856002" y="1612" type="move" name="top"/>
    </contour>
    <contour>
      <point x="350.07858252534538" y="10" type="move" name="bottom"/>
    </contour>
    <contour>
      <point x="1146.6620635163638" y="1600" type="move" name="top_dd"/>
    </contour>
    <contour>
      <point x="799.88846203902165" y="-407" type="move" name="bottom_dd"/>
    </contour>
    <contour>
      <point x="1148.7354482785602" y="1612" type="move" name="top0315"/>
    </contour>
    <contour>
      <point x="78.316442931856514" y="0.0" type="line"/>
      <point x="123.36153148042955" y="0.0" type="line"/>
      <point x="247.57482974514448" y="715.92073390906637" type="line"/>
      <point x="856.27176341047993" y="716.25597912832063" type="line"/>
      <point x="864.00980531801952" y="771.74067500663489" type="line"/>
      <point x="256.82798523237699" y="772.06735229082472" type="line"/>
      <point x="366.42346544479631" y="1401.924407214276" type="line"/>
      <point x="1058.5530599185497" y="1402.2561505743183" type="line"/>
      <point x="1065.925107904395" y="1455.754228283756" type="line"/>
      <point x="330.20864702814686" y="1455.9344466657781" type="line"/>
    </contour>
  </outline>
</glyph>
<glyph name="G" format="1">
  <advance width="1184.37"/>
  <unicode hex="0047"/>
  <outline>
    <contour>
      <point x="771.15387161240369" y="1633" type="move" name="top"/>
    </contour>
    <contour>
      <point x="509.37076189018171" y="0" type="move" name="bottom"/>
    </contour>
    <contour>
      <point x="1337.7520635163637" y="1600" type="move" name="top_dd"/>
    </contour>
    <contour>
      <point x="990.97846203902168" y="-407" type="move" name="bottom_dd"/>
    </contour>
    <contour>
      <point x="1343.4538716124039" y="1633" type="move" name="top0315"/>
    </contour>
    <contour>
      <point x="1030.3706222376984" y="659.93583544238277" type="line"/>
      <point x="621.05240308776047" y="659.75363850897452" type="line"/>
      <point x="613.50469569382449" y="605.26646273748838" type="line"/>
      <point x="974.29398920782023" y="604.91460285672611" type="line"/>
      <point x="899.21304520115496" y="181.03772474992616" type="line"/>
      <point x="804.9433433730502" y="77.224014730904003"/>
      <point x="646.1961450175105" y="33.859898717166956"/>
      <point x="510.29164567737087" y="34.230966356001801" type="curve" smooth="yes"/>
      <point x="202.24308767980182" y="35.072048524860328"/>
      <point x="165.02747727335802" y="386.50672125681911"/>
      <point x="204.40032446893883" y="620.01191847459586" type="curve" smooth="yes"/>
      <point x="246.29376797287375" y="859.98027246482263" type="line" smooth="yes"/>
      <point x="292.29485838389223" y="1109.9094633312925"/>
      <point x="454.04240895233875" y="1421.5640034945429"/>
      <point x="747.1175638886948" y="1421.8153879697686" type="curve" smooth="yes"/>
      <point x="965.76007919971903" y="1422.0029280360202"/>
      <point x="1060.4485427339205" y="1263.8029381380095"/>
      <point x="1053.2527274169938" y="1061.9416707156461" type="curve"/>
      <point x="1097.7184456145458" y="1061.8619077074022" type="line"/>
      <point x="1108.5026609963363" y="1289.7775121645152"/>
      <point x="991.60473367628731" y="1476.0810239315679"/>
      <point x="746.48699810875587" y="1475.8309730380602" type="curve" smooth="yes"/>
      <point x="423.62300799603008" y="1475.5016111947718"/>
      <point x="248.93624690491035" y="1133.2736270742232"/>
      <point x="199.9893590059782" y="858.03977101096461" type="curve" smooth="yes"/>
      <point x="159.18753990219182" y="619.98394167625258" type="line" smooth="yes"/>
      <point x="116.43306815916401" y="358.2577877076792"/>
      <point x="173.47116418445955" y="-19.178851754914191"/>
      <point x="510.92192682853874" y="-19.938248350610362" type="curve" smooth="yes"/>
      <point x="663.55124795229335" y="-20.281724198632219"/>
      <point x="845.93127425950502" y="30.321317857784862"/>
      <point x="944.2604152453423" y="155.72764969181426" type="curve"/>
    </contour>
  </outline>
</glyph>
<glyph name="H" format="1">
  <advance width="1210.56"/>
  <unicode hex="0048"/>
  <outline>
    <contour>
      <point x="777.22544827856018" y="1612" type="move" name="top"/>
    </contour>
    <contour>
      <point x="924.53076189018179" y="0" type="move" name="right"/>
    </contour>
    <contour>
      <point x="119.94422843352375" y="1457" type="move" name="tonos"/>
    </contour>
    <contour>
      <point x="500.4285825253454" y="10" type="move" name="bottom"/>
    </contour>
    <contour>
      <point x="1363.9420635163638" y="1600" type="move" name="top_dd"/>
    </contour>
    <contour>
      <point x="1017.1684620390215" y="-407" type="move" name="bottom_dd"/>
    </contour>
    <contour>
      <point x="1366.0154482785599" y="1612" type="move" name="top0315"/>
    </contour>
    <contour>
      <point x="880.50610582126865" y="0.0" type="line"/>
      <point x="925.56214219850176" y="0.0" type="line"/>
      <point x="1177.1552380236194" y="1455.6794253912858" type="line"/>
      <point x="1132.1068332155739" y="1455.6784697766132" type="line"/>
      <point x="1014.1416713204239" y="776.07355445084943" type="line"/>
      <point x="257.52219460416387" y="776.06762838565078" type="line"/>
      <point x="374.96055189330707" y="1455.6803770381507" type="line"/>
      <point x="329.90963046502691" y="1455.6774121758699" type="line"/>
      <point x="78.313628816899424" y="0.0" type="line"/>
      <point x="123.35641903991767" y="0.0" type="line"/>
      <point x="248.61564366689441" y="721.92398642563148" type="line"/>
      <point x="1005.2346202463602" y="721.92986795621641" type="line"/>
    </contour>
  </outline>
</glyph>
<glyph name="I" format="1">
  <advance width="474.33"/>
  <unicode hex="0049"/>
  <outline>
    <contour>
      <point x="412.50544827856015" y="1612" type="move" name="top"/>
    </contour>
    <contour>
      <point x="133.98076189018172" y="0" type="move" name="bottom"/>
    </contour>
    <contour>
      <point x="140.24753605242557" y="1451" type="move" name="tonos"/>
    </contour>
    <contour>
      <point x="155.32076189018176" y="0" type="move" name="right"/>
    </contour>
    <contour>
      <point x="150.47076189018173" y="0" type="move" name="ogonek"/>
    </contour>
    <contour>
      <point x="627.71206351636374" y="1600" type="move" name="top_dd"/>
    </contour>
    <contour>
      <point x="280.93846203902172" y="-407" type="move" name="bottom_dd"/>
    </contour>
    <contour>
      <point x="629.78544827856012" y="1612" type="move" name="top0315"/>
    </contour>
    <contour>
      <point x="407.94087524023212" y="1455.6795455643435" type="line"/>
      <point x="362.8913948406568" y="1455.6775312641382" type="line"/>
      <point x="111.30534179573816" y="0.0" type="line"/>
      <point x="156.3548221953136" y="0.0" type="line"/>
    </contour>
  </outline>
</glyph>
<glyph name="J" format="1">
  <advance width="955.4499999999999"/>
  <unicode hex="004A"/>
  <outline>
    <contour>
      <point x="924.33198637306918" y="1582" type="move" name="top"/>
    </contour>
    <contour>
      <point x="331.1029412550181" y="-10" type="move" name="bottom"/>
    </contour>
    <contour>
      <point x="1108.8320635163636" y="1600" type="move" name="top_dd"/>
    </contour>
    <contour>
      <point x="762.05846203902161" y="-407" type="move" name="bottom_dd"/>
    </contour>
    <contour>
      <point x="1105.7219863730693" y="1582" type="move" name="top0315"/>
    </contour>
    <contour>
      <point x="705.10742476741405" y="442.00627281406094" type="line" smooth="yes"/>
      <point x="669.58955856153204" y="254.0629704794292"/>
      <point x="549.9755051862312" y="34.830439783068435"/>
      <point x="331.81779163895021" y="34.219305883689366" type="curve" smooth="yes"/>
      <point x="113.1588935251084" y="33.606767996005274"/>
      <point x="73.60304774066401" y="218.98605288951495"/>
      <point x="103.20800165955173" y="400.63107791539613" type="curve"/>
      <point x="58.252373407974758" y="400.73663203216722" type="line"/>
      <point x="26.622198568674733" y="190.84145437750379"/>
      <point x="84.524321094499783" y="-20.729551381780567"/>
      <point x="332.43565769161472" y="-19.823064189233911" type="curve" smooth="yes"/>
      <point x="581.18638603100953" y="-18.913507762846031"/>
      <point x="712.5994619578704" y="227.02185545153901"/>
      <point x="751.15103837825188" y="441.92052188361038" type="curve" smooth="yes"/>
      <point x="925.92760512462564" y="1455.6775250075477" type="line"/>
      <point x="880.87809652706358" y="1455.675683153079" type="line"/>
    </contour>
  </outline>
</glyph>
<glyph name="K" format="1">
  <advance width="1098.04"/>
  <unicode hex="004B"/>
  <outline>
    <contour>
      <point x="442.04678887698185" y="110" type="move" name="bottom"/>
    </contour>
    <contour>
      <point x="871.81729998469075" y="-30" type="move" name="right"/>
    </contour>
    <contour>
      <point x="350.20991795179282" y="1229" type="move" name="cross"/>
    </contour>
    <contour>
      <point x="669.87062668912017" y="1524" type="move" name="top"/>
    </contour>
    <contour>
      <point x="1251.4220635163638" y="1600" type="move" name="top_dd"/>
    </contour>
    <contour>
      <point x="904.64846203902152" y="-407" type="move" name="bottom_dd"/>
    </contour>
    <contour>
      <point x="1238.29062668912" y="1524" type="move" name="top0315"/>
    </contour>
    <contour>
      <point x="860.25064211239931" y="0.0" type="line"/>
      <point x="916.24178129773748" y="0.0" type="line"/>
      <point x="484.81204167399994" y="800.12575749577547" type="line"/>
      <point x="1126.8587918107623" y="1454.3260316911565" type="line"/>
      <point x="1058.8684928833873" y="1454.7552988144698" type="line"/>
      <point x="461.11063589499008" y="848.82377481073445" type="line"/>
      <point x="229.94624119707265" y="620.13955461610351" type="line"/>
      <point x="374.9677794522878" y="1455.6753549632317" type="line"/>
      <point x="329.91502208040629" y="1455.6751913932392" type="line"/>
      <point x="78.323932108897495" y="0.0" type="line"/>
      <point x="123.37442159973928" y="0.0" type="line"/>
      <point x="217.96812793880923" y="547.40987666464571" type="line"/>
      <point x="448.23549229565458" y="764.47834921945116" type="line"/>
    </contour>
  </outline>
</glyph>
<glyph name="L" format="1">
  <advance width="900.16"/>
  <unicode hex="004C"/>
  <outline>
    <contour>
      <point x="372.52017827702923" y="1549" type="move" name="top"/>
    </contour>
    <contour>
      <point x="426.70858252534538" y="10" type="move" name="bottom"/>
    </contour>
    <contour>
      <point x="629.81866430649097" y="1455" type="move" name="caron"/>
    </contour>
    <contour>
      <point x="536.03121984503639" y="755" type="move" name="dot"/>
    </contour>
    <contour>
      <point x="1053.5420635163637" y="1600" type="move" name="top_dd"/>
    </contour>
    <contour>
      <point x="706.76846203902164" y="-407" type="move" name="bottom_dd"/>
    </contour>
    <contour>
      <point x="1044.7301782770292" y="1549" type="move" name="top0315"/>
    </contour>
    <contour>
      <point x="741.54602560066814" y="53.742367874655656" type="line"/>
      <point x="133.40823968424274" y="54.065400710112108" type="line"/>
      <point x="375.93078501821594" y="1455.679400994336" type="line"/>
      <point x="329.91187093939408" y="1455.6772413754427" type="line"/>
      <point x="77.510548155309934" y="0.0" type="line"/>
      <point x="734.17381146172931" y="0.0" type="line"/>
    </contour>
  </outline>
</glyph>
<glyph name="M" format="1">
  <advance width="1469.55"/>
  <unicode hex="004D"/>
  <outline>
    <contour>
      <point x="919.8154482785601" y="1612" type="move" name="top"/>
    </contour>
    <contour>
      <point x="1183.5207618901818" y="0" type="move" name="right"/>
    </contour>
    <contour>
      <point x="633.31858252534539" y="10" type="move" name="bottom"/>
    </contour>
    <contour>
      <point x="1622.9320635163635" y="1600" type="move" name="top_dd"/>
    </contour>
    <contour>
      <point x="1276.1584620390215" y="-407" type="move" name="bottom_dd"/>
    </contour>
    <contour>
      <point x="1625.0054482785599" y="1612" type="move" name="top0315"/>
    </contour>
    <contour>
      <point x="640.114592825621" y="78.773468696605647" type="line"/>
      <point x="392.58142434083067" y="1456.3281645084783" type="line"/>
      <point x="328.96354297511431" y="1455.9302515690513" type="line"/>
      <point x="78.322403729459538" y="0.0" type="line"/>
      <point x="123.3694660407035" y="0.0" type="line"/>
      <point x="361.01860303280415" y="1368.8631445718968" type="line"/>
      <point x="613.75317149995863" y="0.0" type="line"/>
      <point x="649.84100926203735" y="0.0" type="line"/>
      <point x="1376.6277945463573" y="1367.0683128102339" type="line"/>
      <point x="1139.5055084393302" y="0.0" type="line"/>
      <point x="1184.5543874908462" y="0.0" type="line"/>
      <point x="1435.3744807818132" y="1455.6291023533008" type="line"/>
      <point x="1369.2578055736969" y="1455.2290629669569" type="line"/>
    </contour>
  </outline>
</glyph>
<glyph name="N" format="1">
  <advance width="1219.29"/>
  <unicode hex="004E"/>
  <outline>
    <contour>
      <point x="785.9554482785602" y="1612" type="move" name="top"/>
    </contour>
    <contour>
      <point x="509.15858252534542" y="10" type="move" name="bottom"/>
    </contour>
    <contour>
      <point x="933.26076189018181" y="0" type="move" name="right"/>
    </contour>
    <contour>
      <point x="1372.6720635163638" y="1600" type="move" name="top_dd"/>
    </contour>
    <contour>
      <point x="1025.8984620390215" y="-407" type="move" name="bottom_dd"/>
    </contour>
    <contour>
      <point x="1374.7454482785599" y="1612" type="move" name="top0315"/>
    </contour>
    <contour>
      <point x="1185.8816101788505" y="1455.6790186090309" type="line"/>
      <point x="1140.833137064627" y="1455.6768120898582" type="line"/>
      <point x="904.50161201551941" y="93.702911723841382" type="line"/>
      <point x="373.72381097512795" y="1456.3952077457366" type="line"/>
      <point x="328.86824980756228" y="1456.0999899182661" type="line"/>
      <point x="78.322763103566146" y="0.0" type="line"/>
      <point x="124.34071119243667" y="0.0" type="line"/>
      <point x="361.19126261421553" y="1365.2905360774664" type="line"/>
      <point x="891.45039706711873" y="0.0" type="line"/>
      <point x="935.33625798555045" y="0.0" type="line"/>
    </contour>
  </outline>
</glyph>
<glyph name="O" format="1">
  <advance width="1150.42"/>
  <unicode hex="004F"/>
  <outline>
    <contour>
      <point x="748.84387161240375" y="1633" type="move" name="top"/>
    </contour>
    <contour>
      <point x="472.16519776314897" y="-2" type="move" name="bottom"/>
    </contour>
    <contour>
      <point x="272.68588224297469" y="1454" type="move" name="tonos"/>
    </contour>
    <contour>
      <point x="1303.8020635163639" y="1600" type="move" name="top_dd"/>
    </contour>
    <contour>
      <point x="957.02846203902163" y="-407" type="move" name="bottom_dd"/>
    </contour>
    <contour>
      <point x="1309.5038716124038" y="1633" type="move" name="top0315"/>
    </contour>
    <contour>
      <point x="1064.4565366865329" y="837.01582468284823" type="line" smooth="yes"/>
      <point x="1106.8836084259269" y="1095.9468319044963"/>
      <point x="1059.4938630819261" y="1476.0679624024631"/>
      <point x="721.27811598104768" y="1475.8900818726672" type="curve" smooth="yes"/>
      <point x="387.5587053323805" y="1475.7145661372876"/>
      <point x="218.21243063220047" y="1118.8761425054743"/>
      <point x="168.25308932173192" y="837.03312249422959" type="curve" smooth="yes"/>
      <point x="130.8795403772699" y="618.98399687091762" type="line" smooth="yes"/>
      <point x="88.452468637878582" y="360.05298964928943"/>
      <point x="135.84221398168683" y="-20.068140848690192"/>
      <point x="474.05796108275524" y="-19.890260318901355" type="curve" smooth="yes"/>
      <point x="807.77737173134153" y="-19.714744583528898"/>
      <point x="977.12364643160186" y="337.1236790483365"/>
      <point x="1027.0829877420697" y="618.9666990595349" type="curve" smooth="yes"/>
    </contour>
    <contour>
      <point x="981.165281373261" y="619.01831514149274" type="line" smooth="yes"/>
      <point x="934.05837484583492" y="360.96428065900335"/>
      <point x="779.50594954139603" y="33.984233375822726"/>
      <point x="473.43493929730471" y="34.169542828228209" type="curve" smooth="yes"/>
      <point x="163.90723709693918" y="34.356945120765921"/>
      <point x="137.99965733876314" y="387.81148834680312"/>
      <point x="177.08671441533437" y="619.01111173766094" type="curve" smooth="yes"/>
      <point x="215.48854258779812" y="838.98113711668771" type="line" smooth="yes"/>
      <point x="262.43352137933624" y="1096.0654805364773"/>
      <point x="417.11641661764571" y="1421.9547255115967"/>
      <point x="721.90151664105758" y="1421.8309050407752" type="curve" smooth="yes"/>
      <point x="1031.490952774659" y="1421.7051327843869"/>
      <point x="1058.8226442405225" y="1071.1615632660241"/>
      <point x="1019.5671340104971" y="838.98844937891693" type="curve" smooth="yes"/>
    </contour>
  </outline>
</glyph>
<glyph name="P" format="1">
  <advance width="1040.81"/>
  <unicode hex="0050"/>
  <outline>
    <contour>
      <point x="160.16588224297465" y="1454" type="move" name="tonos"/>
    </contour>
    <contour>
      <point x="650.15544827856013" y="1612" type="move" name="top"/>
    </contour>
    <contour>
      <point x="349.10858252534541" y="10" type="move" name="bottom"/>
    </contour>
    <contour>
      <point x="1194.1920635163638" y="1600" type="move" name="top_dd"/>
    </contour>
    <contour>
      <point x="847.41846203902162" y="-407" type="move" name="bottom_dd"/>
    </contour>
    <contour>
      <point x="1196.2654482785601" y="1612" type="move" name="top0315"/>
    </contour>
    <contour>
      <point x="560.77885194768089" y="615.00803925851483" type="line" smooth="yes"/>
      <point x="811.51749243252095" y="619.09598607629687"/>
      <point x="972.18245222507073" y="790.23246307292629"/>
      <point x="1012.0463082862107" y="1030.9212346677095" type="curve" smooth="yes"/>
      <point x="1050.6458339120134" y="1263.976270607204"/>
      <point x="947.04908351275503" y="1451.8291291674989"/>
      <point x="696.4883014568361" y="1455.8824932991226" type="curve" smooth="yes"/>
      <point x="330.20817393625094" y="1455.9395866632892" type="line"/>
      <point x="78.315119366587979" y="0.0" type="line"/>
      <point x="123.35872209175885" y="0.0" type="line"/>
      <point x="230.07695733867894" y="614.89552422648853" type="line"/>
    </contour>
    <contour>
      <point x="366.41947588505479" y="1401.9500048229829" type="line"/>
      <point x="697.05289926378055" y="1401.8917895660384" type="line" smooth="yes"/>
      <point x="917.60418248786607" y="1397.3894772784495"/>
      <point x="1003.6921466130473" y="1232.515013820228"/>
      <point x="966.14951624739342" y="1028.9739118343946" type="curve" smooth="yes"/>
      <point x="927.47061024676441" y="819.27237855618989"/>
      <point x="777.07278461386363" y="673.26723964511984"/>
      <point x="560.10762829682926" y="669.08990129933022" type="curve" smooth="yes"/>
      <point x="238.97983127603243" y="669.04847656512425" type="line"/>
    </contour>
  </outline>
</glyph>
<glyph name="Q" format="1">
  <advance width="1150.42"/>
  <unicode hex="0051"/>
  <outline>
    <contour>
      <point x="762.54206351636378" y="1600" type="move" name="top"/>
    </contour>
    <contour>
      <point x="482.42294125501803" y="-10" type="move" name="bottom"/>
    </contour>
    <contour>
      <point x="1303.8020635163639" y="1600" type="move" name="top_dd"/>
    </contour>
    <contour>
      <point x="957.02846203902163" y="-407" type="move" name="bottom_dd"/>
    </contour>
    <contour>
      <point x="1303.8020635163639" y="1600" type="move" name="top0315"/>
    </contour>
    <contour>
      <point x="847.01531725756399" y="-230.0421175219835" type="line"/>
      <point x="677.95850420118859" y="23.780806969754632" type="line"/>
      <point x="876.70195399188117" y="123.64453153819565"/>
      <point x="968.27652853815982" y="328.82624098360907"/>
      <point x="1005.5090845269374" y="538.95315833002599" type="curve" smooth="yes"/>
      <point x="1070.5372481473639" y="917.01204082743175" type="line" smooth="yes"/>
      <point x="1113.6046376994329" y="1181.9325544148126"/>
      <point x="1039.2249490463182" y="1476.0081816944369"/>
      <point x="721.27588032536346" y="1475.8856933023619" type="curve" smooth="yes"/>
      <point x="405.59510715134223" y="1475.7640787605403"/>
      <point x="239.50884586106957" y="1196.4550823367165"/>
      <point x="189.81889544293659" y="917.0486707989063" type="curve" smooth="yes"/>
      <point x="124.7986773227649" y="538.987462244928" type="line" smooth="yes"/>
      <point x="81.698597840064892" y="273.87577195365697"/>
      <point x="155.77681510238511" y="-20.294738356551203"/>
      <point x="473.76264584540593" y="-20.831680078772795" type="curve" smooth="yes"/>
      <point x="527.37623458130747" y="-20.922210441723461"/>
      <point x="579.24287279884834" y="-11.862501975437747"/>
      <point x="630.4575801950408" y="3.4526090525230697" type="curve"/>
      <point x="811.87105792248985" y="-262.89020264164975" type="line"/>
    </contour>
    <contour>
      <point x="958.61199370453051" y="539.01119399941877" type="line" smooth="yes"/>
      <point x="911.70812396024826" y="284.1601934269035"/>
      <point x="760.90565897367765" y="33.209252436009535"/>
      <point x="473.25483818606313" y="33.151042194986651" type="curve" smooth="yes"/>
      <point x="182.95586474128697" y="33.09229606255203"/>
      <point x="130.90872830801879" y="301.88621719115707"/>
      <point x="170.97090627022419" y="539.00621877917524" type="curve" smooth="yes"/>
      <point x="237.07222884440296" y="918.9879886875716" type="line" smooth="yes"/>
      <point x="283.86090036091628" y="1172.9924906212887"/>
      <point x="435.69342570975988" y="1421.9272339459903"/>
      <point x="721.90197765665255" y="1421.840062443584" type="curve" smooth="yes"/>
      <point x="1011.9019951191312" y="1421.7517361617586"/>
      <point x="1064.8853018807731" y="1156.9834517241645"/>
      <point x="1024.7131224911129" y="918.99499216530228" type="curve" smooth="yes"/>
    </contour>
  </outline>
</glyph>
<glyph name="R" format="1">
  <advance width="1131.02"/>
  <unicode hex="0052"/>
  <outline>
    <contour>
      <point x="687.98544827856017" y="1612" type="move" name="top"/>
    </contour>
    <contour>
      <point x="411.1885825253454" y="10" type="move" name="bottom"/>
    </contour>
    <contour>
      <point x="1284.4020635163638" y="1600" type="move" name="top_dd"/>
    </contour>
    <contour>
      <point x="937.62846203902154" y="-407" type="move" name="bottom_dd"/>
    </contour>
    <contour>
      <point x="1286.47544827856" y="1612" type="move" name="top0315"/>
    </contour>
    <contour>
      <point x="846.08878002599795" y="0.0" type="line"/>
      <point x="892.92761906908311" y="0.0" type="line"/>
      <point x="894.90911387482049" y="13.753349310141987" type="line"/>
      <point x="686.74663845338819" y="636.68110413799832" type="line"/>
      <point x="870.89322956506055" y="683.99620074749441"/>
      <point x="992.35597219363876" y="853.36307909015272"/>
      <point x="1022.657706912491" y="1035.893531512834" type="curve" smooth="yes"/>
      <point x="1060.932792390545" y="1266.4535550114038"/>
      <point x="943.36588180353715" y="1452.0229346682161"/>
      <point x="700.36999272271487" y="1455.8931931441564" type="curve" smooth="yes"/>
      <point x="326.32687142071467" y="1455.9400938636634" type="line"/>
      <point x="74.432475508750613" y="0.0" type="line"/>
      <point x="119.47288604118715" y="0.0" type="line"/>
      <point x="227.58766765815744" y="622.9209298692881" type="line"/>
      <point x="639.07073368817532" y="623.01251675995093" type="line"/>
    </contour>
    <contour>
      <point x="362.53768234681286" y="1401.9504274953267" type="line"/>
      <point x="700.94457996251776" y="1401.9033327389682" type="line" smooth="yes"/>
      <point x="914.67183244473836" y="1397.8313052498738"/>
      <point x="1014.5794405538155" y="1238.6812630810996"/>
      <point x="977.09758202804846" y="1035.973205124498" type="curve" smooth="yes"/>
      <point x="942.77049794040477" y="850.3266863976944"/>
      <point x="803.67477977853991" y="682.20268122258801"/>
      <point x="605.12811018943523" y="677.12627246066518" type="curve" smooth="yes"/>
      <point x="236.48870751114777" y="677.05278893480272" type="line"/>
    </contour>
  </outline>
</glyph>
<glyph name="S" format="1">
  <advance width="1025.29"/>
  <unicode hex="0053"/>
  <outline>
    <contour>
      <point x="712.95387161240387" y="1633" type="move" name="top"/>
    </contour>
    <contour>
      <point x="429.07294125501812" y="-10" type="move" name="bottom"/>
    </contour>
    <contour>
      <point x="1178.6720635163638" y="1600" type="move" name="top_dd"/>
    </contour>
    <contour>
      <point x="831.89846203902164" y="-407" type="move" name="bottom_dd"/>
    </contour>
    <contour>
      <point x="1184.3738716124037" y="1633" type="move" name="top0315"/>
    </contour>
    <contour>
      <point x="848.33441300024526" y="348.9517361070811" type="curve" smooth="yes"/>
      <point x="809.88041745949727" y="152.77657855696529"/>
      <point x="624.75560633992382" y="35.146383616671265"/>
      <point x="432.65643639730649" y="34.150220146108879" type="curve" smooth="yes"/>
      <point x="204.21214312837091" y="32.965582752407848"/>
      <point x="75.328112953976259" y="186.60917350756918"/>
      <point x="109.66191200424079" y="410.66227899611027" type="curve"/>
      <point x="64.774573803850174" y="410.78439329013548" type="line"/>
      <point x="28.949517207594241" y="156.94113117011193"/>
      <point x="173.5470701227303" y="-20.744694221475292"/>
      <point x="433.31432986547304" y="-19.91412042800917" type="curve" smooth="yes"/>
      <point x="657.12724985053046" y="-19.198506204096518"/>
      <point x="858.77750269966521" y="123.71419895453496"/>
      <point x="896.21093908768171" y="350.87079426537144" type="curve" smooth="yes"/>
      <point x="935.34973238215366" y="588.37597378431565"/>
      <point x="763.8919349362161" y="699.63415368540791"/>
      <point x="564.60640170021918" y="769.98576374502102" type="curve" smooth="yes"/>
      <point x="397.47625565097479" y="828.9859062698614"/>
      <point x="230.75946141506125" y="919.20702179657667"/>
      <point x="271.0278855784149" y="1122.0475698165094" type="curve" smooth="yes"/>
      <point x="308.46997839872739" y="1310.6512905848283"/>
      <point x="493.96270427916875" y="1422.0855156170758"/>
      <point x="677.29064135293606" y="1421.7405723523666" type="curve" smooth="yes"/>
      <point x="892.91576317356635" y="1421.3348598643447"/>
      <point x="987.97114424998415" y="1241.8968911138365"/>
      <point x="957.90814045749175" y="1046.2979438157442" type="curve"/>
      <point x="1002.807712001086" y="1046.1992478138923" type="line"/>
      <point x="1034.8052860932823" y="1270.9871776206066"/>
      <point x="922.97472481013028" y="1475.4714631884626"/>
      <point x="676.6505962719832" y="1475.8686174488194" type="curve" smooth="yes"/>
      <point x="460.6900404924246" y="1476.2168157974986"/>
      <point x="261.4555688809013" y="1340.2747524742485"/>
      <point x="225.08210176456015" y="1120.1387568758407" type="curve" smooth="yes"/>
      <point x="186.56467778345808" y="887.02731196338732"/>
      <point x="359.70122375348416" y="788.59396620521704"/>
      <point x="551.86667000549664" y="718.03087729386141" type="curve" smooth="yes"/>
      <point x="728.09182692282741" y="653.32105740424652"/>
      <point x="889.98563548025641" y="561.43772143239642"/>
    </contour>
  </outline>
</glyph>
<glyph name="T" format="1">
  <advance width="1035.96"/>
  <unicode hex="0054"/>
  <outline>
    <contour>
      <point x="689.51319177042922" y="1604" type="move" name="top"/>
    </contour>
    <contour>
      <point x="414.31076189018177" y="0" type="move" name="bottom"/>
    </contour>
    <contour>
      <point x="436.62076189018171" y="0" type="move" name="right"/>
    </contour>
    <contour>
      <point x="555.27672127645087" y="872" type="move" name="cross"/>
    </contour>
    <contour>
      <point x="1189.3420635163639" y="1600" type="move" name="top_dd"/>
    </contour>
    <contour>
      <point x="842.5684620390216" y="-407" type="move" name="bottom_dd"/>
    </contour>
    <contour>
      <point x="1190.0331917704293" y="1604" type="move" name="top0315"/>
    </contour>
    <contour>
      <point x="203.53312938759177" y="1402.2576923732347" type="line"/>
      <point x="634.13590689222906" y="1401.9257562276255" type="line"/>
      <point x="391.63692530656618" y="0.0" type="line"/>
      <point x="437.65620124015425" y="0.0" type="line"/>
      <point x="680.67845913256531" y="1401.9194190575045" type="line"/>
      <point x="1112.8754922052685" y="1402.2554253689418" type="line"/>
      <point x="1120.2441284973099" y="1455.7504522165434" type="line"/>
      <point x="210.90145225150223" y="1455.7528034594168" type="line"/>
    </contour>
  </outline>
</glyph>
<glyph name="U" format="1">
  <advance width="1151.3899999999999"/>
  <unicode hex="0055"/>
  <outline>
    <contour>
      <point x="761.7054482785602" y="1612" type="move" name="top"/>
    </contour>
    <contour>
      <point x="472.5107618901817" y="0" type="move" name="bottom"/>
    </contour>
    <contour>
      <point x="566.60076189018173" y="0" type="move" name="right"/>
    </contour>
    <contour>
      <point x="683.85256998622174" y="33" type="move" name="ogonek"/>
    </contour>
    <contour>
      <point x="1304.7720635163637" y="1600" type="move" name="top_dd"/>
    </contour>
    <contour>
      <point x="957.99846203902166" y="-407" type="move" name="bottom_dd"/>
    </contour>
    <contour>
      <point x="1306.8454482785601" y="1612" type="move" name="top0315"/>
    </contour>
    <contour>
      <point x="1084.5772887807357" y="1455.6751386559049" type="line"/>
      <point x="913.47388157542946" y="469.0105022855866" type="line" smooth="yes"/>
      <point x="871.63755613059527" y="247.70568198089413"/>
      <point x="718.6030505893774" y="34.073998139583075"/>
      <point x="473.43764968131029" y="34.187925173744688" type="curve" smooth="yes"/>
      <point x="227.21909885223923" y="34.302341600971481"/>
      <point x="157.86265011742717" y="260.49106914259232"/>
      <point x="192.67011946006556" y="469.00043368376618" type="curve" smooth="yes"/>
      <point x="363.32735292510461" y="1455.6769917067045" type="line"/>
      <point x="317.3077182254313" y="1455.6751449120609" type="line"/>
      <point x="146.66796857630828" y="468.99083157177967" type="line" smooth="yes"/>
      <point x="108.02309034102194" y="227.04378360543421"/>
      <point x="193.84473054280505" y="-20.01728025320612"/>
      <point x="474.05954168049448" y="-19.879838532941488" type="curve" smooth="yes"/>
      <point x="753.49413089875645" y="-19.742779501380422"/>
      <point x="914.34067707551321" y="216.86583807561314"/>
      <point x="959.52169711223814" y="468.92340955372094" type="curve" smooth="yes"/>
      <point x="1129.6269029829532" y="1455.6770050843354" type="line"/>
    </contour>
  </outline>
</glyph>
<glyph name="V" format="1">
  <advance width="1034.99"/>
  <unicode hex="0056"/>
  <outline>
    <contour>
      <point x="674.67993317227831" y="1612" type="move" name="top"/>
    </contour>
    <contour>
      <point x="427.99780575924478" y="10" type="move" name="bottom"/>
    </contour>
    <contour>
      <point x="1171.3903292216189" y="1600" type="move" name="top_dd"/>
    </contour>
    <contour>
      <point x="858.6990684738297" y="-407" type="move" name="bottom_dd"/>
    </contour>
    <contour>
      <point x="1173.2599331722784" y="1612" type="move" name="top0315"/>
    </contour>
    <contour>
      <point x="1122.8294211497578" y="1455.033955073181" type="line"/>
      <point x="1071.7771072234912" y="1455.1480577230809" type="line"/>
      <point x="469.41500298218602" y="145.78472418472819" type="line"/>
      <point x="431.66894880162738" y="58.197097833048318" type="line"/>
      <point x="423.54511734218715" y="137.71270278389318" type="line"/>
      <point x="228.92237310222276" y="1456.4492300489785" type="line"/>
      <point x="180.19955730394469" y="1456.5339089088361" type="line"/>
      <point x="398.66615130399703" y="0.0" type="line"/>
      <point x="454.22783489364417" y="0.0" type="line"/>
    </contour>
  </outline>
</glyph>
<glyph name="W" format="1">
  <advance width="1550.06"/>
  <unicode hex="0057"/>
  <outline>
    <contour>
      <point x="931.72993317227827" y="1612" type="move" name="top"/>
    </contour>
    <contour>
      <point x="682.13780575924477" y="10" type="move" name="bottom"/>
    </contour>
    <contour>
      <point x="1686.4603292216188" y="1600" type="move" name="top_dd"/>
    </contour>
    <contour>
      <point x="1373.7690684738297" y="-407" type="move" name="bottom_dd"/>
    </contour>
    <contour>
      <point x="1688.3299331722783" y="1612" type="move" name="top0315"/>
    </contour>
    <contour>
      <point x="1614.8840648927016" y="1455.0990258853838" type="line"/>
      <point x="1565.1800152012436" y="1455.1569747863598" type="line"/>
      <point x="1146.0398931597726" y="334.00759394518292" type="line"/>
      <point x="1052.0371369475711" y="94.35303638341108" type="line"/>
      <point x="1038.0215704506222" y="325.54345294104291" type="line"/>
      <point x="934.03147268915484" y="1456.1050405008068" type="line"/>
      <point x="883.27235732566646" y="1455.6018245843284" type="line"/>
      <point x="429.17803466191469" y="333.97357949027162" type="line"/>
      <point x="337.51971258532694" y="94.824246773348719" type="line"/>
      <point x="322.1303735932467" y="325.51753643370245" type="line"/>
      <point x="251.54821700729258" y="1456.2962758280685" type="line"/>
      <point x="201.53342224819585" y="1456.3366022227747" type="line"/>
      <point x="296.43530508120239" y="0.0" type="line"/>
      <point x="348.22245532050874" y="0.0" type="line"/>
      <point x="831.65788874589111" y="1210.1195383173265" type="line"/>
      <point x="897.41817027658124" y="1364.3942224766674" type="line"/>
      <point x="912.54474903484606" y="1218.3932644147449" type="line"/>
      <point x="1019.1507277993993" y="0.0" type="line"/>
      <point x="1069.8709837513748" y="0.0" type="line"/>
    </contour>
  </outline>
</glyph>
<glyph name="X" format="1">
  <advance width="1034.99"/>
  <unicode hex="0058"/>
  <outline>
    <contour>
      <point x="460.9778057592448" y="10" type="move" name="bottom"/>
    </contour>
    <contour>
      <point x="838.68980246702858" y="0" type="move" name="right"/>
    </contour>
    <contour>
      <point x="541.03844872479965" y="748" type="move" name="cross"/>
    </contour>
    <contour>
      <point x="717.35993317227826" y="1612" type="move" name="top"/>
    </contour>
    <contour>
      <point x="1171.3903292216189" y="1600" type="move" name="top_dd"/>
    </contour>
    <contour>
      <point x="858.6990684738297" y="-407" type="move" name="bottom_dd"/>
    </contour>
    <contour>
      <point x="1173.2599331722784" y="1612" type="move" name="top0315"/>
    </contour>
    <contour>
      <point x="265.76541440133309" y="1456.6917298119074" type="line"/>
      <point x="211.12342756738894" y="1456.9745422543012" type="line"/>
      <point x="512.59920972929524" y="746.84242385275718" type="line"/>
      <point x="-31.064602592477037" y="0.0" type="line"/>
      <point x="25.556686898631227" y="0.0" type="line"/>
      <point x="535.37530770097635" y="699.42196485634736" type="line"/>
      <point x="825.12400961906542" y="0.0" type="line"/>
      <point x="878.80221913498451" y="0.0" type="line"/>
      <point x="567.46037829802344" y="739.15373075093544" type="line"/>
      <point x="1089.9437876828508" y="1454.6195452637903" type="line"/>
      <point x="1031.3808331727671" y="1454.8921107437779" type="line"/>
      <point x="543.71548481452101" y="786.57402180203337" type="line"/>
    </contour>
  </outline>
</glyph>
<glyph name="Y" format="1">
  <advance width="1034.99"/>
  <unicode hex="0059"/>
  <outline>
    <contour>
      <point x="688.02484557988009" y="1601" type="move" name="top"/>
    </contour>
    <contour>
      <point x="416.03858252534542" y="10" type="move" name="bottom"/>
    </contour>
    <contour>
      <point x="513.10270492022175" y="583" type="move" name="cross"/>
    </contour>
    <contour>
      <point x="108.75588224297466" y="1454" type="move" name="tonos"/>
    </contour>
    <contour>
      <point x="1188.3720635163636" y="1600" type="move" name="top_dd"/>
    </contour>
    <contour>
      <point x="841.59846203902157" y="-407" type="move" name="bottom_dd"/>
    </contour>
    <contour>
      <point x="1188.5448455798801" y="1601" type="move" name="top0315"/>
    </contour>
    <contour>
      <point x="251.51198377734357" y="1456.7236772922959" type="line"/>
      <point x="193.90772463112023" y="1456.9799868329683" type="line"/>
      <point x="486.10390791186535" y="557.80378765160583" type="line"/>
      <point x="389.68976060971391" y="0.0" type="line"/>
      <point x="434.74135459151853" y="0.0" type="line"/>
      <point x="529.5868223701209" y="548.70072263638554" type="line"/>
      <point x="1133.6830214937361" y="1454.5849153673209" type="line"/>
      <point x="1077.0624941628198" y="1454.8388938440867" type="line"/>
      <point x="514.30043649905463" y="603.90993072080983" type="line"/>
    </contour>
  </outline>
</glyph>
<glyph name="Z" format="1">
  <advance width="1035.96"/>
  <unicode hex="005A"/>
  <outline>
    <contour>
      <point x="690.89544827856002" y="1612" type="move" name="top"/>
    </contour>
    <contour>
      <point x="441.25858252534533" y="10" type="move" name="bottom"/>
    </contour>
    <contour>
      <point x="1189.3420635163639" y="1600" type="move" name="top_dd"/>
    </contour>
    <contour>
      <point x="842.5684620390216" y="-407" type="move" name="bottom_dd"/>
    </contour>
    <contour>
      <point x="1191.41544827856" y="1612" type="move" name="top0315"/>
    </contour>
    <contour>
      <point x="268.69919096832621" y="1403.2526093347417" type="line"/>
      <point x="989.51317578888734" y="1402.6559371317808" type="line"/>
      <point x="-0.4904750668893314" y="44.180475709846924" type="line"/>
      <point x="-7.0905352789352776" y="0.0" type="line"/>
      <point x="837.96261392590475" y="0.0" type="line"/>
      <point x="845.33581703575737" y="53.747893330513463" type="line"/>
      <point x="64.836483333881759" y="54.335968554897988" type="line"/>
      <point x="1056.1966143302689" y="1417.8167275294509" type="line"/>
      <point x="1061.7478206166675" y="1455.4571222310237" type="line"/>
      <point x="275.8909584075659" y="1455.7553521667439" type="line"/>
    </contour>
  </outline>
</glyph>
<glyph name="bracketleft" format="1">
  <advance width="396.72999999999996"/>
  <unicode hex="005B"/>
  <outline>
    <contour>
      <point x="563.87578707524915" y="1663.8105238450885" type="line"/>
      <point x="332.68192026296185" y="1663.9439077059301" type="line"/>
      <point x="23.230537952561534" y="-311.94389125091811" type="line"/>
      <point x="257.09200029231084" y="-311.81363297007289" type="line"/>
      <point x="263.73133931022767" y="-258.2253479031977" type="line"/>
      <point x="77.923302228309481" y="-257.95821634070802" type="line"/>
      <point x="369.13284235174638" y="1609.9476800061279" type="line"/>
      <point x="557.23667154360578" y="1610.2231702451256" type="line"/>
    </contour>
  </outline>
</glyph>
<glyph name="backslash" format="1">
  <advance width="669.3"/>
  <unicode hex="005C"/>
  <outline>
    <contour>
      <point x="437.04383599890059" y="-125.59020884006404" type="line"/>
      <point x="483.73966811071637" y="-125.66756901800608" type="line"/>
      <point x="261.3380214649485" y="1456.5892160108594" type="line"/>
      <point x="213.67204155221185" y="1456.6682305218501" type="line"/>
    </contour>
  </outline>
</glyph>
<glyph name="bracketright" format="1">
  <advance width="396.72999999999996"/>
  <unicode hex="005D"/>
  <outline>
    <contour>
      <point x="170.72465054504323" y="1610.2235215154517" type="line"/>
      <point x="355.56269974280099" y="1609.9570308775014" type="line"/>
      <point x="64.353155746351476" y="-257.9495311259555" type="line"/>
      <point x="-122.7806643682848" y="-258.22436008493867" type="line"/>
      <point x="-129.41978125260795" y="-311.81186479250914" type="line"/>
      <point x="101.77408281199199" y="-311.9454107675781" type="line"/>
      <point x="411.22545859649114" y="1663.9423682488489" type="line"/>
      <point x="177.3639938603057" y="1663.8119529447763" type="line"/>
    </contour>
  </outline>
</glyph>
<glyph name="asciicircum" format="1">
  <advance width="730.41"/>
  <unicode hex="005E"/>
  <outline>
    <contour>
      <point x="115.25296960550234" y="730.15034679447672" type="line"/>
      <point x="166.53375795296478" y="730.00648334976404" type="line"/>
      <point x="496.09407379087372" y="1380.2889498180491" type="line"/>
      <point x="597.10721898601616" y="728.4715217739847" type="line"/>
      <point x="646.55947425889565" y="728.34994477512339" type="line"/>
      <point x="526.42359010747521" y="1456.0955390120919" type="line"/>
      <point x="483.52542059134544" y="1455.5847719910118" type="line"/>
    </contour>
  </outline>
</glyph>
<glyph name="underscore" format="1">
  <advance width="727.5"/>
  <unicode hex="005F"/>
  <outline>
    <contour>
      <point x="283.32754586225087" y="157" type="move" name="_bottom"/>
    </contour>
    <contour>
      <point x="604.1499738465177" y="0.0" type="line"/>
      <point x="-86.941317675350803" y="0.0" type="line"/>
      <point x="-94.314049953473642" y="-53.747366052596689" type="line"/>
      <point x="596.7772415683952" y="-53.749811112443808" type="line"/>
    </contour>
  </outline>
</glyph>
<glyph name="a" format="1">
  <advance width="919.56"/>
  <unicode hex="0061"/>
  <outline>
    <contour>
      <point x="609.41518795332377" y="1292" type="move" name="top"/>
    </contour>
    <contour>
      <point x="328.95076189018175" y="0" type="move" name="bottom"/>
    </contour>
    <contour>
      <point x="676.21076189018174" y="0" type="move" name="ogonek"/>
    </contour>
    <contour>
      <point x="704.31450811134914" y="1263" type="move" name="rhalfring"/>
    </contour>
    <contour>
      <point x="1072.9420635163638" y="1600" type="move" name="top_dd"/>
    </contour>
    <contour>
      <point x="726.16846203902162" y="-407" type="move" name="bottom_dd"/>
    </contour>
    <contour>
      <point x="744.5902314298836" y="654" type="move" name="rhotichook"/>
    </contour>
    <contour>
      <point x="1019.7251879533237" y="1292" type="move" name="top0315"/>
    </contour>
    <contour>
      <point x="625.95421410867766" y="0.0" type="curve"/>
      <point x="677.80996133835981" y="0.0" type="line"/>
      <point x="679.17949186239377" y="9.0466063928282185" type="line"/>
      <point x="680.03720158085503" y="80.097680369651059"/>
      <point x="679.37026859918433" y="146.99739757221721"/>
      <point x="691.30872577083846" y="218.02580757959478" type="curve" smooth="yes"/>
      <point x="790.29848327012439" y="789.99425918776535" type="line" smooth="yes"/>
      <point x="819.41576434440447" y="981.62018510374946"/>
      <point x="722.8965730785701" y="1103.2457793471876"/>
      <point x="526.51861481807953" y="1101.8000918516236" type="curve" smooth="yes"/>
      <point x="338.20697796663342" y="1100.413786682363"/>
      <point x="187.2120052234294" y="968.73050821830304"/>
      <point x="150.00900757082292" y="786.82900697246316" type="curve"/>
      <point x="195.08654986820699" y="784.68300427837562" type="line"/>
      <point x="233.36496529809799" y="941.85845692443536"/>
      <point x="363.93918025131268" y="1046.7544169284849"/>
      <point x="527.15373262478374" y="1047.6889945084686" type="curve" smooth="yes"/>
      <point x="692.89855113253213" y="1048.6380605636898"/>
      <point x="773.25053910997701" y="954.96667853450253"/>
      <point x="746.22675793837698" y="792.02827947641731" type="curve" smooth="yes"/>
      <point x="712.52235276012925" y="604.19734410437854" type="line"/>
      <point x="473.19505858885407" y="604.00974695637069" type="line" smooth="yes"/>
      <point x="264.39024539215461" y="600.78357449680368"/>
      <point x="72.326597367546299" y="493.67594100253132"/>
      <point x="36.837236358252468" y="274.1355054424269" type="curve" smooth="yes"/>
      <point x="10.071008444944056" y="108.55716964624577"/>
      <point x="86.537469651058785" y="-20.780038536745213"/>
      <point x="263.38564543859616" y="-20.818729252219374" type="curve" smooth="yes"/>
      <point x="420.59753650477478" y="-20.853123955581786"/>
      <point x="553.44946290235293" y="61.277646432278061"/>
      <point x="645.16719061479535" y="184.80511284243008" type="curve"/>
      <point x="633.27981506344861" y="123.65343966197577"/>
      <point x="624.72171842021089" y="62.411730720539182"/>
    </contour>
    <contour>
      <point x="262.68152860348772" y="32.274479631686688" type="curve" smooth="yes"/>
      <point x="121.24312521440714" y="33.498907904456864"/>
      <point x="57.568156520097553" y="136.54358240564005"/>
      <point x="82.415827629395764" y="269.97520166424732" type="curve" smooth="yes"/>
      <point x="118.93296893889735" y="466.07169997143995"/>
      <point x="292.39600341183746" y="545.88132621182672"/>
      <point x="476.64749766615444" y="548.90350203932121" type="curve" smooth="yes"/>
      <point x="703.76145418981662" y="548.95064069796967" type="line"/>
      <point x="655.02683957407407" y="275.07267809386622" type="line"/>
      <point x="568.25798741848746" y="134.92022876283676"/>
      <point x="434.02912571895001" y="30.791128311591098"/>
    </contour>
  </outline>
</glyph>
<glyph name="b" format="1">
  <advance width="952.54"/>
  <unicode hex="0062"/>
  <outline>
    <contour>
      <point x="664.70544827856008" y="1612" type="move" name="top"/>
    </contour>
    <contour>
      <point x="390.27294125501805" y="-10" type="move" name="bottom"/>
    </contour>
    <contour>
      <point x="1105.9220635163638" y="1600" type="move" name="top_dd"/>
    </contour>
    <contour>
      <point x="759.14846203902164" y="-407" type="move" name="bottom_dd"/>
    </contour>
    <contour>
      <point x="1107.9954482785602" y="1612" type="move" name="top0315"/>
    </contour>
    <contour>
      <point x="822.57319843880452" y="530.97494990534324" type="curve" smooth="yes"/>
      <point x="826.10832456250171" y="551.98104377077061" type="line" smooth="yes"/>
      <point x="857.79404995612856" y="748.1843539227292"/>
      <point x="864.44991322801411" y="1102.3677547929076"/>
      <point x="582.78606547607615" y="1101.8318016296591" type="curve" smooth="yes"/>
      <point x="434.22106962243265" y="1101.5491104709915"/>
      <point x="324.56150916126745" y="1004.3895215288298"/>
      <point x="248.42514060219912" y="885.5916033611594" type="curve"/>
      <point x="364.59811601413043" y="1535.6697751365271" type="line"/>
      <point x="319.53695920355193" y="1535.6702035673918" type="line"/>
      <point x="54.101752288585132" y="0.0" type="line"/>
      <point x="99.077170664055259" y="0.0" type="line"/>
      <point x="130.77504950367978" y="170.63567859962211" type="line"/>
      <point x="173.46370855035937" y="51.16518269995268"/>
      <point x="272.0982456590533" y="-20.210558265260403"/>
      <point x="400.31693484947328" y="-19.851468791493478" type="curve" smooth="yes"/>
      <point x="672.0161673540116" y="-19.090547469968836"/>
      <point x="784.35887084911178" y="313.80611053578258"/>
    </contour>
    <contour>
      <point x="584.35190481988843" y="1047.7051510271592" type="curve" smooth="yes"/>
      <point x="831.64312969397963" y="1047.8444743969371"/>
      <point x="806.54934824473594" y="716.15273808104189"/>
      <point x="778.65508873043575" y="551.99035643370951" type="curve" smooth="yes"/>
      <point x="774.96516967224898" y="530.98413986109313" type="line" smooth="yes"/>
      <point x="739.61812713448558" y="338.46197283616249"/>
      <point x="644.25403712977118" y="34.609580820768279"/>
      <point x="400.70718326380154" y="34.240919643925906" type="curve" smooth="yes"/>
      <point x="251.0011179279949" y="34.014306927107512"/>
      <point x="164.84002518915577" y="133.78836194316582"/>
      <point x="145.25576351125591" y="274.94037161433533" type="curve"/>
      <point x="232.7946628034997" y="768.34854182859749" type="line"/>
      <point x="279.61532297090901" y="917.04947766033092"/>
      <point x="426.07782884538676" y="1047.6159797368134"/>
    </contour>
  </outline>
</glyph>
<glyph name="c" format="1">
  <advance width="885.61"/>
  <unicode hex="0063"/>
  <outline>
    <contour>
      <point x="572.13222716291705" y="1290" type="move" name="top"/>
    </contour>
    <contour>
      <point x="369.59179917481242" y="-10" type="move" name="bottom"/>
    </contour>
    <contour>
      <point x="572.13222716291705" y="1290" type="move" name="marktop"/>
    </contour>
    <contour>
      <point x="1022.0103292216189" y="1600" type="move" name="top_dd"/>
    </contour>
    <contour>
      <point x="709.31906847382959" y="-407" type="move" name="bottom_dd"/>
    </contour>
    <contour>
      <point x="973.71222716291697" y="1290" type="move" name="top0315"/>
    </contour>
    <contour>
      <point x="366.147477902525" y="34.282181650555252" type="curve" smooth="yes"/>
      <point x="110.99263110697134" y="34.884261524874674"/>
      <point x="102.64582232524826" y="333.4688841290386"/>
      <point x="131.16908973936665" y="520.01797562831587" type="curve" smooth="yes"/>
      <point x="137.92029835706148" y="562.00527353401844" type="line" smooth="yes"/>
      <point x="172.67217167700861" y="768.38718256404354"/>
      <point x="280.73896555418605" y="1047.9502844203748"/>
      <point x="531.50052416070093" y="1047.7596869444719" type="curve" smooth="yes"/>
      <point x="714.40983074402004" y="1047.620662237704"/>
      <point x="776.00751409703491" y="883.2388501586629"/>
      <point x="760.46941436577436" y="725.17825199844276" type="curve"/>
      <point x="806.21777731507916" y="725.04765188911415" type="line"/>
      <point x="822.53267046477333" y="910.79557004593676"/>
      <point x="743.61693753039685" y="1102.0564038519817"/>
      <point x="530.94133949067748" y="1101.8406682762127" type="curve" smooth="yes"/>
      <point x="253.13070033912328" y="1101.5588604959851"/>
      <point x="128.04069381438939" y="792.20440167240019"/>
      <point x="91.196227494259105" y="562.02805460423338" type="curve" smooth="yes"/>
      <point x="84.798508016141952" y="520.01376371736364" type="line" smooth="yes"/>
      <point x="54.13908545650898" y="307.45678935298469"/>
      <point x="83.356711552854392" y="-20.397396516841955"/>
      <point x="366.71308604805216" y="-19.844592996420822" type="curve" smooth="yes"/>
      <point x="568.10422490389101" y="-19.451696486718284"/>
      <point x="702.71015153759004" y="143.78360792955186"/>
      <point x="744.41147128600699" y="327.1254023507106" type="curve"/>
      <point x="698.07499039115737" y="327.24032291085581" type="line"/>
      <point x="655.77802386951055" y="168.21775287592516"/>
      <point x="542.14283299911233" y="33.866891631148881"/>
    </contour>
  </outline>
</glyph>
<glyph name="d" format="1">
  <advance width="952.54"/>
  <unicode hex="0064"/>
  <outline>
    <contour>
      <point x="1079.3440114513164" y="1536" type="move" name="caron"/>
    </contour>
    <contour>
      <point x="811.65413684255282" y="1306" type="move" name="cross"/>
    </contour>
    <contour>
      <point x="401.70076189018175" y="0" type="move" name="bottom"/>
    </contour>
    <contour>
      <point x="632.13770478669107" y="1620" type="move" name="top"/>
    </contour>
    <contour>
      <point x="1105.9220635163638" y="1600" type="move" name="top_dd"/>
    </contour>
    <contour>
      <point x="759.14846203902164" y="-407" type="move" name="bottom_dd"/>
    </contour>
    <contour>
      <point x="1109.3777047866911" y="1620" type="move" name="top0315"/>
    </contour>
    <contour>
      <point x="645.70327992527143" y="0.0" type="line"/>
      <point x="691.88380417100279" y="0.0" type="line"/>
      <point x="957.24699520722993" y="1535.6776130994654" type="line"/>
      <point x="911.22835530858845" y="1535.67565153382" type="line"/>
      <point x="796.56831771634927" y="883.33337374264124" type="line"/>
      <point x="761.6386725634103" y="1011.9372658147718"/>
      <point x="672.33698906038831" y="1102.0530363341923"/>
      <point x="533.31575316685144" y="1101.860818418467" type="curve" smooth="yes"/>
      <point x="258.2111827316337" y="1101.4804446806302"/>
      <point x="148.05458315029034" y="772.46372096280822"/>
      <point x="109.29609464437807" y="552.02358381885233" type="curve" smooth="yes"/>
      <point x="105.76085116473276" y="531.01723489278879" type="line" smooth="yes"/>
      <point x="74.593897165724087" y="337.79841768027433"/>
      <point x="69.449970825290109" y="-20.062102403196938"/>
      <point x="347.93256013415163" y="-19.830642226327214" type="curve" smooth="yes"/>
      <point x="488.83652293981436" y="-19.713530215003331"/>
      <point x="601.65884691716985" y="61.714568134206743"/>
      <point x="679.72772299629401" y="173.31359638019251" type="curve"/>
    </contour>
    <contour>
      <point x="154.18145212214114" y="531.00839842672349" type="curve" smooth="yes"/>
      <point x="157.87053962036987" y="552.01473270385429" type="line" smooth="yes"/>
      <point x="193.24560020574202" y="744.77723488043762"/>
      <point x="288.82586530647325" y="1048.2659467464998"/>
      <point x="532.90335998218166" y="1047.7315065153505" type="curve" smooth="yes"/>
      <point x="678.00136982172296" y="1047.4137950687423"/>
      <point x="786.80612495980472" y="923.30211692619127"/>
      <point x="781.15947529359539" y="777.7230954148032" type="curve"/>
      <point x="690.62777044336985" y="266.80279367918672" type="line"/>
      <point x="619.30472135914192" y="135.78188317680025"/>
      <point x="502.8729365527164" y="33.661470401928561"/>
      <point x="346.38372433202744" y="34.278304712711744" type="curve" smooth="yes"/>
      <point x="99.526612282339585" y="35.251342626394624"/>
      <point x="126.31578244725409" y="367.06681411829987"/>
    </contour>
  </outline>
</glyph>
<glyph name="e" format="1">
  <advance width="879.79"/>
  <unicode hex="0065"/>
  <outline>
    <contour>
      <point x="588.77802749213868" y="1291" type="move" name="top"/>
    </contour>
    <contour>
      <point x="387.29300378391508" y="4" type="move" name="bottom"/>
    </contour>
    <contour>
      <point x="612.98622156188242" y="58" type="move" name="ogonek"/>
    </contour>
    <contour>
      <point x="1016.190329221619" y="1600" type="move" name="top_dd"/>
    </contour>
    <contour>
      <point x="703.49906847382965" y="-407" type="move" name="bottom_dd"/>
    </contour>
    <contour>
      <point x="782.47321777796731" y="654" type="move" name="rhotichook"/>
    </contour>
    <contour>
      <point x="968.04802749213866" y="1291" type="move" name="top0315"/>
    </contour>
    <contour>
      <point x="701.28490265556263" y="152.51913030787591" type="curve"/>
      <point x="671.12795205075315" y="181.3085250333487" type="line"/>
      <point x="594.34317128691737" y="94.149694263243376"/>
      <point x="503.4429889137561" y="32.147017608105827"/>
      <point x="383.46877753926907" y="33.317685416541316" type="curve" smooth="yes"/>
      <point x="140.483192502024" y="35.688656636590174"/>
      <point x="91.72184633171068" y="330.89339920762444"/>
      <point x="123.00944601411025" y="517.90044037001121" type="curve" smooth="yes"/>
      <point x="130.98420041154048" y="561.70193842155231" type="line" smooth="yes"/>
      <point x="131.94939765136192" y="566.98415910252697"/>
      <point x="133.02103481836039" y="572.22076032322241"/>
      <point x="134.17453433547553" y="577.46517542840093" type="curve"/>
      <point x="794.49456749923627" y="577.14756390184607" type="line"/>
      <point x="803.48804578351871" y="639.93148626466711" type="line" smooth="yes"/>
      <point x="829.48992782462574" y="832.74749655861012"/>
      <point x="778.24367360218423" y="1102.1566864246627"/>
      <point x="533.84620941430774" y="1101.8343858778762" type="curve" smooth="yes"/>
      <point x="265.13825395101878" y="1101.480025732367"/>
      <point x="119.57052236445938" y="785.86055246112755"/>
      <point x="83.416086140149403" y="562.03800487471233" type="curve" smooth="yes"/>
      <point x="76.735139150946267" y="518.02191831466178" type="line" smooth="yes"/>
      <point x="46.386582520821918" y="303.06839528069833"/>
      <point x="108.17932288459593" y="-20.110044904162084"/>
      <point x="384.12515092830216" y="-19.802821924349505" type="curve" smooth="yes"/>
      <point x="516.87637170926109" y="-19.655023981864851"/>
      <point x="622.57106736359299" y="50.222671033983218"/>
    </contour>
    <contour>
      <point x="534.40739357650773" y="1047.7310558148924" type="curve" smooth="yes"/>
      <point x="741.31013234109935" y="1047.1214135146458"/>
      <point x="783.98441703153856" y="805.08871063100969"/>
      <point x="755.22376462106809" y="644.279356119863" type="curve" smooth="yes"/>
      <point x="752.51072952566733" y="630.69063424199794" type="line"/>
      <point x="140.55278893542561" y="630.76125398861734" type="line"/>
      <point x="193.14171028425093" y="809.59163314122463"/>
      <point x="316.53021640663025" y="1048.3730344772059"/>
    </contour>
  </outline>
</glyph>
<glyph name="f" format="1">
  <advance width="564.54"/>
  <unicode hex="0066"/>
  <outline>
    <contour>
      <point x="627.95462859767281" y="1680" type="move" name="top"/>
    </contour>
    <contour>
      <point x="186.14858252534538" y="10" type="move" name="bottom"/>
    </contour>
    <contour>
      <point x="717.92206351636378" y="1600" type="move" name="top_dd"/>
    </contour>
    <contour>
      <point x="371.14846203902169" y="-407" type="move" name="bottom_dd"/>
    </contour>
    <contour>
      <point x="731.74462859767289" y="1680" type="move" name="top0315"/>
    </contour>
    <contour>
      <point x="579.43690624376018" y="1027.2595088567314" type="line"/>
      <point x="586.88959597929988" y="1081.7400054283194" type="line"/>
      <point x="355.37314303876406" y="1082.0854460959886" type="line"/>
      <point x="382.35575102781661" y="1235.9733557611473" type="line" smooth="yes"/>
      <point x="406.40044165548551" y="1359.2539223722226"/>
      <point x="475.29628995832837" y="1500.1537667120369"/>
      <point x="618.89279882584071" y="1503.0234560107983" type="curve" smooth="yes"/>
      <point x="651.00181883517689" y="1503.6651353374143"/>
      <point x="680.92817987300964" y="1498.1290668027639"/>
      <point x="711.36909748354117" y="1488.5887811479324" type="curve"/>
      <point x="725.24696027174457" y="1539.4247673138377" type="line"/>
      <point x="690.24303088655779" y="1550.2345090094543"/>
      <point x="655.61390143151891" y="1557.1719955826584"/>
      <point x="618.76239485200085" y="1556.6762022570726" type="curve" smooth="yes"/>
      <point x="442.58210978643888" y="1554.3059054213977"/>
      <point x="362.48407180928177" y="1388.2700689683199"/>
      <point x="335.015607014198" y="1236.208724611314" type="curve" smooth="yes"/>
      <point x="309.25858463731407" y="1082.1110266687558" type="line"/>
      <point x="154.73585553763047" y="1081.7289913021398" type="line"/>
      <point x="147.39737237392757" y="1027.2461356063523" type="line"/>
      <point x="298.9043587990659" y="1026.9536835795709" type="line"/>
      <point x="121.97576246950111" y="0.0" type="line"/>
      <point x="167.99540152456871" y="0.0" type="line"/>
      <point x="345.79496096238347" y="1026.9203049524351" type="line"/>
    </contour>
  </outline>
</glyph>
<glyph name="g" format="1">
  <advance width="953.51"/>
  <unicode hex="0067"/>
  <outline>
    <contour>
      <point x="600.33962382629102" y="1290" type="move" name="top"/>
    </contour>
    <contour>
      <point x="289.54717949836714" y="-447" type="move" name="bottom"/>
    </contour>
    <contour>
      <point x="1106.8920635163638" y="1600" type="move" name="top_dd"/>
    </contour>
    <contour>
      <point x="760.11846203902167" y="-407" type="move" name="bottom_dd"/>
    </contour>
    <contour>
      <point x="1053.329623826291" y="1290" type="move" name="top0315"/>
    </contour>
    <contour>
      <point x="693.65653200687893" y="14.920955764919968" type="curve" smooth="yes"/>
      <point x="877.65109474780434" y="1081.6688686837672" type="line"/>
      <point x="831.71172629475075" y="1081.7495544915978" type="line"/>
      <point x="795.44495032491557" y="884.40149437603316" type="line"/>
      <point x="760.15231236430816" y="1012.4954856287885"/>
      <point x="670.90552330896628" y="1102.0628423840508"/>
      <point x="532.34373710760872" y="1101.8627205389528" type="curve" smooth="yes"/>
      <point x="257.3632413983932" y="1101.4655720489113"/>
      <point x="147.99737060394062" y="772.16661482576797"/>
      <point x="109.29892407352675" y="552.02280529334348" type="curve" smooth="yes"/>
      <point x="105.76318309688928" y="531.01663368043194" type="line" smooth="yes"/>
      <point x="74.710487104254781" y="338.53243333304448"/>
      <point x="69.040297234487014" y="-19.986042923027352"/>
      <point x="346.96125179855596" y="-19.834725155312753" type="curve" smooth="yes"/>
      <point x="487.58386394040872" y="-19.758161299978859"/>
      <point x="600.12358348776706" y="60.939681051335114"/>
      <point x="678.21281619737965" y="172.27478357405801" type="curve"/>
      <point x="646.98886740569435" y="14.856795467323682" type="line" smooth="yes"/>
      <point x="610.27942347324233" y="-173.89348765433894"/>
      <point x="503.6729844183825" y="-383.07358012193566"/>
      <point x="283.84308984430839" y="-382.73961913163566" type="curve" smooth="yes"/>
      <point x="172.63729445124858" y="-382.57067760696941"/>
      <point x="105.83975985243035" y="-311.69003100816218"/>
      <point x="58.851525778852547" y="-218.21977410310481" type="curve"/>
      <point x="23.258533154155501" y="-252.23038080826495" type="line"/>
      <point x="75.758695417033621" y="-359.25913140243722"/>
      <point x="160.91567450732651" y="-435.5081653439363"/>
      <point x="285.56476458287466" y="-435.80589610925392" type="curve" smooth="yes"/>
      <point x="531.68729034771729" y="-436.39377242598806"/>
      <point x="655.75205490915255" y="-196.99401301903279"/>
    </contour>
    <contour>
      <point x="152.23976270664588" y="531.00851408138828" type="curve" smooth="yes"/>
      <point x="155.93044165380445" y="552.01483890224608" type="line" smooth="yes"/>
      <point x="191.41104043756695" y="745.12829145964849"/>
      <point x="288.64174599634009" y="1048.5175133008593"/>
      <point x="532.89284805894863" y="1047.7166222027649" type="curve" smooth="yes"/>
      <point x="685.26212427793439" y="1047.217008502289"/>
      <point x="785.75843412580446" y="913.563460640936"/>
      <point x="777.86731881214473" y="764.90853372849301" type="curve"/>
      <point x="691.69267222465919" y="278.1809947294056" type="line"/>
      <point x="644.60188053362936" y="137.62564694054336"/>
      <point x="490.16083823496706" y="33.776381600785449"/>
      <point x="345.41090461500914" y="34.283450529508904" type="curve" smooth="yes"/>
      <point x="98.939018144441775" y="35.146858424128119"/>
      <point x="124.40964500175791" y="367.20940195001538"/>
    </contour>
  </outline>
</glyph>
<glyph name="h" format="1">
  <advance width="952.54"/>
  <unicode hex="0068"/>
  <outline>
    <contour>
      <point x="579.17266621504382" y="1611" type="move" name="top"/>
    </contour>
    <contour>
      <point x="410.07413684255278" y="1306" type="move" name="cross"/>
    </contour>
    <contour>
      <point x="383.0585825253454" y="10" type="move" name="bottom"/>
    </contour>
    <contour>
      <point x="693.67076189018178" y="0" type="move" name="right"/>
    </contour>
    <contour>
      <point x="1105.9220635163638" y="1600" type="move" name="top_dd"/>
    </contour>
    <contour>
      <point x="759.14846203902164" y="-407" type="move" name="bottom_dd"/>
    </contour>
    <contour>
      <point x="1107.8226662150437" y="1611" type="move" name="top0315"/>
    </contour>
    <contour>
      <point x="597.13678547598181" y="1048.7438958975497" type="curve" smooth="yes"/>
      <point x="797.96154586392697" y="1051.179509552127"/>
      <point x="795.01082137270748" y="850.91197479709842"/>
      <point x="769.54217582824856" y="700.02528125720937" type="curve" smooth="yes"/>
      <point x="648.68771377060682" y="0.0" type="line"/>
      <point x="693.73736347442025" y="0.0" type="line"/>
      <point x="814.63983501341158" y="700.00214524415946" type="line" smooth="yes"/>
      <point x="843.47135362524511" y="879.11580128834271"/>
      <point x="829.71752870813509" y="1104.0222186411306"/>
      <point x="598.30829055984555" y="1101.7839276751531" type="curve" smooth="yes"/>
      <point x="432.8755527363947" y="1100.1837901633141"/>
      <point x="314.42306536982068" y="964.20577515454727"/>
      <point x="240.90164693299249" y="830.31738291320721" type="curve"/>
      <point x="366.51707302021669" y="1535.6760818022603" type="line"/>
      <point x="320.49587350877937" y="1535.6729362863587" type="line"/>
      <point x="55.035067045713802" y="0.0" type="line"/>
      <point x="101.04909444255877" y="0.0" type="line"/>
      <point x="221.7417611226814" y="694.18092945218609" type="line"/>
      <point x="267.00240964254431" y="854.71969443404737"/>
      <point x="418.07034470791098" y="1046.5721683308454"/>
    </contour>
  </outline>
</glyph>
<glyph name="i" format="1">
  <advance width="382.18"/>
  <unicode hex="0069"/>
  <outline>
    <contour>
      <point x="88.178582525345362" y="10" type="move" name="bottom"/>
    </contour>
    <contour>
      <point x="109.73076189018174" y="0" type="move" name="ogonek"/>
    </contour>
    <contour>
      <point x="369.69206351636376" y="1600" type="move" name="top"/>
    </contour>
    <contour>
      <point x="535.56206351636376" y="1600" type="move" name="top_dd"/>
    </contour>
    <contour>
      <point x="188.78846203902168" y="-407" type="move" name="bottom_dd"/>
    </contour>
    <contour>
      <point x="201.39023142988367" y="654" type="move" name="rhotichook"/>
    </contour>
    <contour>
      <point x="535.56206351636376" y="1600" type="move" name="top0315"/>
    </contour>
    <contour>
      <point x="289.00448794595371" y="1421.6923411751684" type="curve" smooth="yes"/>
      <point x="283.78949871094505" y="1388.6207385195182"/>
      <point x="302.0297810911635" y="1378.3269173290046"/>
      <point x="326.62749810282867" y="1365.3665824518628" type="curve"/>
      <point x="358.34216981212921" y="1379.4559555400176"/>
      <point x="364.48837828884035" y="1387.3981562025499"/>
      <point x="380.78995407500884" y="1418.2797473828127" type="curve"/>
      <point x="374.76578380756899" y="1454.03934446429"/>
      <point x="374.14520526710885" y="1458.5945648127349"/>
      <point x="342.37575544866195" y="1475.6359442839409" type="curve"/>
      <point x="317.4427980101467" y="1464.0722284627871"/>
      <point x="293.9299283147123" y="1452.9277281412953"/>
    </contour>
    <contour>
      <point x="298.52629042761731" y="1081.6788172504218" type="line"/>
      <point x="252.50681324553415" y="1081.6768848474517" type="line"/>
      <point x="65.71373427137614" y="0.0" type="line"/>
      <point x="111.73321145345959" y="0.0" type="line"/>
    </contour>
  </outline>
</glyph>
<glyph name="j" format="1">
  <advance width="401.58"/>
  <unicode hex="006A"/>
  <outline>
    <contour>
      <point x="373.57206351636376" y="1600" type="move" name="top"/>
    </contour>
    <contour>
      <point x="-8.3762052638292488" y="-459" type="move" name="bottom"/>
    </contour>
    <contour>
      <point x="554.96206351636374" y="1600" type="move" name="top_dd"/>
    </contour>
    <contour>
      <point x="208.18846203902172" y="-407" type="move" name="bottom_dd"/>
    </contour>
    <contour>
      <point x="554.96206351636374" y="1600" type="move" name="top0315"/>
    </contour>
    <contour>
      <point x="293.85406410875743" y="1421.6908810813086" type="curve" smooth="yes"/>
      <point x="290.17351738032107" y="1398.3489568920977"/>
      <point x="304.24073358523708" y="1366.2765575495393"/>
      <point x="331.47703296663394" y="1365.36553842322" type="curve" smooth="yes"/>
      <point x="356.03984938765262" y="1364.5439438577298"/>
      <point x="382.12937883319182" y="1396.4445948855414"/>
      <point x="385.63966163579789" y="1418.2781163672835" type="curve" smooth="yes"/>
      <point x="389.3870590539629" y="1441.5864612018895"/>
      <point x="374.47636204221703" y="1474.8432078913245"/>
      <point x="347.22535476922064" y="1475.6346676167063" type="curve" smooth="yes"/>
      <point x="322.52730097656735" y="1476.3519810971356"/>
      <point x="297.26090409507822" y="1443.2969647837851"/>
    </contour>
    <contour>
      <point x="253.47872122556851" y="1081.6769768633339" type="line"/>
      <point x="43.43856817732437" y="-128.93418436887001" type="line" smooth="yes"/>
      <point x="19.790441223468505" y="-249.48766507503549"/>
      <point x="-49.956649258998652" y="-385.18821342853408"/>
      <point x="-191.48044640637016" y="-383.01509882984016" type="curve" smooth="yes"/>
      <point x="-217.25627032293659" y="-382.61930801320369"/>
      <point x="-240.80079039255838" y="-375.24992987070806"/>
      <point x="-264.22977637965084" y="-365.30731962540062" type="curve"/>
      <point x="-273.36261588293394" y="-416.60109656051605" type="line"/>
      <point x="-246.98732364068576" y="-427.70265477209205"/>
      <point x="-221.92344747855449" y="-436.38419798866158"/>
      <point x="-192.9229516859196" y="-436.75446283273862" type="curve" smooth="yes"/>
      <point x="-19.689335555626315" y="-438.96622908404777"/>
      <point x="63.808401523195954" y="-278.34774930212689"/>
      <point x="90.839524669292857" y="-129.19530617622846" type="curve" smooth="yes"/>
      <point x="299.49809248154639" y="1081.6788710751321" type="line"/>
    </contour>
  </outline>
</glyph>
<glyph name="k" format="1">
  <advance width="828.38"/>
  <unicode hex="006B"/>
  <outline>
    <contour>
      <point x="357.37791713104718" y="114" type="move" name="bottom"/>
    </contour>
    <contour>
      <point x="416.83684176277461" y="1289" type="move" name="cross"/>
    </contour>
    <contour>
      <point x="637.54544827856012" y="1612" type="move" name="top"/>
    </contour>
    <contour>
      <point x="637.54544827856012" y="1612" type="move" name="marktop"/>
    </contour>
    <contour>
      <point x="981.76206351636392" y="1600" type="move" name="top_dd"/>
    </contour>
    <contour>
      <point x="634.98846203902167" y="-407" type="move" name="bottom_dd"/>
    </contour>
    <contour>
      <point x="878.10544827856006" y="1612" type="move" name="top0315"/>
    </contour>
    <contour>
      <point x="333.18298833159184" y="582.08596707972447" type="line"/>
      <point x="335.26938392803868" y="584.23017789198707" type="line"/>
      <point x="638.06250474857484" y="0.0" type="line"/>
      <point x="694.09669182737298" y="0.0" type="line"/>
      <point x="369.48005453466362" y="618.05531160847727" type="line"/>
      <point x="854.46939683266237" y="1080.3102308627376" type="line"/>
      <point x="788.30220944453367" y="1080.7549544505341" type="line"/>
      <point x="310.31326823273554" y="628.60243744032186" type="line"/>
      <point x="189.10965766818458" y="513.2066190868087" type="line"/>
      <point x="366.51237710421788" y="1535.6822888968074" type="line"/>
      <point x="320.4935430195427" y="1535.6801338084006" type="line"/>
      <point x="55.023288903725174" y="0.0" type="line"/>
      <point x="101.02910503261198" y="0.0" type="line"/>
      <point x="177.9279737077577" y="446.10608122380643" type="line"/>
    </contour>
  </outline>
</glyph>
<glyph name="l" format="1">
  <advance width="382.18"/>
  <unicode hex="006C"/>
  <outline>
    <contour>
      <point x="379.39515415305834" y="1673" type="move" name="top"/>
    </contour>
    <contour>
      <point x="92.058582525345358" y="10" type="move" name="bottom"/>
    </contour>
    <contour>
      <point x="520.62401145131651" y="1536" type="move" name="caron"/>
    </contour>
    <contour>
      <point x="375.92972032217455" y="794" type="move" name="dot"/>
    </contour>
    <contour>
      <point x="561.4822033552764" y="1503" type="move" name="marktop"/>
    </contour>
    <contour>
      <point x="535.56206351636376" y="1600" type="move" name="top_dd"/>
    </contour>
    <contour>
      <point x="188.78846203902168" y="-407" type="move" name="bottom_dd"/>
    </contour>
    <contour>
      <point x="548.17515415305832" y="1673" type="move" name="top0315"/>
    </contour>
    <contour>
      <point x="377.18314481511129" y="1535.67860284166" type="line"/>
      <point x="331.16370798743543" y="1535.6766801045048" type="line"/>
      <point x="65.712890876471945" y="0.0" type="line"/>
      <point x="111.73232770414781" y="0.0" type="line"/>
    </contour>
  </outline>
</glyph>
<glyph name="m" format="1">
  <advance width="1534.54"/>
  <unicode hex="006D"/>
  <outline>
    <contour>
      <point x="884.54962382629094" y="1290" type="move" name="top"/>
    </contour>
    <contour>
      <point x="665.32858252534538" y="10" type="move" name="bottom"/>
    </contour>
    <contour>
      <point x="884.54962382629094" y="1290" type="move" name="marktop"/>
    </contour>
    <contour>
      <point x="1687.9220635163638" y="1600" type="move" name="top_dd"/>
    </contour>
    <contour>
      <point x="1341.1484620390215" y="-407" type="move" name="bottom_dd"/>
    </contour>
    <contour>
      <point x="1634.3596238262908" y="1290" type="move" name="top0315"/>
    </contour>
    <contour>
      <point x="588.40316402439339" y="1048.7251954021292" type="curve" smooth="yes"/>
      <point x="782.53030085940918" y="1051.2557668960919"/>
      <point x="791.87404618403116" y="872.21005055228102"/>
      <point x="766.30513681136097" y="720.03328015140244" type="curve" smooth="yes"/>
      <point x="641.87558407165739" y="0.0" type="line"/>
      <point x="687.8942990678745" y="0.0" type="line"/>
      <point x="812.99257519271487" y="719.97755949105408" type="line"/>
      <point x="851.56871627093915" y="885.86446209890369"/>
      <point x="1011.8446619228057" y="1044.4503078370954"/>
      <point x="1185.9475375169679" y="1048.7163338761563" type="curve" smooth="yes"/>
      <point x="1388.1981950033298" y="1053.6720623114825"/>
      <point x="1386.8102232164706" y="851.64696983296244"/>
      <point x="1361.2456715294252" y="700.02641404200608" type="curve" smooth="yes"/>
      <point x="1240.3859384949437" y="0.0" type="line"/>
      <point x="1285.4358252113973" y="0.0" type="line"/>
      <point x="1406.3368201493488" y="700.00321326229562" type="line" smooth="yes"/>
      <point x="1435.3507774204613" y="880.42405577719455"/>
      <point x="1419.4841962309586" y="1103.3639500821114"/>
      <point x="1188.0751741892861" y="1101.7885711275412" type="curve" smooth="yes"/>
      <point x="1022.9572045533887" y="1100.6644862837838"/>
      <point x="896.33682057847034" y="983.18019220414976"/>
      <point x="820.78676867027684" y="846.11162058992102" type="curve"/>
      <point x="822.14960978775696" y="996.79113828750928"/>
      <point x="749.4891015954388" y="1103.4735277137956"/>
      <point x="589.59361092010818" y="1101.8038946938038" type="curve" smooth="yes"/>
      <point x="422.33321547294759" y="1100.0573571398304"/>
      <point x="304.06925063005929" y="961.11876027458607"/>
      <point x="231.16946523418204" y="825.36516457997038" type="curve"/>
      <point x="279.38442742396779" y="1081.679610496047" type="line"/>
      <point x="233.23929125253949" y="1081.6246334737475" type="line"/>
      <point x="46.310312298527904" y="0.0" type="line"/>
      <point x="92.329424250605868" y="0.0" type="line"/>
      <point x="210.3923377941465" y="679.39134458503497" type="line"/>
      <point x="254.32248109351741" y="844.70602990017881"/>
      <point x="402.96194692091439" y="1046.3078504319274"/>
    </contour>
  </outline>
</glyph>
<glyph name="n" format="1">
  <advance width="952.54"/>
  <unicode hex="006E"/>
  <outline>
    <contour>
      <point x="610.03962382629106" y="1290" type="move" name="top"/>
    </contour>
    <contour>
      <point x="388.87858252534539" y="10" type="move" name="bottom"/>
    </contour>
    <contour>
      <point x="181.12401145131651" y="1536" type="move" name="caron"/>
    </contour>
    <contour>
      <point x="692.70076189018175" y="0" type="move" name="right"/>
    </contour>
    <contour>
      <point x="610.03962382629106" y="1290" type="move" name="marktop"/>
    </contour>
    <contour>
      <point x="1105.9220635163638" y="1600" type="move" name="top_dd"/>
    </contour>
    <contour>
      <point x="759.14846203902164" y="-407" type="move" name="bottom_dd"/>
    </contour>
    <contour>
      <point x="1052.359623826291" y="1290" type="move" name="top0315"/>
    </contour>
    <contour>
      <point x="597.13656516233334" y="1048.7425586818313" type="curve" smooth="yes"/>
      <point x="797.961913909597" y="1051.1774418807918"/>
      <point x="795.00833596789232" y="850.9133176117009"/>
      <point x="769.54211250931235" y="700.02609980094246" type="curve" smooth="yes"/>
      <point x="648.68783079874913" y="0.0" type="line"/>
      <point x="693.73744038611005" y="0.0" type="line"/>
      <point x="814.63992719890371" y="700.00296212498381" type="line" smooth="yes"/>
      <point x="843.47310192050475" y="879.11620720539531"/>
      <point x="829.71472486770745" y="1104.02537777367"/>
      <point x="598.30687979646052" y="1101.7848084587292" type="curve" smooth="yes"/>
      <point x="432.85988362808564" y="1100.1828944754334"/>
      <point x="314.3852039185453" y="964.18020900768011"/>
      <point x="240.76645800526347" y="830.33359887541565" type="curve"/>
      <point x="288.10144456091649" y="1081.6863307060635" type="line"/>
      <point x="241.96194769313462" y="1081.6282361860162" type="line"/>
      <point x="55.035516571312499" y="0.0" type="line"/>
      <point x="101.04937877674915" y="0.0" type="line"/>
      <point x="221.74119807062687" y="694.18101915097043" type="line"/>
      <point x="267.00322997619548" y="854.71981879776911"/>
      <point x="418.0691568899922" y="1046.571477059897"/>
    </contour>
  </outline>
</glyph>
<glyph name="o" format="1">
  <advance width="957.39"/>
  <unicode hex="006F"/>
  <outline>
    <contour>
      <point x="588.62222716291706" y="1290" type="move" name="top"/>
    </contour>
    <contour>
      <point x="386.08179917481243" y="-10" type="move" name="bottom"/>
    </contour>
    <contour>
      <point x="1093.790329221619" y="1600" type="move" name="top_dd"/>
    </contour>
    <contour>
      <point x="781.09906847382979" y="-407" type="move" name="bottom_dd"/>
    </contour>
    <contour>
      <point x="845.52321777796737" y="654" type="move" name="rhotichook"/>
    </contour>
    <contour>
      <point x="1045.4922271629173" y="1290" type="move" name="top0315"/>
    </contour>
    <contour>
      <point x="79.94374116652331" y="520.02165135411008" type="line" smooth="yes"/>
      <point x="48.31726712540376" y="297.69202920974635"/>
      <point x="103.90737656741618" y="-20.120835569094631"/>
      <point x="388.06692876569622" y="-19.855612064103074" type="curve" smooth="yes"/>
      <point x="668.63180564987488" y="-19.593743689631456"/>
      <point x="814.70053581361378" y="281.78862255525377"/>
      <point x="853.05270723349281" y="519.96314098116841" type="curve" smooth="yes"/>
      <point x="859.43345735019238" y="561.97875073075954" type="line" smooth="yes"/>
      <point x="891.09834661309014" y="784.34972955123362"/>
      <point x="836.87372330095241" y="1102.1609622348055"/>
      <point x="552.27993542083607" y="1101.8545129980323" type="curve" smooth="yes"/>
      <point x="272.03911820174591" y="1101.5527510193567"/>
      <point x="124.68252892100841" y="800.13710353342162"/>
      <point x="86.323241239772003" y="562.03735219574764" type="curve" smooth="yes"/>
    </contour>
    <contour>
      <point x="132.10377408333784" y="562.0063763582956" type="line" smooth="yes"/>
      <point x="168.04904315002793" y="771.18766082640275"/>
      <point x="305.65941780066237" y="1047.9451927494151"/>
      <point x="552.83553580158548" y="1047.7647139215392" type="curve" smooth="yes"/>
      <point x="801.91328569509551" y="1047.5828465926309"/>
      <point x="842.87847315316299" y="751.9625532454271"/>
      <point x="814.08992417981699" y="561.97209432250338" type="curve" smooth="yes"/>
      <point x="807.29263903186256" y="519.98700418951682" type="line" smooth="yes"/>
      <point x="771.12671533010928" y="309.77248671087875"/>
      <point x="636.01914161889954" y="34.3769146791739"/>
      <point x="387.50605326846977" y="34.241172762527164" type="curve" smooth="yes"/>
      <point x="136.07699935709263" y="34.10383809776102"/>
      <point x="96.161644712092212" y="328.03704209046589"/>
      <point x="125.30447971476785" y="520.02240670858964" type="curve" smooth="yes"/>
    </contour>
  </outline>
</glyph>
<glyph name="p" format="1">
  <advance width="952.54"/>
  <unicode hex="0070"/>
  <outline>
    <contour>
      <point x="612.19180319112729" y="1280" type="move" name="top"/>
    </contour>
    <contour>
      <point x="4.4884620390216696" y="-407" type="move" name="bottom"/>
    </contour>
    <contour>
      <point x="612.19180319112729" y="1280" type="move" name="marktop"/>
    </contour>
    <contour>
      <point x="1105.9220635163638" y="1600" type="move" name="top_dd"/>
    </contour>
    <contour>
      <point x="759.14846203902164" y="-407" type="move" name="bottom_dd"/>
    </contour>
    <contour>
      <point x="1050.6318031911273" y="1280" type="move" name="top0315"/>
    </contour>
    <contour>
      <point x="400.30954865227909" y="-19.851419513688963" type="curve" smooth="yes"/>
      <point x="672.01700644322102" y="-19.046804832108283"/>
      <point x="784.35225622720338" y="313.7668369629115"/>
      <point x="822.57304446893545" y="530.97492020606683" type="curve" smooth="yes"/>
      <point x="826.10809475329211" y="551.98107060049551" type="line" smooth="yes"/>
      <point x="857.7380918771446" y="747.84391306041152"/>
      <point x="864.48912741458116" y="1102.7767617182813"/>
      <point x="582.79284935071803" y="1101.8171532437964" type="curve" smooth="yes"/>
      <point x="435.14004152586125" y="1101.314168658256"/>
      <point x="325.47312969026063" y="1006.0164884456869"/>
      <point x="248.55569486945626" y="888.45845704683177" type="curve"/>
      <point x="286.08709976373677" y="1081.7398930665317" type="line"/>
      <point x="240.87606044887508" y="1081.6181958270372" type="line"/>
      <point x="-18.01540943878463" y="-415.67544074612016" type="line"/>
      <point x="27.030648841862259" y="-415.67407004788561" type="line"/>
      <point x="130.08834606052017" y="168.75494636079836" type="line"/>
      <point x="173.6902456353385" y="50.219025050012533"/>
      <point x="272.80007192678249" y="-20.229016793675825"/>
    </contour>
    <contour>
      <point x="584.34948132066734" y="1047.7082312953921" type="curve" smooth="yes"/>
      <point x="831.7340509332563" y="1047.7300876119484"/>
      <point x="807.59458999900698" y="716.62056562079852"/>
      <point x="779.62649100657359" y="551.98998121440263" type="curve" smooth="yes"/>
      <point x="775.93570606256139" y="530.98365312429655" type="line" smooth="yes"/>
      <point x="740.50198173888293" y="338.10616482234877"/>
      <point x="644.37010755239794" y="34.698348738105878"/>
      <point x="400.70312648070052" y="34.235660841454099" type="curve" smooth="yes"/>
      <point x="253.61798934030784" y="33.956367715923058"/>
      <point x="165.83380173962163" y="130.29455633979359"/>
      <point x="144.26424443334002" y="269.41519782277726" type="curve"/>
      <point x="234.02691198049217" y="775.33688354695596" type="line"/>
      <point x="281.15406952381187" y="921.49306187728018"/>
      <point x="429.48210982630269" y="1047.6945488320885"/>
    </contour>
  </outline>
</glyph>
<glyph name="q" format="1">
  <advance width="952.54"/>
  <unicode hex="0071"/>
  <outline>
    <contour>
      <point x="576.08962382629102" y="1290" type="move" name="top"/>
    </contour>
    <contour>
      <point x="600.0684620390216" y="-407" type="move" name="bottom"/>
    </contour>
    <contour>
      <point x="576.08962382629102" y="1290" type="move" name="marktop"/>
    </contour>
    <contour>
      <point x="1105.9220635163638" y="1600" type="move" name="top_dd"/>
    </contour>
    <contour>
      <point x="759.14846203902164" y="-407" type="move" name="bottom_dd"/>
    </contour>
    <contour>
      <point x="1052.359623826291" y="1290" type="move" name="top0315"/>
    </contour>
    <contour>
      <point x="878.60897787587476" y="1081.6722140766303" type="line"/>
      <point x="832.66719230568856" y="1081.7584883835486" type="line"/>
      <point x="797.34660363805563" y="889.98538140560504" type="line"/>
      <point x="759.58127242997227" y="1015.7580728549917"/>
      <point x="669.77049794316599" y="1101.8877209385917"/>
      <point x="533.31257131519294" y="1101.8554899218807" type="curve" smooth="yes"/>
      <point x="258.24002099317022" y="1101.7905184820734"/>
      <point x="148.01298286449068" y="772.21539734118016"/>
      <point x="109.29769366967041" y="552.02351010241273" type="curve" smooth="yes"/>
      <point x="105.76240757763166" y="531.01730368934068" type="line" smooth="yes"/>
      <point x="74.580216297440046" y="337.7076270802429"/>
      <point x="69.457953850648607" y="-19.943780005531892"/>
      <point x="347.93052523134878" y="-19.83500833417596" type="curve" smooth="yes"/>
      <point x="486.75489654817363" y="-19.780783392673825"/>
      <point x="599.44228506584523" y="59.11876984536984"/>
      <point x="678.36346345430115" y="167.92209436708467" type="curve"/>
      <point x="573.67255857295129" y="-415.67373573090015" type="line"/>
      <point x="619.69918350497289" y="-415.6720190333408" type="line"/>
    </contour>
    <contour>
      <point x="154.18216356416286" y="531.00825135821026" type="curve" smooth="yes"/>
      <point x="157.87114119611994" y="552.01447115899896" type="line" smooth="yes"/>
      <point x="193.20357078053729" y="744.54809395493203"/>
      <point x="288.85979125645224" y="1048.5519234440167"/>
      <point x="532.90228945232832" y="1047.7272709498882" type="curve" smooth="yes"/>
      <point x="675.36741953594469" y="1047.2458620734903"/>
      <point x="786.0505466209986" y="920.37348924399316"/>
      <point x="781.15563403207307" y="777.51031523137544" type="curve"/>
      <point x="690.62711936988012" y="266.80283983950488" type="line"/>
      <point x="619.30441013793984" y="135.78159482544248"/>
      <point x="502.87389606175958" y="33.661979063156195"/>
      <point x="346.38464547719155" y="34.278487746233061" type="curve" smooth="yes"/>
      <point x="99.524213861899682" y="35.251024831243157"/>
      <point x="126.31674990985672" y="367.06485520834406"/>
    </contour>
  </outline>
</glyph>
<glyph name="r" format="1">
  <advance width="596.55"/>
  <unicode hex="0072"/>
  <outline>
    <contour>
      <point x="475.20962382629102" y="1290" type="move" name="top"/>
    </contour>
    <contour>
      <point x="81.003621096992632" y="19" type="move" name="bottom"/>
    </contour>
    <contour>
      <point x="749.93206351636377" y="1600" type="move" name="top_dd"/>
    </contour>
    <contour>
      <point x="403.15846203902169" y="-407" type="move" name="bottom_dd"/>
    </contour>
    <contour>
      <point x="696.36962382629099" y="1290" type="move" name="top0315"/>
    </contour>
    <contour>
      <point x="572.36212521606001" y="1049.1323325480087" type="curve" smooth="yes"/>
      <point x="590.69275782339605" y="1049.0808590196523"/>
      <point x="608.72843590854006" y="1046.280318023689"/>
      <point x="626.77969998453432" y="1043.5035655952017" type="curve"/>
      <point x="639.0975529074293" y="1090.334260623064" type="line"/>
      <point x="617.5652491259716" y="1096.7191954630223"/>
      <point x="597.42642626636632" y="1101.2814737629678"/>
      <point x="574.73726251889991" y="1101.735417816582" type="curve" smooth="yes"/>
      <point x="418.66811165764648" y="1104.8579067621693"/>
      <point x="312.38443384619603" y="984.07962206579873"/>
      <point x="245.24094461859278" y="857.32257111093634" type="curve"/>
      <point x="288.1315917780671" y="1081.6954785207092" type="line"/>
      <point x="241.94245417634346" y="1081.6104825522348" type="line"/>
      <point x="55.041149248171067" y="0.0" type="line"/>
      <point x="101.05962700280874" y="0.0" type="line"/>
      <point x="223.90607224830296" y="707.21094263225848" type="line"/>
      <point x="264.57352232503456" y="863.25495307383198"/>
      <point x="394.22990625718865" y="1049.6325386249166"/>
    </contour>
  </outline>
</glyph>
<glyph name="s" format="1">
  <advance width="869.12"/>
  <unicode hex="0073"/>
  <outline>
    <contour>
      <point x="544.00222716291705" y="1290" type="move" name="top"/>
    </contour>
    <contour>
      <point x="342.24080082092053" y="-5" type="move" name="bottom"/>
    </contour>
    <contour>
      <point x="1005.5203292216189" y="1600" type="move" name="top_dd"/>
    </contour>
    <contour>
      <point x="692.82906847382981" y="-407" type="move" name="bottom_dd"/>
    </contour>
    <contour>
      <point x="957.22222716291719" y="1290" type="move" name="top0315"/>
    </contour>
    <contour>
      <point x="650.4077418411697" y="264.95324733125972" type="curve" smooth="yes"/>
      <point x="623.75496651762296" y="121.66251679129476"/>
      <point x="483.13718149800673" y="35.682635455711889"/>
      <point x="344.75372029885659" y="34.288018031884377" type="curve" smooth="yes"/>
      <point x="192.36961939524664" y="32.752303283944762"/>
      <point x="90.784473780142832" y="118.87495478269739"/>
      <point x="100.73990964368518" y="274.81160051208479" type="curve"/>
      <point x="56.028464303016378" y="274.97030643332943" type="line"/>
      <point x="36.878999488034054" y="92.350485451035041"/>
      <point x="167.95227899809836" y="-20.03014542881786"/>
      <point x="345.38769194917342" y="-19.781427435875507" type="curve" smooth="yes"/>
      <point x="517.33210417777752" y="-19.540406388296113"/>
      <point x="669.67293240664276" y="88.660960800858476"/>
      <point x="695.76897646228997" y="263.83141802034567" type="curve" smooth="yes"/>
      <point x="723.05110835189703" y="446.96352443593992"/>
      <point x="597.69596186185117" y="529.21025513883751"/>
      <point x="440.11700772467725" y="579.02902369840535" type="curve" smooth="yes"/>
      <point x="311.66452099134949" y="619.63942590921033"/>
      <point x="187.30532363236657" y="676.4093032578653"/>
      <point x="216.5068730973652" y="831.02040368620135" type="curve" smooth="yes"/>
      <point x="242.46518108001041" y="968.45977371911692"/>
      <point x="371.73436255762613" y="1047.4350438160902"/>
      <point x="505.34319662319672" y="1047.6136870294674" type="curve" smooth="yes"/>
      <point x="656.83329726703982" y="1047.8162385939886"/>
      <point x="749.83642341336395" y="941.59290293640936"/>
      <point x="731.51938808177817" y="793.24142895590717" type="curve"/>
      <point x="777.27519655834112" y="793.08916481021231" type="line"/>
      <point x="797.5078913822897" y="974.54386358179863"/>
      <point x="691.46310501856146" y="1102.3890193027255"/>
      <point x="504.76772078756392" y="1101.768172333316" type="curve" smooth="yes"/>
      <point x="342.2254879942484" y="1101.2276455653594"/>
      <point x="195.22818304577845" y="994.47446322290125"/>
      <point x="170.63143333095502" y="829.1815449872712" type="curve" smooth="yes"/>
      <point x="143.42639466775216" y="646.3606323264446"/>
      <point x="274.82512568154289" y="578.30316381665432"/>
      <point x="428.14628600341825" y="531.94787179887248" type="curve" smooth="yes"/>
      <point x="554.76654846318797" y="493.66535926525609"/>
      <point x="678.20770400635081" y="414.41148720592423"/>
    </contour>
  </outline>
</glyph>
<glyph name="t" format="1">
  <advance width="566.48"/>
  <unicode hex="0074"/>
  <outline>
    <contour>
      <point x="252.32076189018176" y="0" type="move" name="bottom"/>
    </contour>
    <contour>
      <point x="575.21078097570921" y="1560" type="move" name="caron"/>
    </contour>
    <contour>
      <point x="307.01414174746549" y="659" type="move" name="cross"/>
    </contour>
    <contour>
      <point x="398.12513970538191" y="1540" type="move" name="top"/>
    </contour>
    <contour>
      <point x="550.86962382629099" y="1290" type="move" name="marktop"/>
    </contour>
    <contour>
      <point x="719.86206351636383" y="1600" type="move" name="top_dd"/>
    </contour>
    <contour>
      <point x="373.08846203902175" y="-407" type="move" name="bottom_dd"/>
    </contour>
    <contour>
      <point x="709.49513970538192" y="1540" type="move" name="top0315"/>
    </contour>
    <contour>
      <point x="381.0574885667005" y="-8.2600514060912769" type="curve"/>
      <point x="381.29340675838068" y="42.986861902092443" type="line"/>
      <point x="350.87986949491864" y="38.675810599162766"/>
      <point x="320.27403958711454" y="34.044517269205009"/>
      <point x="289.45698211124477" y="34.479356428569673" type="curve" smooth="yes"/>
      <point x="168.22420125690502" y="36.18999218785396"/>
      <point x="185.26114237705207" y="172.92153187185664"/>
      <point x="199.52211771296652" y="258.87547876804308" type="curve" smooth="yes"/>
      <point x="333.10165195934422" y="1026.927749796145" type="line"/>
      <point x="534.83270224628689" y="1027.2579998271294" type="line"/>
      <point x="542.24630463964411" y="1081.7458832431232" type="line"/>
      <point x="342.79504797211257" y="1082.0772418044883" type="line"/>
      <point x="392.85575765279447" y="1373.6605828725112" type="line"/>
      <point x="346.82766476917465" y="1373.6601147772346" type="line"/>
      <point x="296.47342817432661" y="1082.0822206731939" type="line"/>
      <point x="132.40588062787606" y="1081.7476019564238" type="line"/>
      <point x="125.06597205688449" y="1027.2592580677338" type="line"/>
      <point x="286.29150549588957" y="1026.9525900695189" type="line"/>
      <point x="154.1401295600802" y="259.03434905824378" type="line" smooth="yes"/>
      <point x="135.0909077493472" y="137.60238583991219"/>
      <point x="130.97408584937514" y="-19.176024499244242"/>
      <point x="290.6002204201281" y="-19.960261061660088" type="curve" smooth="yes"/>
      <point x="321.54644112224219" y="-20.112298557327382"/>
      <point x="351.17867972666266" y="-15.834737077755339"/>
    </contour>
  </outline>
</glyph>
<glyph name="u" format="1">
  <advance width="952.54"/>
  <unicode hex="0075"/>
  <outline>
    <contour>
      <point x="611.52797001684007" y="1293" type="move" name="top"/>
    </contour>
    <contour>
      <point x="690.7607618901817" y="0" type="move" name="ogonek"/>
    </contour>
    <contour>
      <point x="334.77076189018175" y="0" type="move" name="bottomu"/>
    </contour>
    <contour>
      <point x="1105.9220635163638" y="1600" type="move" name="top_dd"/>
    </contour>
    <contour>
      <point x="759.14846203902164" y="-407" type="move" name="bottom_dd"/>
    </contour>
    <contour>
      <point x="781.45023142988362" y="654" type="move" name="rhotichook"/>
    </contour>
    <contour>
      <point x="1052.8779700168402" y="1293" type="move" name="top0315"/>
    </contour>
    <contour>
      <point x="371.63076189018176" y="0" type="move" name="bottom"/>
    </contour>
    <contour>
      <point x="645.69773008331526" y="0.0" type="line"/>
      <point x="692.85051892400202" y="0.0" type="line"/>
      <point x="879.56062110037908" y="1081.6766616931386" type="line"/>
      <point x="832.5741356551689" y="1081.6740005677791" type="line"/>
      <point x="699.86709840595927" y="318.35305623739549" type="line"/>
      <point x="655.55502636900042" y="155.11456819043019"/>
      <point x="511.53196611263252" y="34.237085376698261"/>
      <point x="341.54045085935934" y="34.288935041735861" type="curve" smooth="yes"/>
      <point x="141.85930570747686" y="34.349840437367071"/>
      <point x="139.85844666808174" y="243.41327134496993"/>
      <point x="164.98879461758742" y="392.97829046611776" type="curve" smooth="yes"/>
      <point x="283.98474796254749" y="1081.6744459994754" type="line"/>
      <point x="238.93415815439425" y="1081.6729497689455" type="line"/>
      <point x="120.2706956404394" y="394.99827049282203" type="line" smooth="yes"/>
      <point x="90.788858125082641" y="211.5273123729618"/>
      <point x="108.60649303970163" y="-20.465748919492249"/>
      <point x="344.048284735295" y="-19.835994547278776" type="curve" smooth="yes"/>
      <point x="489.28864795792549" y="-19.447508913090342"/>
      <point x="602.26167355786049" y="55.248082922761967"/>
      <point x="679.87271558775524" y="174.18875046631018" type="curve"/>
    </contour>
  </outline>
</glyph>
<glyph name="v" format="1">
  <advance width="836.14"/>
  <unicode hex="0076"/>
  <outline>
    <contour>
      <point x="527.89422387070078" y="1280" type="move" name="top"/>
    </contour>
    <contour>
      <point x="326.14780575924482" y="10" type="move" name="bottom"/>
    </contour>
    <contour>
      <point x="972.54032922161889" y="1600" type="move" name="top_dd"/>
    </contour>
    <contour>
      <point x="659.84906847382979" y="-407" type="move" name="bottom_dd"/>
    </contour>
    <contour>
      <point x="922.68422387070086" y="1280" type="move" name="top0315"/>
    </contour>
    <contour>
      <point x="859.13382083409419" y="1080.8524191698211" type="line"/>
      <point x="809.12090897190228" y="1080.9503744365827" type="line"/>
      <point x="336.86812287874551" y="89.336341041045159" type="line"/>
      <point x="176.65289486788805" y="1082.5536400958804" type="line"/>
      <point x="128.87599697379943" y="1082.6224208401675" type="line"/>
      <point x="304.38891932241677" y="0.0" type="line"/>
      <point x="348.26374574878037" y="0.0" type="line"/>
    </contour>
  </outline>
</glyph>
<glyph name="w" format="1">
  <advance width="1301.74"/>
  <unicode hex="0077"/>
  <outline>
    <contour>
      <point x="763.81797001684004" y="1293" type="move" name="top"/>
    </contour>
    <contour>
      <point x="544.07858252534538" y="10" type="move" name="bottom"/>
    </contour>
    <contour>
      <point x="763.81797001684004" y="1293" type="move" name="marktop"/>
    </contour>
    <contour>
      <point x="1455.1220635163636" y="1600" type="move" name="top_dd"/>
    </contour>
    <contour>
      <point x="1108.3484620390216" y="-407" type="move" name="bottom_dd"/>
    </contour>
    <contour>
      <point x="1402.07797001684" y="1293" type="move" name="top0315"/>
    </contour>
    <contour>
      <point x="1289.9003885955331" y="1081.0749517984789" type="line"/>
      <point x="1236.0690304490938" y="1081.1621081949274" type="line"/>
      <point x="925.28816368904995" y="317.4933560521028" type="line"/>
      <point x="834.88729104393224" y="84.463976024574507" type="line"/>
      <point x="816.53932577089415" y="313.0232659854467" type="line"/>
      <point x="751.13427231367461" y="1082.0171795109716" type="line"/>
      <point x="705.26816891752981" y="1081.5591700470231" type="line"/>
      <point x="374.31570547360064" y="312.93428405534951" type="line"/>
      <point x="275.38947715981948" y="85.442896462216879" type="line"/>
      <point x="267.95241203682605" y="308.04596949365634" type="line"/>
      <point x="220.7032817947283" y="1082.3388711770147" type="line"/>
      <point x="169.87733640420771" y="1082.3978492275148" type="line"/>
      <point x="239.64857815151868" y="0.0" type="line"/>
      <point x="285.56995706879712" y="0.0" type="line"/>
      <point x="638.72546810338133" y="808.62919228874659" type="line"/>
      <point x="717.74898250573278" y="1001.5976532802633" type="line"/>
      <point x="724.68072240480501" y="817.89353161503902" type="line"/>
      <point x="802.34293268176111" y="0.0" type="line"/>
      <point x="847.18976420519539" y="0.0" type="line"/>
    </contour>
  </outline>
</glyph>
<glyph name="x" format="1">
  <advance width="836.14"/>
  <unicode hex="0078"/>
  <outline>
    <contour>
      <point x="346.51780575924482" y="10" type="move" name="bottom"/>
    </contour>
    <contour>
      <point x="651.47980246702866" y="0" type="move" name="right"/>
    </contour>
    <contour>
      <point x="418.50738452658391" y="553" type="move" name="cross"/>
    </contour>
    <contour>
      <point x="538.56422387070086" y="1280" type="move" name="top"/>
    </contour>
    <contour>
      <point x="972.54032922161889" y="1600" type="move" name="top_dd"/>
    </contour>
    <contour>
      <point x="659.84906847382979" y="-407" type="move" name="bottom_dd"/>
    </contour>
    <contour>
      <point x="922.68422387070086" y="1280" type="move" name="top0315"/>
    </contour>
    <contour>
      <point x="209.25715148310314" y="1082.6985788941986" type="line"/>
      <point x="154.64862459405913" y="1082.9778095476979" type="line"/>
      <point x="383.34435882587661" y="558.82004856244941" type="line"/>
      <point x="-30.108070853557059" y="0.0" type="line"/>
      <point x="27.517333080013742" y="0.0" type="line"/>
      <point x="405.38797472565875" y="506.46169357738216" type="line"/>
      <point x="624.39050280563379" y="0.0" type="line"/>
      <point x="678.02818936744939" y="0.0" type="line"/>
      <point x="437.21727116509828" y="551.17897143075913" type="line"/>
      <point x="830.77237274491642" y="1080.5893912353035" type="line"/>
      <point x="772.17581199976553" y="1080.8743099538201" type="line"/>
      <point x="416.14256386641466" y="603.53512219849915" type="line"/>
    </contour>
  </outline>
</glyph>
<glyph name="y" format="1">
  <advance width="836.14"/>
  <unicode hex="0079"/>
  <outline>
    <contour>
      <point x="562.05797001684004" y="1293" type="move" name="top"/>
    </contour>
    <contour>
      <point x="472.37119585459629" y="-158" type="move" name="bottom"/>
    </contour>
    <contour>
      <point x="562.05797001684004" y="1293" type="move" name="marktop"/>
    </contour>
    <contour>
      <point x="989.52206351636369" y="1600" type="move" name="top_dd"/>
    </contour>
    <contour>
      <point x="642.74846203902166" y="-407" type="move" name="bottom_dd"/>
    </contour>
    <contour>
      <point x="638.86023142988358" y="654" type="move" name="rhotichook"/>
    </contour>
    <contour>
      <point x="936.47797001684012" y="1293" type="move" name="top0315"/>
    </contour>
    <contour>
      <point x="264.51139180014684" y="-180.15313323391703" type="curve" smooth="yes"/>
      <point x="872.85618315781744" y="1080.9140221367534" type="line"/>
      <point x="821.65323365560334" y="1081.0369816666475" type="line"/>
      <point x="346.42313083169927" y="104.57482005742931" type="line"/>
      <point x="336.7102264633815" y="84.333039025762346" type="line"/>
      <point x="185.40660875093141" y="1082.5208544920476" type="line"/>
      <point x="136.90878875078175" y="1082.632522744894" type="line"/>
      <point x="303.0883804781713" y="10.730673440089964" type="line"/>
      <point x="217.37110059857741" y="-169.88636453139432" type="line" smooth="yes"/>
      <point x="171.71162771818149" y="-263.85875129516"/>
      <point x="104.69254345335274" y="-385.1357903757642"/>
      <point x="-15.730681084473247" y="-384.02704811575387" type="curve" smooth="yes"/>
      <point x="-34.954053260021695" y="-383.85005762913687"/>
      <point x="-53.966471671826788" y="-379.08923580499481"/>
      <point x="-72.657605720530043" y="-375.21665210722375" type="curve"/>
      <point x="-78.7212143317807" y="-425.77704786463335" type="line"/>
      <point x="-56.162129219176393" y="-431.49277174538446"/>
      <point x="-34.480602856667062" y="-436.71788569260877"/>
      <point x="-10.985896713879995" y="-436.68278439336183" type="curve" smooth="yes"/>
      <point x="137.53812417647094" y="-436.46088818955542"/>
      <point x="209.05143008702308" y="-296.20551271833847"/>
    </contour>
  </outline>
</glyph>
<glyph name="z" format="1">
  <advance width="836.14"/>
  <unicode hex="007A"/>
  <outline>
    <contour>
      <point x="554.29797001684005" y="1293" type="move" name="top"/>
    </contour>
    <contour>
      <point x="356.8685825253454" y="10" type="move" name="bottom"/>
    </contour>
    <contour>
      <point x="989.52206351636369" y="1600" type="move" name="top_dd"/>
    </contour>
    <contour>
      <point x="642.74846203902166" y="-407" type="move" name="bottom_dd"/>
    </contour>
    <contour>
      <point x="936.47797001684012" y="1293" type="move" name="top0315"/>
    </contour>
    <contour>
      <point x="189.96870954537405" y="1027.2660346452799" type="line"/>
      <point x="740.94343382631178" y="1026.6492750399696" type="line"/>
      <point x="-6.3402998597044444" y="44.191444986561578" type="line"/>
      <point x="-12.933025709990133" y="0.0" type="line"/>
      <point x="675.00105813367168" y="0.0" type="line"/>
      <point x="682.37380683691401" y="53.739386162635299" type="line"/>
      <point x="59.103274530937497" y="54.351776019575347" type="line"/>
      <point x="805.42562934374939" y="1033.8078544818759" type="line"/>
      <point x="812.72118486680847" y="1081.3905798917351" type="line"/>
      <point x="197.52412814390738" y="1081.753694894282" type="line"/>
    </contour>
  </outline>
</glyph>
<glyph name="braceleft" format="1">
  <advance width="576.18"/>
  <unicode hex="007B"/>
  <outline>
    <contour>
      <point x="229.69889393551" y="265.0683204767318" type="curve" smooth="yes"/>
      <point x="191.06774691439102" y="20.014785912357663" type="line" smooth="yes"/>
      <point x="163.44205233234933" y="-168.24499226076631"/>
      <point x="192.21708503782622" y="-355.80320294976639"/>
      <point x="382.34312900272516" y="-439.9769513889924" type="curve"/>
      <point x="404.94201986162773" y="-396.02434116885388" type="line"/>
      <point x="237.61308213449962" y="-316.60605878686277"/>
      <point x="211.65151481871109" y="-149.11860504914242"/>
      <point x="237.27065305554203" y="19.998710760593742" type="curve" smooth="yes"/>
      <point x="275.51195299468532" y="264.98279584311518" type="line" smooth="yes"/>
      <point x="292.42880335829466" y="385.38783547313869"/>
      <point x="280.532877317854" y="525.68750403566582"/>
      <point x="151.48088479668826" y="574.92797608274941" type="curve"/>
      <point x="291.05707934954" y="621.85107349120005"/>
      <point x="350.48245020043834" y="746.82380045871696"/>
      <point x="372.96070053595929" y="884.88560452662978" type="curve" smooth="yes"/>
      <point x="411.23459003981276" y="1131.9821121413177" type="line" smooth="yes"/>
      <point x="441.48933137674561" y="1312.8551453322937"/>
      <point x="527.45429038902421" y="1478.6908889718045"/>
      <point x="704.22797880472262" y="1550.7200474198082" type="curve"/>
      <point x="697.49194978448884" y="1596.8780511823109" type="line"/>
      <point x="491.77501899461834" y="1517.9216548614568"/>
      <point x="397.77461995405741" y="1341.3822993042668"/>
      <point x="364.38031253942751" y="1132.0557124990635" type="curve" smooth="yes"/>
      <point x="325.80949346488956" y="885.06168668980024" type="line" smooth="yes"/>
      <point x="301.14645066549684" y="743.11080044292703"/>
      <point x="234.84504521944916" y="619.13285073443092"/>
      <point x="78.584210137389121" y="608.59457685681195" type="curve"/>
      <point x="69.7413686456958" y="543.04283461704392" type="line"/>
      <point x="229.95707947384511" y="532.24356074805007"/>
      <point x="250.33741482751924" y="402.84933417748829"/>
    </contour>
  </outline>
</glyph>
<glyph name="braceright" format="1">
  <advance width="576.18"/>
  <unicode hex="007D"/>
  <outline>
    <contour>
      <point x="340.04465143394413" y="884.9307348915512" type="curve" smooth="yes"/>
      <point x="379.0020441270317" y="1131.9839245936398" type="line" smooth="yes"/>
      <point x="406.70491996232084" y="1320.5865451667355"/>
      <point x="379.60542162185402" y="1511.3008877174414"/>
      <point x="188.55604079880419" y="1596.1005542719868" type="curve"/>
      <point x="170.77092332359609" y="1552.7989649859201" type="line"/>
      <point x="340.34728241903599" y="1475.7947146612203"/>
      <point x="359.05614505387757" y="1298.7557374558553"/>
      <point x="333.75111889089885" y="1132.0004535454109" type="curve" smooth="yes"/>
      <point x="295.21632568470636" y="885.01585641596591" type="line" smooth="yes"/>
      <point x="278.36585203759978" y="765.0739253613109"/>
      <point x="290.24525435085053" y="625.62965730269639"/>
      <point x="418.98723557996004" y="576.94210953849392" type="curve"/>
      <point x="279.54747406768371" y="529.35540028713694"/>
      <point x="220.24658796122569" y="403.17556877962892"/>
      <point x="197.76842042258556" y="265.11246297046017" type="curve" smooth="yes"/>
      <point x="159.79283728192229" y="20.018278574438508" type="line" smooth="yes"/>
      <point x="129.21787981681882" y="-161.86737125726759"/>
      <point x="38.444996633289804" y="-319.58672451408148"/>
      <point x="-136.2904831578964" y="-393.56717354826662" type="curve"/>
      <point x="-126.63463913297196" y="-440.97213253652194" type="line"/>
      <point x="78.710212723943044" y="-362.38805475878928"/>
      <point x="172.3364386541258" y="-189.22452321049292"/>
      <point x="205.68508452394741" y="19.943880310191297" type="curve" smooth="yes"/>
      <point x="243.9446253513097" y="264.9376524766318" type="line" smooth="yes"/>
      <point x="268.60441365999191" y="406.77758324252341"/>
      <point x="335.0130147460327" y="532.70528838370376"/>
      <point x="491.48070846001747" y="543.40242187530112" type="curve"/>
      <point x="500.32160836508172" y="608.9536624196586" type="line"/>
      <point x="341.17877149402665" y="619.6537757929467"/>
      <point x="319.49839276845432" y="747.56189220976057"/>
    </contour>
  </outline>
</glyph>
<glyph name="asciitilde" format="1">
  <advance width="1189.22"/>
  <unicode hex="007E"/>
  <outline>
    <contour>
      <point x="1012.8600061170097" y="752.43426825657605" type="line"/>
      <point x="989.39538233012422" y="638.28748374835402"/>
      <point x="932.98816688106103" y="497.42427108184177"/>
      <point x="795.17104709162209" y="496.40966800389759" type="curve" smooth="yes"/>
      <point x="710.61826741554819" y="495.7871944633161"/>
      <point x="661.02536600681174" y="562.69060201507125"/>
      <point x="614.4091821747819" y="623.82581258431696" type="curve" smooth="yes"/>
      <point x="557.66938556263187" y="698.23772553795868"/>
      <point x="493.15185483873427" y="774.6243285221891"/>
      <point x="391.57495296796355" y="773.81358026990551" type="curve" smooth="yes"/>
      <point x="224.27733158248324" y="772.47827419488817"/>
      <point x="152.02234700197354" y="603.42881742211034"/>
      <point x="127.13154104160817" y="462.70043560740288" type="curve"/>
      <point x="174.20245667726601" y="462.57251558540645" type="line"/>
      <point x="197.95396788028643" y="578.13912450635189"/>
      <point x="252.28764210964241" y="718.97752731105413"/>
      <point x="392.0977374264898" y="719.5954376838921" type="curve" smooth="yes"/>
      <point x="477.33386587337452" y="719.9721507373273"/>
      <point x="526.60679658626054" y="655.21600167841018"/>
      <point x="573.99760999232262" y="593.16828556089615" type="curve" smooth="yes"/>
      <point x="631.36358640957098" y="518.06031497083836"/>
      <point x="692.88454216773687" y="442.04787859880025"/>
      <point x="795.86506476271109" y="443.18897390389293" type="curve" smooth="yes"/>
      <point x="959.53034526121655" y="445.00249823332405"/>
      <point x="1035.1143828675997" y="613.04622915384357"/>
      <point x="1059.8518108729349" y="751.30531450678325" type="curve"/>
    </contour>
  </outline>
</glyph>
<glyph name="exclamdown" format="1">
  <advance width="369.57"/>
  <unicode hex="00A1"/>
  <outline>
    <contour>
      <point x="304.69294323635847" y="1046.28010515651" type="curve" smooth="yes"/>
      <point x="308.38326262716043" y="1069.8553117154479"/>
      <point x="293.23696850672923" y="1101.815338777152"/>
      <point x="266.09013060321644" y="1102.6320166486416" type="curve" smooth="yes"/>
      <point x="241.50780033490076" y="1103.3715445903908"/>
      <point x="215.45307912003386" y="1071.6163852671068"/>
      <point x="211.93541934875702" y="1049.716707474804" type="curve" smooth="yes"/>
      <point x="208.18253422005083" y="1026.3526016618196"/>
      <point x="223.10715662753816" y="993.23010743717634"/>
      <point x="250.35398909713069" y="992.36715742303329" type="curve" smooth="yes"/>
      <point x="274.98841852058916" y="991.58694631984895"/>
      <point x="301.28550852163818" y="1024.5120767750509"/>
    </contour>
    <contour>
      <point x="-1.3324994352071258" y="-358.67933476610062" type="line"/>
      <point x="44.686981184863143" y="-358.67737624395983" type="line"/>
      <point x="226.79989658642933" y="695.67933476610028" type="line"/>
      <point x="180.78041596635921" y="695.67737624395943" type="line"/>
    </contour>
  </outline>
</glyph>
<glyph name="cent" format="1">
  <advance width="942.8399999999999"/>
  <unicode hex="00A2"/>
  <outline>
    <contour>
      <point x="769.89006512657079" y="326.99707930418776" type="curve"/>
      <point x="723.50995293515621" y="327.13236530310604" type="line"/>
      <point x="678.30026959056852" y="168.39692911968007"/>
      <point x="562.5757888915432" y="33.83614710070227"/>
      <point x="386.12019624554989" y="34.284379701292259" type="curve" smooth="yes"/>
      <point x="130.8062900829793" y="34.932928236422164"/>
      <point x="128.53867311208248" y="335.80545850060804"/>
      <point x="159.93743430028405" y="520.0205746187595" type="curve" smooth="yes"/>
      <point x="167.42862522214261" y="562.0040085563395" type="line" smooth="yes"/>
      <point x="205.86494955849361" y="768.5548596726436"/>
      <point x="319.14404390164367" y="1047.9481595230741"/>
      <point x="569.79912074019546" y="1047.7613388462546" type="curve" smooth="yes"/>
      <point x="752.969158776104" y="1047.6248167741285"/>
      <point x="811.17337779432808" y="882.41343638013427"/>
      <point x="792.76805820773234" y="725.22305314559947" type="curve"/>
      <point x="838.48310154800367" y="725.08368927575623" type="line"/>
      <point x="857.0656253680163" y="903.33755018821216"/>
      <point x="794.06437783388378" y="1078.135742539735"/>
      <point x="596.39481805785579" y="1100.6771810688922" type="curve"/>
      <point x="636.3660919180694" y="1317.6499731237097" type="line"/>
      <point x="590.32292550775264" y="1317.641436060072" type="line"/>
      <point x="550.38736385347454" y="1101.2547529280887" type="line"/>
      <point x="282.25828452949344" y="1074.7687548171143"/>
      <point x="163.0022410428096" y="795.93637542182137"/>
      <point x="121.65738806306722" y="562.0344142232143" type="curve" smooth="yes"/>
      <point x="114.55764097511651" y="520.01621560885394" type="line" smooth="yes"/>
      <point x="81.215135472225441" y="312.79383968117617"/>
      <point x="96.664186998794037" y="9.3365249796385612"/>
      <point x="361.41697455861373" y="-18.840823666855663" type="curve"/>
      <point x="319.95058814561924" y="-244.66532576262222" type="line"/>
      <point x="365.99097504877221" y="-244.65667834051686" type="line"/>
      <point x="407.43524061297751" y="-19.107313101389501" type="line"/>
      <point x="600.90375555564617" y="1.0769115738458588"/>
      <point x="725.29202311518043" y="144.44275468087568"/>
    </contour>
  </outline>
</glyph>
<glyph name="sterling" format="1">
  <advance width="975.8199999999999"/>
  <unicode hex="00A3"/>
  <outline>
    <contour>
      <point x="-3.4246738453875167" y="0.0" type="line"/>
      <point x="781.66174798082056" y="0.0" type="line"/>
      <point x="788.06679511158939" y="53.796557441321944" type="line"/>
      <point x="171.05461466492164" y="53.23415712530435" type="line"/>
      <point x="236.92560587757197" y="133.17950074790036"/>
      <point x="261.33780887292062" y="235.43009576521715"/>
      <point x="276.8192682075271" y="335.92922314246982" type="curve" smooth="yes"/>
      <point x="325.65114864646097" y="666.92627312482193" type="line"/>
      <point x="626.65241628688523" y="667.25178860804408" type="line"/>
      <point x="633.98152982861359" y="720.74491817107639" type="line"/>
      <point x="333.45865785560864" y="721.07078377437165" type="line"/>
      <point x="380.99694060487752" y="1039.0021343819565" type="line" smooth="yes"/>
      <point x="410.53765480923238" y="1207.8224582027619"/>
      <point x="504.75178487930299" y="1421.1704393578718"/>
      <point x="705.4146261614776" y="1421.7556568143882" type="curve" smooth="yes"/>
      <point x="896.22274127078163" y="1422.3121337340483"/>
      <point x="927.50493450978286" y="1243.5290798024071"/>
      <point x="903.12016289221901" y="1089.3718157877724" type="curve"/>
      <point x="948.08992598265763" y="1089.2389781862457" type="line"/>
      <point x="974.58266347046685" y="1270.6168987267188"/>
      <point x="924.59886265367345" y="1476.1400659138333"/>
      <point x="704.79770916983477" y="1475.7841572638395" type="curve" smooth="yes"/>
      <point x="476.53491792851594" y="1475.4145472750524"/>
      <point x="367.12248682715415" y="1231.4909164770668"/>
      <point x="335.09156336686095" y="1039.0835869945199" type="curve" smooth="yes"/>
      <point x="288.12558951389479" y="721.05585834029284" type="line"/>
      <point x="116.46799624851512" y="720.74594920675122" type="line"/>
      <point x="109.25364834771325" y="667.24598236645863" type="line"/>
      <point x="279.48132798578001" y="666.95146422910955" type="line"/>
      <point x="229.97614560719285" y="336.03717289385975" type="line" smooth="yes"/>
      <point x="215.19552310825995" y="245.02927427386425"/>
      <point x="190.54939320367001" y="100.67983111981911"/>
      <point x="99.373960912996367" y="53.827751435169276" type="curve"/>
      <point x="3.9170686055444577" y="53.692553635903757" type="line"/>
    </contour>
  </outline>
</glyph>
<glyph name="yen" format="1">
  <advance width="884.64"/>
  <unicode hex="00A5"/>
  <outline>
    <contour>
      <point x="735.3749330677847" y="326.25245676174313" type="line"/>
      <point x="742.895699380319" y="380.73727335360735" type="line"/>
      <point x="424.7632971323826" y="381.08977268099818" type="line"/>
      <point x="466.85798524624397" y="620.90269852930999" type="line"/>
      <point x="786.4889999828697" y="621.23621241917613" type="line"/>
      <point x="793.99856301158081" y="675.70357778481264" type="line"/>
      <point x="498.23680265051792" y="676.29172454607931" type="line"/>
      <point x="983.32986477725603" y="1454.6510791117089" type="line"/>
      <point x="929.7467000146471" y="1454.8698056951735" type="line"/>
      <point x="485.74076188198057" y="738.32068328885487" type="line"/>
      <point x="455.15697216033311" y="686.91549066081018" type="line"/>
      <point x="449.13967549851225" y="686.96873176722488" type="line"/>
      <point x="438.52730636897672" y="737.76523585022778" type="line"/>
      <point x="243.90770576349945" y="1456.6922519484049" type="line"/>
      <point x="193.92232520656125" y="1456.9011834246728" type="line"/>
      <point x="412.62177197568849" y="676.01316703976602" type="line"/>
      <point x="111.65572628589341" y="675.75125328145452" type="line"/>
      <point x="104.12062788877951" y="621.26157811673193" type="line"/>
      <point x="421.28662846463294" y="620.91052236164478" type="line"/>
      <point x="379.19137001127007" y="381.09647796016588" type="line"/>
      <point x="60.533706778676233" y="380.73952066971196" type="line"/>
      <point x="53.012811515824055" y="326.25455484165172" type="line"/>
      <point x="370.1161122579154" y="325.91715597569419" type="line"/>
      <point x="313.95348574812675" y="0.0" type="line"/>
      <point x="359.00265386044072" y="0.0" type="line"/>
      <point x="415.71562185376354" y="325.90431734691566" type="line"/>
    </contour>
  </outline>
</glyph>
<glyph name="section" format="1">
  <advance width="1034.99"/>
  <unicode hex="00A7"/>
  <outline>
    <contour>
      <point x="746.48379700414228" y="-149.14359606807793" type="curve" smooth="yes"/>
      <point x="769.88373730601313" y="-5.7111964820506387"/>
      <point x="713.54894372445915" y="94.670430416040077"/>
      <point x="588.53225897953166" y="162.75142175546156" type="curve"/>
      <point x="731.57617541142258" y="193.66832282183091"/>
      <point x="857.19720991788802" y="277.44858511787493"/>
      <point x="883.04013238364598" y="430.78809995617536" type="curve" smooth="yes"/>
      <point x="922.12913357187347" y="662.72349680064974"/>
      <point x="735.49021988860068" y="737.51657680044173"/>
      <point x="552.09914470343756" y="803.99627446037493" type="curve" smooth="yes"/>
      <point x="389.82393085583914" y="862.82142254022074"/>
      <point x="254.88340133898416" y="941.67416591160179"/>
      <point x="292.13462709598542" y="1132.0366007062901" type="curve" smooth="yes"/>
      <point x="328.32721478882542" y="1316.9891485680041"/>
      <point x="487.21869783285536" y="1422.3401502078334"/>
      <point x="670.49608042628017" y="1421.7172573429643" type="curve" smooth="yes"/>
      <point x="886.18923299592871" y="1420.9841951187245"/>
      <point x="955.01563095131496" y="1231.6514625977482"/>
      <point x="925.68023605321673" y="1045.3143794996217" type="curve"/>
      <point x="970.60040535899907" y="1045.2299027215938" type="line"/>
      <point x="1004.1456179830345" y="1268.9773365439428"/>
      <point x="925.03907844630385" y="1476.2795997787509"/>
      <point x="669.869863438832" y="1475.8669278651271" type="curve" smooth="yes"/>
      <point x="459.65951805273812" y="1475.5269655954173"/>
      <point x="279.55449859532587" y="1340.7914731089243"/>
      <point x="245.1434987692304" y="1129.1429633162468" type="curve" smooth="yes"/>
      <point x="223.11121768578084" y="993.63107809897224"/>
      <point x="272.36180428550983" y="892.52413534281186"/>
      <point x="389.51182364033474" y="823.9188809934609" type="curve"/>
      <point x="246.28002225559274" y="791.22803170828422"/>
      <point x="134.04203135580053" y="702.17875607864585"/>
      <point x="108.95714146552901" y="551.19572885528169" type="curve" smooth="yes"/>
      <point x="70.53676198563852" y="319.94794477814384"/>
      <point x="256.46734773389153" y="229.62679293518028"/>
      <point x="443.64866704469955" y="165.99776270270576" type="curve" smooth="yes"/>
      <point x="601.75385835875795" y="112.25265589891738"/>
      <point x="736.27888440112213" y="34.365117777751124"/>
      <point x="699.6807671289024" y="-151.04858405706335" type="curve" smooth="yes"/>
      <point x="663.6447376910221" y="-333.61463158917178"/>
      <point x="503.7044124337117" y="-440.05615848252722"/>
      <point x="323.20127905492626" y="-440.78767564123314" type="curve" smooth="yes"/>
      <point x="96.735831625171755" y="-441.70546226104341"/>
      <point x="11.411831314762001" y="-267.92873257598109"/>
      <point x="43.255433030235579" y="-62.363514881421338" type="curve"/>
      <point x="-1.8795759364147671" y="-64.244530206589346" type="line"/>
      <point x="-36.265376756760915" y="-300.17345152060693"/>
      <point x="66.570647169049153" y="-495.72199064295273"/>
      <point x="323.85393054199596" y="-494.90219324651446" type="curve" smooth="yes"/>
      <point x="535.8649608695232" y="-494.22664958740017"/>
      <point x="711.67221402654923" y="-362.52486180853236"/>
    </contour>
    <contour>
      <point x="456.80961521241613" y="215.14854677129443" type="curve" smooth="yes"/>
      <point x="288.81641754258555" y="275.79726067674972"/>
      <point x="113.38791401831509" y="345.25065054783158"/>
      <point x="155.02252095810053" y="553.03886665071752" type="curve" smooth="yes"/>
      <point x="185.19260443578611" y="703.61042925895924"/>
      <point x="304.64726210134734" y="782.56113842130583"/>
      <point x="451.17851397678658" y="795.89429335578484" type="curve"/>
      <point x="478.5857254820836" y="785.16221416297628"/>
      <point x="506.29279408442954" y="775.70221659784954"/>
      <point x="534.0371377120232" y="765.91577170271194" type="curve" smooth="yes"/>
      <point x="694.65100424176887" y="709.26138566688473"/>
      <point x="878.46840095705693" y="629.16416943132936"/>
      <point x="836.74274121044778" y="427.94791948126078" type="curve" smooth="yes"/>
      <point x="804.5265132252448" y="272.58959508123053"/>
      <point x="654.09363627809762" y="204.09694622316852"/>
      <point x="509.14974346530403" y="196.50331381909572" type="curve"/>
      <point x="491.75357554355895" y="202.87324294821738"/>
      <point x="474.23159409470793" y="208.85888369234254"/>
    </contour>
  </outline>
</glyph>
<glyph name="copyright" format="1">
  <advance width="1616.02"/>
  <unicode hex="00A9"/>
  <outline>
    <contour>
      <point x="138.67362953173136" y="729.02047153473256" type="curve" smooth="yes"/>
      <point x="82.284012235372586" y="354.99870531288985"/>
      <point x="311.76873648992364" y="-20.942586943484471"/>
      <point x="715.75539741613068" y="-20.947483778728461" type="curve" smooth="yes"/>
      <point x="1125.4880287525921" y="-20.952450262485971"/>
      <point x="1459.4087429121896" y="340.10228922479939"/>
      <point x="1518.0422292199926" y="728.97898385387316" type="curve" smooth="yes"/>
      <point x="1574.5571263077504" y="1103.8044933147494"/>
      <point x="1344.1976588360812" y="1475.9624591073882"/>
      <point x="940.49301048275231" y="1475.9474549688357" type="curve" smooth="yes"/>
      <point x="531.6307715351802" y="1475.9322591426119"/>
      <point x="197.27543621930511" y="1117.715275506964"/>
    </contour>
    <contour>
      <point x="194.89512048048454" y="729.01656949735195" type="curve" smooth="yes"/>
      <point x="252.70991946090066" y="1085.3114819642085"/>
      <point x="564.24082323554012" y="1420.9959060154483"/>
      <point x="940.8991645813511" y="1420.9310833874192" type="curve" smooth="yes"/>
      <point x="1311.9263855401812" y="1420.8672298711344"/>
      <point x="1517.1172646737862" y="1069.7086734133154"/>
      <point x="1461.8226156947153" y="728.98252032463063" type="curve" smooth="yes"/>
      <point x="1404.0783865913913" y="373.16203120471079"/>
      <point x="1092.1886247775678" y="34.027937140287968"/>
      <point x="715.34922641658386" y="34.069626818425768" type="curve" smooth="yes"/>
      <point x="343.30686286392393" y="34.110785801423823"/>
      <point x="139.62403321618251" y="388.39777385900481"/>
    </contour>
    <contour>
      <point x="1041.4079787248293" y="615.51513679198956" type="line"/>
      <point x="1010.6396347778816" y="464.96877965759722"/>
      <point x="922.5936028125742" y="355.73462330183617"/>
      <point x="759.02622566878142" y="357.37037295701668" type="curve" smooth="yes"/>
      <point x="577.25596799381526" y="359.18815986236348"/>
      <point x="536.71689720381369" y="540.31794551835605"/>
      <point x="558.89487129311544" y="689.00775052426286" type="curve" smooth="yes"/>
      <point x="571.90214932958224" y="768.9878404631387" type="line" smooth="yes"/>
      <point x="600.04681872922743" y="928.13063684324698"/>
      <point x="703.58696022953404" y="1100.7900491410028"/>
      <point x="884.28415904942312" y="1101.6961645135227" type="curve" smooth="yes"/>
      <point x="1045.9915396339509" y="1102.5070544684002"/>
      <point x="1098.0323088324242" y="987.75857215416431"/>
      <point x="1078.8107403705619" y="842.2967777402273" type="curve"/>
      <point x="1130.456266754697" y="842.12037175915145" type="line"/>
      <point x="1150.9430347431487" y="1017.4800985498615"/>
      <point x="1074.1711705280825" y="1155.7536243310669"/>
      <point x="883.58124902901125" y="1154.7869278721728" type="curve" smooth="yes"/>
      <point x="671.40243987961617" y="1153.7107298138296"/>
      <point x="546.89828198644898" y="957.3843744803055"/>
      <point x="516.04262438322223" y="768.08791371589734" type="curve" smooth="yes"/>
      <point x="504.17320153771266" y="689.02151638230214" type="line" smooth="yes"/>
      <point x="479.38973110162527" y="508.39079935839612"/>
      <point x="546.11617449551522" y="302.63100997544007"/>
      <point x="759.38681947956297" y="302.17409077766189" type="curve" smooth="yes"/>
      <point x="951.20970973248882" y="301.76312207103837"/>
      <point x="1061.6751002219535" y="437.37703820622994"/>
      <point x="1093.4810431119652" y="615.36796165743885" type="curve"/>
    </contour>
  </outline>
</glyph>
<glyph name="ordfeminine" format="1">
  <advance width="770.18"/>
  <unicode hex="00AA"/>
  <outline>
    <contour>
      <point x="592.53210549707774" y="704.4128513916279" type="curve"/>
      <point x="640.63901676455828" y="704.60944771487766" type="line"/>
      <point x="637.03998985234034" y="765.73172355003976"/>
      <point x="640.01377338563509" y="825.60282524046863"/>
      <point x="650.08892576454309" y="886.03498521433107" type="curve" smooth="yes"/>
      <point x="704.17214491572315" y="1199.9843332758762" type="line" smooth="yes"/>
      <point x="723.01807299668599" y="1325.1703395293212"/>
      <point x="694.98635474885691" y="1475.8065394824091"/>
      <point x="540.03121812031918" y="1475.788658713145" type="curve" smooth="yes"/>
      <point x="398.93305124846222" y="1475.7723769439806"/>
      <point x="294.7194277009018" y="1377.6489529731898"/>
      <point x="266.03959787493625" y="1243.993144001674" type="curve"/>
      <point x="312.39239243419235" y="1243.7502019419285" type="line"/>
      <point x="341.67385957377206" y="1355.6860915417624"/>
      <point x="421.95995504308576" y="1422.9986328791804"/>
      <point x="540.46809997340051" y="1421.4522131876581" type="curve" smooth="yes"/>
      <point x="665.24027672637897" y="1419.8240537797258"/>
      <point x="675.49686189258352" y="1299.2093425649307"/>
      <point x="657.80978550183318" y="1201.3074739458768" type="curve" smooth="yes"/>
      <point x="643.82078616470699" y="1132.0467525213173" type="line"/>
      <point x="503.78970432852748" y="1131.8613508759818" type="line" smooth="yes"/>
      <point x="358.02944988764602" y="1128.6835568365595"/>
      <point x="231.08400275862476" y="1052.6299013617527"/>
      <point x="207.37730602258182" y="900.26253764401179" type="curve" smooth="yes"/>
      <point x="188.84057973063614" y="781.12353871435573"/>
      <point x="255.06919202602541" y="689.73994851300677"/>
      <point x="379.76684836163673" y="691.38466117222492" type="curve" smooth="yes"/>
      <point x="471.96599541612096" y="692.60073137583402"/>
      <point x="545.54579745910371" y="755.03052171034255"/>
      <point x="598.83126815627304" y="824.46301339083323" type="curve"/>
      <point x="593.41754459928893" y="784.20967586706763"/>
      <point x="591.1517310401257" y="745.00794127967345"/>
    </contour>
    <contour>
      <point x="380.61307125733975" y="746.46535210525599" type="curve" smooth="yes"/>
      <point x="282.73581584455451" y="745.48142806655346"/>
      <point x="234.38344465830468" y="810.01012894110522"/>
      <point x="253.24239555987583" y="903.93513081579408" type="curve" smooth="yes"/>
      <point x="278.54431366951707" y="1029.9486465349157"/>
      <point x="387.45516513937031" y="1075.3783995854844"/>
      <point x="505.31279944452888" y="1077.8122203986854" type="curve" smooth="yes"/>
      <point x="637.31697156411474" y="1077.9375140159282" type="line"/>
      <point x="605.20588299827182" y="900.46005557801743" type="line"/>
      <point x="562.00355392049278" y="822.5433919737784"/>
      <point x="474.28396830967438" y="747.4069911709197"/>
    </contour>
  </outline>
</glyph>
<glyph name="logicalnot" format="1">
  <advance width="936.05"/>
  <unicode hex="00AC"/>
  <outline>
    <contour>
      <point x="143.42307045291705" y="752.75488495585864" type="line"/>
      <point x="136.23349557070912" y="700.25147920173754" type="line"/>
      <point x="737.663699782756" y="699.92065477910899" type="line"/>
      <point x="685.18063492938791" y="396.33669415027799" type="line"/>
      <point x="731.20618575064691" y="396.33928938416136" type="line"/>
      <point x="793.37379844411089" y="752.91548129399621" type="line"/>
    </contour>
  </outline>
</glyph>
